<svg xmlns="http://www.w3.org/2000/svg" width="48px" height="48px" viewBox="0 0 48 48"><g stroke="none" stroke-width="1" fill="none" fill-rule="evenodd"><g fill="#000000" fill-rule="nonzero"><path d="M46.125,0 L1.875,0 C0.839355469,0 0,0.839355469 0,1.875 L0,36.5625 C0,37.5981445 0.839355469,38.4375 1.875,38.4375 L15.939331,38.4375 L11.3917237,45.0640869 C10.5388183,46.3066406 11.4309082,48 12.9375,48 L35.0625,48 C36.569458,48 37.4611817,46.3062744 36.6082763,45.0640869 L32.060669,38.4375 L46.125,38.4375 C47.1606445,38.4375 48,37.5981445 48,36.5625 L48,1.875 C48,0.839355469 47.1606445,0 46.125,0 Z M16.498169,44.25 L20.4873047,38.4375 L27.5126953,38.4375 L31.501831,44.25 L16.498169,44.25 Z M44.25,34.6875 C43.0740967,34.6875 4.92480469,34.6875 3.75,34.6875 L3.75,3.75 L44.25,3.75 L44.25,34.6875 Z M8.42504888,17.3569336 L11.9553223,18.4936523 L11.9553223,24.4211426 C11.9553223,25.2352295 12.4808349,25.9562989 13.2557373,26.2056885 L23.4250489,29.4807129 C23.7901612,29.5982666 24.1918945,29.6037598 24.5749511,29.4807129 L34.7442627,26.2056885 C35.5191651,25.9562989 36.0446777,25.2352295 36.0446777,24.4211426 L36.0446777,18.4936523 L39.5749511,17.3569336 C41.3012695,16.8006592 41.3052979,14.3448487 39.5749511,13.7874756 L24.5749511,8.95678706 C24.2010498,8.83666987 23.7989502,8.83666987 23.4250489,8.95678706 L8.42504887,13.7874756 C6.69873047,14.3433838 6.69470212,16.7991943 8.42504887,17.3569336 L8.42504888,17.3569336 Z M32.2946777,23.0551758 L24,25.7259521 L15.7053223,23.0551758 L15.7053223,19.7014161 L23.4250489,22.1872558 C23.7901612,22.3048096 24.1918945,22.310669 24.5749511,22.1872558 L32.2946777,19.7014161 L32.2946777,23.0551758 Z M24,12.7115479 L32.8831787,15.5720214 L24,18.4324951 L15.1168213,15.5720214 L24,12.7115479 Z"></path></g></g></svg>