<svg xmlns="http://www.w3.org/2000/svg" width="48px" height="41px" viewBox="0 0 48 41"><g stroke="none" stroke-width="1" fill="none" fill-rule="evenodd"><g fill="#000000" fill-rule="nonzero"><path d="M46.125,0 L1.875,0 C0.839355469,0 0,0.839355469 0,1.875 L0,39 C0,40.0356445 0.839355469,40.875 1.875,40.875 L46.125,40.875 C47.1606445,40.875 48,40.0356445 48,39 C48,38.0866699 48,3.00366206 48,1.875 C48,0.839355469 47.1606445,0 46.125,0 Z M44.25,37.125 L3.75,37.125 L3.75,12.75 L44.25,12.75 L44.25,37.125 Z M44.25,9 L3.75,9 L3.75,3.75 L44.25,3.75 L44.25,9 Z M14.4580078,25.5300292 C13.7255859,24.7979737 13.7255859,23.6107177 14.4580078,22.8782959 C15.1904297,22.1462402 16.3773193,22.1462402 17.1097412,22.8782959 L21.75,27.5189209 L30.8902588,18.3786621 C31.6226807,17.6462402 32.8099365,17.6462402 33.5419922,18.3786621 C34.2740479,19.1107177 34.2744141,20.2979737 33.5419922,21.0303955 L23.0760498,31.4963379 C22.3436279,32.2287598 21.1563721,32.2283935 20.4243164,31.4963379 L14.4580078,25.5300292 Z"></path></g></g></svg>