<svg xmlns="http://www.w3.org/2000/svg" width="48px" height="37px" viewBox="0 0 48 37"><g stroke="none" stroke-width="1" fill="none" fill-rule="evenodd"><g fill="#000000" fill-rule="nonzero"><path d="M24,0.855826863 C12.1303711,-2.86634111 0,6.0241618 0,18.4808269 C0,30.9147868 12.1142578,39.833488 24,36.1058269 C35.8692627,39.8279948 48,30.9374919 48,18.4808269 C48,6.04650074 35.8857422,-2.87146801 24,0.855826863 Z M3.75,18.4808269 C3.75,8.33641771 13.826294,1.22423511 23.3752442,4.59886893 C29.2441406,6.67382005 33.1875,12.2523112 33.1875,18.4808269 C33.1875,24.7093425 29.2441406,30.2878337 23.3752442,32.3627849 C13.8094482,35.7429118 3.75,28.6083904 3.75,18.4808269 Z M29.6275635,33.1984783 C39.3585205,25.8010174 39.3735352,11.171989 29.6275635,3.76317552 C37.6992188,3.81554371 44.25,10.3970867 44.25,18.4808269 C44.25,26.5645671 37.6992188,33.1461101 29.6275635,33.1984783 L29.6275635,33.1984783 Z M20.34375,27.404655 L20.34375,27.730949 C20.34375,28.7662273 19.5043945,29.605949 18.46875,29.605949 C17.4331055,29.605949 16.59375,28.7662273 16.59375,27.730949 L16.59375,27.4083171 C15.8283692,27.1351237 15.1270752,26.6931071 14.5352783,26.1013102 C13.8032227,25.3692546 13.8032227,24.1819987 14.5356445,23.4499431 C15.2680664,22.7178875 16.454956,22.7175212 17.1873779,23.4499431 C18.3259277,24.5888591 20.2811279,23.772575 20.2811279,22.1682049 C20.2811279,21.1688151 19.4681396,20.3558269 18.46875,20.3558269 C15.4013672,20.3558269 12.9063721,17.8604656 12.9063721,14.793449 C12.9063721,12.383781 14.4462891,10.328239 16.59375,9.55699874 L16.59375,9.23070486 C16.59375,8.19542652 17.4331055,7.35570486 18.46875,7.35570486 C19.5043945,7.35570486 20.34375,8.19542652 20.34375,9.23070486 L20.34375,9.55333668 C21.1091308,9.82652999 21.8104248,10.2685466 22.4022217,10.8603435 C23.1342773,11.5923992 23.1342773,12.779655 22.4018555,13.5117107 C21.6694336,14.2441326 20.482544,14.2441326 19.7501221,13.5117107 C18.6115723,12.3731609 16.6563721,13.1890789 16.6563721,14.793449 C16.6563721,15.7928386 17.4693604,16.6058269 18.46875,16.6058269 C21.5361328,16.6058269 24.0311279,19.1011882 24.0311279,22.1682049 C24.0311279,24.5778727 22.4912109,26.6334148 20.34375,27.404655 Z"></path></g></g></svg>