<svg xmlns="http://www.w3.org/2000/svg" width="48px" height="48px" viewBox="0 0 48 48"><g stroke="none" stroke-width="1" fill="none" fill-rule="evenodd"><g fill="#000000" fill-rule="nonzero"><path d="M40.9706113,29.1399944 C38.3123248,26.481708 35.1396311,24.5249542 31.6776244,23.3601081 C34.8702869,21.000416 36.9447909,17.2104711 36.9447909,12.944744 C36.9448847,5.80698009 31.1379046,0 24.0000469,0 C16.8621892,0 11.0552091,5.80698009 11.0552091,12.944744 C11.0552091,17.2105649 13.1297131,21.0005098 16.3223756,23.3601081 C12.8603689,24.5248604 9.68786267,26.4816142 7.02938873,29.1399944 C2.49647363,33.6730033 0,39.700015 0,46.1106526 C0,47.1541858 0.845907902,48.0000938 1.88944119,48.0000938 L46.1105588,48.0000938 C47.1540921,48.0000938 48,47.1541858 48,46.1106526 C48,39.700015 45.5036201,33.6730033 40.9706113,29.1399944 Z M14.834279,12.944744 C14.834279,7.89067166 18.9459745,3.77897613 24.0001406,3.77897613 C29.0543067,3.77897613 33.1660023,7.89067166 33.1660023,12.944744 C33.1660023,17.9988164 29.0543067,22.1105119 24.0001406,22.1105119 C18.9459745,22.1105119 14.834279,17.9988164 14.834279,12.944744 Z M3.8665388,44.2211176 C4.82222817,33.9536913 13.4871826,25.8894881 24.0000469,25.8894881 C34.5129112,25.8894881 43.1778656,33.9535976 44.1335549,44.2211176 L3.8665388,44.2211176 L3.8665388,44.2211176 Z"></path></g></g></svg>