<svg xmlns="http://www.w3.org/2000/svg" width="70px" height="70px" viewBox="0 0 70 70"><g stroke="none" stroke-width="1" fill="none" fill-rule="evenodd"><path d="M21.5524746,53.9911562 C11.2799391,43.7184787 11.2799391,27.0036714 21.5524746,16.7311359 C25.7901268,12.4697799 31.3663928,9.79830282 37.3427992,9.16630832 C36.3995665,9.06546578 35.4516505,9.01470487 34.5030426,9.01414196 C27.5116167,8.99518137 20.8031409,11.7739462 15.8729615,16.7311359 C5.60042596,27.0036714 5.60042596,43.7184787 15.8729615,53.9911562 C21.5143674,59.6334263 29.4115039,62.4106818 37.3427992,61.541643 C31.3698921,60.9077407 25.7957079,58.2423235 21.5524746,53.9911562 Z" fill="#EEEEEE"></path><path d="M34.9754361,0.104937914 C20.8479956,0.104937914 8.11164745,8.61528055 2.70531418,21.6673354 C-2.70101909,34.7193903 0.287343507,49.7429517 10.2769371,59.7325761 C23.9176983,73.3733372 46.0337419,73.3733372 59.674503,59.7325761 C73.3152642,46.0918149 73.3152642,23.9757713 59.674503,10.3350101 C53.1382108,3.76311949 44.2443198,0.0794190826 34.9754361,0.104937914 L34.9754361,0.104937914 Z M58.4691684,58.5273834 C45.4827875,71.4366019 24.4998393,71.4053875 11.5519235,58.4575891 C-1.39599237,45.5097906 -1.42739691,24.5268427 11.4817039,11.5403448 C24.4680847,-1.36887366 45.4510329,-1.33765934 58.3989487,11.6101391 C71.3468646,24.5579376 71.3782691,45.5408855 58.4691684,58.5273834 Z" fill="#CCCCCC"></path><path d="M34.9754361,6.98328267 C27.5318994,6.96305547 20.3895963,9.92148662 15.1405882,15.1992292 C4.20369168,26.1361258 4.20369168,43.9318864 15.1405882,54.8689249 C26.1022911,65.8059671 43.8485811,65.8059671 54.810284,54.8689249 C65.7473225,43.9318864 65.7473225,26.1361258 54.810284,15.1992292 C49.5613118,9.92143297 42.4189854,6.96299211 34.9754361,6.98328267 L34.9754361,6.98328267 Z M53.6055172,53.6641582 C43.3328398,63.9366937 26.6180325,63.9366937 16.345497,53.6641582 C6.07296146,43.3916227 6.07281947,26.6766734 16.345497,16.4039959 C26.6346051,6.1150164 43.3164091,6.1150164 53.6055172,16.4039959 C63.8781947,26.6766734 63.8781947,43.3914807 53.6055172,53.6641582 Z" fill="#CCCCCC"></path><path d="M35.0283976,45.2921298 C35.0107911,45.2909939 34.9933266,45.289432 34.9754361,45.289432 C34.9575456,45.289432 34.9400811,45.2909939 34.9224746,45.2921298 C32.311726,45.2605165 30.2109952,43.1368204 30.2077688,40.5258824 C30.2077688,40.0553761 29.8263481,39.6739554 29.3558418,39.6739554 C28.8853355,39.6739554 28.5039148,40.0553761 28.5039148,40.5258824 C28.5084539,43.7687023 30.9094008,46.5088805 34.1235091,46.9394726 L34.1235091,49.4887221 C34.1235092,49.9592284 34.5049299,50.340649 34.9754361,50.340649 C35.4459424,50.340649 35.827363,49.9592284 35.8273631,49.4887221 L35.8273631,46.9394726 C39.2064623,46.4916541 41.658713,43.4992206 41.4338366,40.0980026 C41.2089602,36.6967847 38.3840799,34.0532562 34.9754361,34.0542191 C33.0470172,34.0545062 31.3083258,32.8930681 30.5701661,31.1115182 C29.8320064,29.3299683 30.2397586,27.279182 31.6032754,25.9155027 C32.9667923,24.5518233 35.01753,24.1438269 36.7991678,24.8817743 C38.5808056,25.6197218 39.7424509,27.3582748 39.7423935,29.2866937 C39.7423935,29.7572 40.1238142,30.1386207 40.5943205,30.1386207 C41.0648268,30.1386207 41.4462475,29.7572 41.4462475,29.2866937 C41.4418414,26.0437964 39.0408462,23.3035024 35.8266531,22.8729615 L35.8266531,20.579432 C35.8266531,20.1089258 35.4452324,19.7275051 34.9747262,19.7275051 C34.5042199,19.7275051 34.1227992,20.1089258 34.1227992,20.579432 L34.1227992,22.8729615 C30.7441863,23.3212902 28.2925468,26.3134902 28.5173983,29.7142939 C28.7422498,33.1150976 31.5664973,35.7584709 34.9747262,35.758073 C37.5933674,35.7635548 39.7173681,37.8802159 39.7319144,40.4988225 C39.7464607,43.117429 37.6461063,45.2575563 35.0276876,45.2921298 L35.0283976,45.2921298 Z" fill="#AE152D" class="primary-fill-color"></path></g></svg>