<svg xmlns="http://www.w3.org/2000/svg" width="70px" height="71px" viewBox="0 0 70 71"><g stroke="none" stroke-width="1" fill="none" fill-rule="evenodd"><polygon fill="#EEEEEE" points="3.58363636 44.8804545 10.6609091 44.8804545 10.1709091 43.274697 1.97787879 43.274697 5.07439394 68.6456061 6.48409091 68.6456061"></polygon><path d="M37.7439394,50.3848485 C37.5686233,50.4089047 37.3900696,50.3839963 37.2280303,50.3128788 C36.7852723,50.504133 36.5521409,50.9933012 36.6824387,51.4576666 C36.8127366,51.9220321 37.2663161,52.2185138 37.7439394,52.1515152 C39.7983193,51.8678281 41.8742849,51.7720275 43.9460606,51.865303 L51.0262121,52.1857576 C51.0413636,52.1857576 51.055303,52.1868182 51.0698485,52.1868182 C51.3253666,52.1868182 51.5704172,52.0853036 51.7510816,51.9046108 C51.931746,51.723918 52.033222,51.4788515 52.0331818,51.2233333 C52.0331818,51.0790909 52.0277273,50.9363636 52.0190909,50.7942424 L52.9712121,50.2921212 L63.2272727,44.7587879 C64.3248009,44.1645572 65.6358111,44.1127369 66.7768182,44.6184848 L68.0527273,43.7422727 C66.7957117,42.4359573 64.821428,42.1291648 63.2272727,42.9924242 L52.9712121,48.5254545 L52.0190909,49.0274242 C52.0277273,49.1695455 52.0331818,49.3124242 52.0331818,49.4565152 C52.033222,49.7120333 51.931746,49.9570998 51.7510816,50.1377926 C51.5704172,50.3184854 51.3253666,50.42 51.0698485,50.42 C51.054697,50.42 51.0407576,50.42 51.0262121,50.4189394 L43.9460606,50.0984848 C41.8742802,50.0051837 39.7983077,50.1010353 37.7439394,50.3848485 L37.7439394,50.3848485 Z" fill="#EEEEEE"></path><path d="M15.7010606,47.6109091 L17.7375758,45.7978788 C21.5767084,42.9126928 26.7078701,42.4193861 31.0263636,44.520303 L31.8822727,44.9293939 C33.3536226,45.6369491 34.9652416,46.0046031 36.5978788,46.0051515 L44.8984848,46.0051515 C46.6727919,46.007052 48.324061,46.912141 49.2801515,48.4068182 L50.0074242,48.4393939 C49.5214581,46.0015206 47.384165,44.2442753 44.8983333,44.2387879 L36.5978788,44.2387879 C34.9652416,44.2382394 33.3536226,43.8705854 31.8822727,43.1630303 L31.0263636,42.7539394 C26.7079172,40.6528726 21.5766989,41.1461262 17.7375758,44.0313636 L15.7010606,45.8443939 C14.7244588,46.7132614 13.5715592,47.3607272 12.3213636,47.7424242 L12.8093939,49.3434848 C13.8732057,48.9519916 14.8540783,48.3642904 15.7010606,47.6109091 Z" fill="#EEEEEE"></path><path d="M62.1363636,41.5454545 L61.7769697,41.7393939 C60.3251515,39.9775758 57.8098485,39.2948485 55.8934848,40.2660606 C55.8866667,40.2693939 55.8798485,40.2730303 55.8731818,40.2765152 L55.024697,40.7333333 C52.9515391,38.9779087 50.0001284,38.7112515 47.6459091,40.0666667 L43.0769697,42.5515152 L36.9972727,42.5515152 C35.6808306,42.5497608 34.3816251,42.2520672 33.1957576,41.6804545 L32.3593939,41.2759091 C27.504139,38.9135349 21.7337022,39.4770999 17.4272727,42.7342424 C17.4074242,42.7493939 17.3880303,42.7645455 17.3695455,42.7816667 L15.350303,44.5792424 C14.5872033,45.2569998 13.6851984,45.7597914 12.7074242,46.0524242 L11.5606061,42.2878788 C11.4439573,41.9053295 11.0909992,41.6439474 10.6910606,41.6439394 L0.925454545,41.6439394 C0.665181605,41.6439357 0.417389754,41.7554894 0.244840959,41.9503455 C0.0722921638,42.1452017 -0.00846272281,42.4046697 0.023030303,42.6630303 L3.27818182,69.3539394 C3.33378617,69.810103 3.72106598,70.1530303 4.18060606,70.1530303 L18.8281818,70.1530303 C19.1162698,70.1530303 19.3873043,70.0164694 19.5587486,69.7849494 C19.7301929,69.5534294 19.7817529,69.2543498 19.6977273,68.9787879 L17.7734848,62.6645455 L23.7665152,58.8766667 C24.5684094,58.4329698 25.5091568,58.3112388 26.3975758,58.5362121 C26.4163636,58.5409091 26.435303,58.5451515 26.4543939,58.5484848 L38.6451515,60.7933333 C41.9581228,61.3861412 45.3738516,60.9038607 48.3931818,59.4169697 C48.4317674,59.3979484 48.4689341,59.376175 48.5043939,59.3518182 L69.5898485,44.8742424 C69.9863612,44.6019816 70.1021807,44.0679768 69.8540909,43.6559091 C68.2601933,41.0012697 64.8593081,40.0712792 62.1363636,41.5454545 L62.1363636,41.5454545 Z M56.724697,41.8830303 C57.8330303,41.3280303 59.2283333,41.7830303 60.1195455,42.6334848 L52.1237879,46.9471212 L51.6540909,47.1945455 C51.4008944,46.475669 51.0308795,45.8034684 50.5589394,45.205 L56.724697,41.8830303 Z M48.5257576,41.6580303 C48.5328788,41.6539394 48.5409091,41.65 48.5472727,41.6457576 C50.0058025,40.8026951 51.8074388,40.8196451 53.2498485,41.69 L49.1845455,43.8787879 C48.409542,43.3131368 47.5252008,42.9151368 46.5878788,42.7101515 L48.5257576,41.6580303 Z M4.98484848,68.3348485 L1.95227273,43.4621212 L10.0172727,43.4621212 L17.6006061,68.3348485 L4.98484848,68.3348485 Z M47.5278788,57.815 C44.8732069,59.1072674 41.8768832,59.5236194 38.9704545,59.0040909 L26.809697,56.764697 C25.4720786,56.4344764 24.0589094,56.625987 22.8574242,57.300303 C22.8433333,57.3080303 22.8292424,57.3165152 22.8154545,57.325303 L17.2222727,60.8612121 L13.2374242,47.7928788 C14.4661707,47.422567 15.599406,46.7888095 16.5581818,45.9357576 L18.5489394,44.1630303 C22.3094409,41.3358518 27.3363345,40.8522829 31.5668182,42.9107576 L32.4030303,43.315303 C33.8358659,44.0059195 35.405626,44.3655947 36.9962121,44.3677273 L45.1060606,44.3677273 C47.5643229,44.3712117 49.6744293,46.1184053 50.1363636,48.5328788 L44.2583333,48.2669697 C42.1214576,48.170929 39.9802754,48.2698738 37.8613636,48.5625758 C37.3681482,48.6357851 37.0259456,49.0926117 37.0943428,49.5865174 C37.16274,50.0804231 37.6162085,50.4270634 38.1107576,50.3634848 C40.1197954,50.0858094 42.1499848,49.9920873 44.1760606,50.0834848 L51.0936364,50.3963636 C51.1074242,50.3963636 51.1212121,50.3972727 51.1348485,50.3972727 C51.6369255,50.3972727 52.0439394,49.9902589 52.0439394,49.4881818 C52.0439394,49.3410606 52.0377273,49.195303 52.0287879,49.050303 L52.9774242,48.550303 L63,43.1448485 C64.5826841,42.2878138 66.5438508,42.6021576 67.7793939,43.9109091 L47.5278788,57.815 Z" fill="#CCCCCC"></path><path d="M7.87484848,64.5739394 C7.87484848,65.7315594 8.57218193,66.7751926 9.64168333,67.2181946 C10.7111847,67.6611966 11.9422341,67.4163256 12.760795,66.5977647 C13.5793559,65.7792038 13.8242269,64.5481544 13.3812249,63.478653 C12.9382229,62.4091516 11.8945897,61.7118182 10.7369697,61.7118182 C9.15699071,61.7135717 7.87660202,62.9939604 7.87484848,64.5739394 Z M10.7369697,63.53 C11.3135215,63.53 11.7809091,63.9973876 11.7809091,64.5739394 C11.7809091,65.1504912 11.3135215,65.6178788 10.7369697,65.6178788 C10.1604179,65.6178788 9.6930303,65.1504912 9.6930303,64.5739394 C9.69403159,63.9978519 10.160882,63.5311371 10.7369697,63.530303 L10.7369697,63.53 Z" fill="#CCCCCC"></path><path d="M35.0119697,0.15 C31.2028674,0.154674876 28.1161221,3.24135237 28.1113636,7.05045455 L28.1113636,10.0462121 C28.1291625,13.8446485 31.2134159,16.9144834 35.0118939,16.9144834 C38.810372,16.9144834 41.8946254,13.8446485 41.9124242,10.0462121 L41.9124242,7.05045455 C41.9076659,3.24141144 38.8210128,0.154758335 35.0119697,0.15 Z M40.0942424,10.0462121 C40.0789757,12.8422849 37.8080084,15.1008864 35.0118939,15.1008864 C32.2157795,15.1008864 29.9448122,12.8422849 29.9295455,10.0462121 L29.9295455,7.05045455 C29.9448122,4.25438178 32.2157795,1.99578023 35.0118939,1.99578023 C37.8080084,1.99578023 40.0789757,4.25438178 40.0942424,7.05045455 L40.0942424,10.0462121 Z" fill="#AE152D" class="primary-fill-color"></path><path d="M46.3833333,10.1321212 L46.3833333,12.7543939 C46.3833333,16.1527861 49.1382745,18.9077273 52.5366667,18.9077273 C55.9350588,18.9077273 58.69,16.1527861 58.69,12.7543939 L58.69,10.1321212 C58.69,7.93374689 57.5171814,5.9023652 55.6133334,4.80317801 C53.7094854,3.70399082 51.3638479,3.70399082 49.4599999,4.80317801 C47.5561519,5.9023652 46.3833333,7.93374689 46.3833333,10.1321212 Z M56.8718182,10.1321212 L56.8718182,12.7543939 C56.8718182,15.148632 54.9309047,17.0895455 52.5366667,17.0895455 C50.1424286,17.0895455 48.2015152,15.148632 48.2015152,12.7543939 L48.2015152,10.1321212 C48.2015152,7.73788314 50.1424286,5.7969697 52.5366667,5.7969697 C54.9309047,5.7969697 56.8718182,7.73788314 56.8718182,10.1321212 L56.8718182,10.1321212 Z" fill="#AE152D" class="primary-fill-color"></path><path d="M56.8018182,19.0686364 C56.3169697,19.0330303 56.0677273,19.34 55.8656061,19.5865152 C55.0505939,20.5823037 53.8216658,21.1462747 52.5352551,21.1148562 C51.2488444,21.0834378 50.0489132,20.4601458 49.2834848,19.4257576 C49.10735,19.1873337 48.8260333,19.0497571 48.529697,19.0571212 C47.3487638,19.0836399 46.1955423,19.4200811 45.1856061,20.0327273 C43.8385017,18.466271 41.9145425,17.5119982 39.8522727,17.3874242 C39.3825758,17.3683333 39.145,17.6534848 38.9148485,17.9328788 C37.9585697,19.1015479 36.5164452,19.7634604 35.0068436,19.7265917 C33.4972419,19.689723 32.089149,18.9582003 31.1910606,17.7442424 C31.015199,17.5055086 30.7336834,17.3678913 30.4372727,17.3757576 C28.4436115,17.4218667 26.547749,18.2488751 25.1577273,19.6787879 C25.0428788,19.7962121 24.9339394,19.9178788 24.8277273,20.0413636 C23.8890102,19.4698682 22.8251022,19.135879 21.7281818,19.0683333 C21.245,19.0327273 20.9939394,19.339697 20.7919697,19.5862121 C19.9769878,20.5819974 18.7480826,21.1459697 17.4616936,21.1145511 C16.1753046,21.0831324 14.9753972,20.4598389 14.21,19.4254545 C14.033612,19.1873347 13.7524639,19.0498406 13.4562121,19.0568182 C9.76349639,19.1508196 6.81818182,22.1710881 6.81818182,25.865 L6.81818182,31.7656061 C6.81818182,32.2676831 7.22519568,32.674697 7.72727273,32.674697 L22.98,32.674697 L22.98,34.7613636 C22.98,35.2634407 23.3870139,35.6704545 23.8890909,35.6704545 L46.1348485,35.6704545 C46.6369255,35.6704545 47.0439394,35.2634407 47.0439394,34.7613636 L47.0439394,32.674697 L62.2727273,32.674697 C62.7748043,32.674697 63.1818182,32.2676831 63.1818182,31.7656061 L63.1818182,25.865 C63.1797687,22.2717195 60.3878006,19.2975454 56.8018182,19.0686364 Z M8.63636364,30.8565152 L8.63636364,25.865 C8.65225946,23.330661 10.5521891,21.2044595 13.0687879,20.904697 C14.2025102,22.1910979 15.8331238,22.9300223 17.5478058,22.9343966 C19.2624879,22.9387708 20.8968503,22.2081756 22.0371212,20.9275758 C22.6630625,21.0211509 23.2653103,21.2336605 23.8113636,21.5536364 C23.2632616,22.6284347 22.9783184,23.8180611 22.98,25.0245455 L22.98,30.8565152 L8.63636364,30.8565152 Z M45.2257576,33.8522727 L24.7981818,33.8522727 L24.7981818,25.0245455 C24.8168235,22.0374039 27.0746873,19.5401132 30.0448485,19.2215152 C31.3166439,20.6938522 33.1645473,21.5421494 35.1101111,21.5467711 C37.0556749,21.5513927 38.9075876,20.7118843 40.1863636,19.2456061 C43.0727206,19.6448012 45.2230654,22.1107153 45.2257576,25.0245455 L45.2257576,33.8522727 Z M61.3636364,30.8565152 L47.0439394,30.8565152 L47.0439394,25.0245455 C47.0449019,23.8139152 46.7568698,22.6205426 46.2037879,21.5436364 C46.7978334,21.1972211 47.4579723,20.9793427 48.1415152,20.9040909 C49.2752452,22.1908984 50.9060861,22.9301426 52.6210779,22.9346328 C54.3360698,22.9391231 55.9707593,22.2084289 57.1112121,20.9275758 C59.5541908,21.2961424 61.3613236,23.3943764 61.3636364,25.865 L61.3636364,30.8565152 Z" fill="#AE152D" class="primary-fill-color"></path><path d="M17.4633333,18.9077273 C20.8600987,18.903803 23.6127424,16.1511593 23.6166667,12.7543939 L23.6166667,10.1321212 C23.6166667,7.93374692 22.443848,5.90236528 20.54,4.80317812 C18.6361521,3.70399096 16.2905146,3.70399096 14.3866666,4.80317812 C12.4828187,5.90236528 11.31,7.93374692 11.31,10.1321212 L11.31,12.7543939 C11.3138409,16.1511939 14.0665334,18.9038863 17.4633333,18.9077273 Z M13.1281818,10.1321212 C13.1281818,7.73788314 15.0690953,5.7969697 17.4633333,5.7969697 C19.8575714,5.7969697 21.7984848,7.73788314 21.7984848,10.1321212 L21.7984848,12.7543939 C21.7984848,14.3031944 20.9722097,15.7343451 19.6309091,16.5087454 C18.2896086,17.2831456 16.6370581,17.2831456 15.2957575,16.5087454 C13.954457,15.7343451 13.1281818,14.3031944 13.1281818,12.7543939 L13.1281818,10.1321212 Z" fill="#AE152D" class="primary-fill-color"></path></g></svg>