<svg xmlns="http://www.w3.org/2000/svg" width="70px" height="80px" viewBox="0 0 70 80"><g stroke="none" stroke-width="1" fill="none" fill-rule="evenodd"><path d="M5.97156398,73.6011848 L5.97156398,34.2402844 C5.98482863,31.874267 7.63992919,29.8350452 9.95260664,29.3353081 L4.97630332,29.3353081 C2.66362588,29.8350452 1.00852531,31.874267 0.995260664,34.2402844 L0.995260664,73.6011848 C1.02328142,76.3721494 3.26851972,78.6085279 6.03957346,78.6255924 L11.0158768,78.6255924 C8.24482304,78.6085279 5.99958474,76.3721494 5.97156398,73.6011848 L5.97156398,73.6011848 Z" fill="#EEEEEE"></path><path d="M50.0450237,0 L19.9604502,0 C19.3906342,0.0181290378 18.9318728,0.473847971 18.9099526,1.04353081 L18.9099526,29.3601896 L20.9004739,29.3601896 L20.9004739,1.99052133 L49.0995261,1.99052133 L49.0995261,29.1943128 L51.0900474,29.1943128 L51.0900474,1.04353081 C51.0708619,0.47476587 50.6138155,0.0183723845 50.0450237,0 Z" fill="#AE152D" class="primary-fill-color"></path><path d="M46.1925355,11.2527488 C43.9998104,11.150237 42.5692891,9.19438389 42.5230095,6.3185782 C42.5242321,5.77211217 42.0900721,5.32405143 41.5438389,5.30805687 L28.4619668,5.30805687 C27.9126335,5.32272719 27.4731064,5.76892046 27.4667062,6.31841232 C27.4194313,9.24099526 26.0368483,11.1353081 23.8112796,11.2371564 C23.2829236,11.2716476 22.876404,11.7177347 22.8909953,12.2470142 L22.8909953,29.1943128 L24.8815166,29.1943128 L24.8815166,13.1196919 C27.3696682,12.5842417 29.0475118,10.450237 29.3945261,7.2985782 L40.6091232,7.2985782 C40.9828436,10.7819905 42.9620853,12.6217299 45.1184834,13.1133886 L45.1184834,29.1943128 L47.1090047,29.1943128 L47.1090047,12.2470142 C47.1239651,11.7217977 46.7172298,11.2805359 46.1925355,11.2527488 Z" fill="#AE152D" class="primary-fill-color"></path><path d="M35,20.228673 C32.7215402,20.2293854 30.626818,21.4790091 29.5437974,23.4836153 C28.4607768,25.4882214 28.5637586,27.9251898 29.8120379,29.8312796 L31.4759479,28.7388152 C30.3264607,26.9821272 30.6461008,24.6471547 32.2254063,23.2640179 C33.8047118,21.8808811 36.1614438,21.8719188 37.7512231,23.2430042 C39.3410024,24.6140896 39.678392,26.9465635 38.5422986,28.7119431 L40.2145024,29.7916351 C41.4437098,27.883094 41.53232,25.4555741 40.445531,23.4624937 C39.3587419,21.4694134 37.2701277,20.2290928 35,20.228673 L35,20.228673 Z" fill="#AE152D" class="primary-fill-color"></path><path d="M54.2417062,50.7548104 L54.2417062,57.0864929 C54.2417062,57.6361602 54.6872995,58.0817536 55.2369668,58.0817536 C55.7866341,58.0817536 56.2322275,57.6361602 56.2322275,57.0864929 L56.2322275,50.7548104 C56.2322275,50.2051431 55.7866341,49.7595498 55.2369668,49.7595498 C54.6872995,49.7595498 54.2417062,50.2051431 54.2417062,50.7548104 Z" fill="#CCCCCC"></path><path d="M60.2132701,58.0817536 C60.7629374,58.0817536 61.2085308,57.6361602 61.2085308,57.0864929 L61.2085308,50.7548104 C61.2085308,50.2051431 60.7629374,49.7595498 60.2132701,49.7595498 C59.6636029,49.7595498 59.2180095,50.2051431 59.2180095,50.7548104 L59.2180095,57.0864929 C59.2180095,57.6361602 59.6636029,58.0817536 60.2132701,58.0817536 Z" fill="#CCCCCC"></path><path d="M63.9605924,28.1990521 L56.7298578,28.1990521 L56.7298578,11.2947156 C56.7179074,10.9681249 56.5519587,10.6664997 56.2824911,10.4815902 C56.0130235,10.2966807 55.6718932,10.2503468 55.3628673,10.3566825 L51.0900474,11.8699763 L51.0900474,13.9907109 L54.7393365,12.7035071 L54.7393365,28.1990521 L11.028981,28.1990521 L18.9099526,25.4012085 L18.9099526,23.3088389 L4.68651659,28.4085545 C1.9597039,29.0283949 0.0184894611,31.4439711 0,34.2402844 L0,73.601019 C0.0317290806,76.9200715 2.72026956,79.5998985 6.03940758,79.6208531 L63.9605924,79.6208531 C67.2797304,79.5998985 69.9682709,76.9200715 70,73.601019 L70,34.2402844 C69.9700326,30.9170058 67.2838617,28.2300234 63.9605924,28.1990521 Z M68.0094787,62.7014229 L55.823673,62.7014229 C54.3389693,62.7023363 52.915574,62.1093845 51.8706173,61.0546753 C50.8256607,59.9999661 50.245957,58.571124 50.2606635,57.0864929 L50.2606635,50.7548104 C50.245138,49.2679561 50.8238951,47.8364412 51.8684116,46.7781585 C52.912928,45.7198759 54.3367429,45.1224261 55.823673,45.1184834 L68.0094787,45.1184834 L68.0094787,62.7014229 Z M68.0094787,43.1279621 L55.823673,43.1279621 C53.8090164,43.1324975 51.8792565,43.9398465 50.4615725,45.3712911 C49.0438885,46.8027357 48.2552173,48.7402041 48.2701422,50.7548104 L48.2701422,57.0864929 C48.2560426,59.0988748 49.0456619,61.0336653 50.4637837,62.4615345 C51.8819054,63.8894038 53.8112417,64.6922577 55.823673,64.6919431 L68.0094787,64.6919431 L68.0094787,73.601019 C67.9790052,75.821214 66.180909,77.6106176 63.9605924,77.6303318 L6.03940758,77.6303318 C3.81909096,77.6106176 2.02099479,75.821214 1.99052133,73.601019 L1.99052133,34.2402844 C2.01927401,32.0158658 3.81500217,30.2193284 6.03940758,30.1895735 L63.9605924,30.1895735 C66.1849978,30.2193284 67.980726,32.0158658 68.0094787,34.2402844 L68.0094787,43.1279621 Z" fill="#CCCCCC"></path></g></svg>