<svg xmlns="http://www.w3.org/2000/svg" width="80px" height="68px" viewBox="0 0 80 68"><g stroke="none" stroke-width="1" fill="none" fill-rule="evenodd"><path d="M25.3089431,37.8861789 L25.3089431,21.9769106 L41.5414634,13.9469919 L40,13.1895935 L23.6829268,21.1806504 L23.6829268,36.7756098 C23.6829268,40.2747967 26.1276423,44.8978862 29.0211382,46.8707317 L29.5491057,47.2307317 C27.1578862,44.9195122 25.3089431,40.9739837 25.3089431,37.8861789 L25.3089431,37.8861789 Z" fill="#EEEEEE"></path><path d="M71.0973984,24.3206504 C70.9170841,24.045665 70.6103762,23.8800147 70.2815447,23.8800147 C69.9527132,23.8800147 69.6460053,24.045665 69.4656911,24.3206504 L60.7227642,37.6512195 C60.5261991,37.9509999 60.5098703,38.3344325 60.6802373,38.6498389 C60.8506043,38.9652454 61.1802217,39.161815 61.5386992,39.1617886 L68.996748,39.1617886 C67.9684759,46.6026012 64.2478405,53.4082043 58.539187,58.2902439 C53.1435772,62.916748 46.3655285,65.5700813 39.9430894,65.5700813 C35.7544715,65.5700813 31.3749593,64.4409756 27.2780488,62.304878 C23.0235821,60.0832234 19.3335286,56.91804 16.4900813,53.0513821 C16.1716869,52.6166487 15.5611562,52.5223374 15.1264228,52.8407318 C14.6916894,53.1591261 14.597378,53.7696568 14.9157724,54.2043902 C17.936297,58.3121952 21.8562907,61.6747801 26.375935,64.0349593 C30.7499187,66.3157724 35.441626,67.5213008 39.9430894,67.5213008 C46.8245528,67.5213008 54.0653659,64.6965854 59.8091057,59.7715447 C65.9502451,54.5190905 69.9250532,47.1756085 70.9645528,39.1617886 L79.0243902,39.1617886 C79.3828678,39.161815 79.7124851,38.9652454 79.8828521,38.6498389 C80.0532191,38.3344325 80.0368904,37.9509999 79.8403252,37.6512195 L71.0973984,24.3206504 Z M63.3452033,37.2105691 L70.2814634,26.6341463 L77.2178862,37.2100813 L63.3452033,37.2105691 Z" fill="#CCCCCC"></path><path d="M8.90260163,43.321626 C9.08291586,43.5966114 9.38962375,43.7622618 9.71845528,43.7622618 C10.0472868,43.7622618 10.3539947,43.5966114 10.5343089,43.321626 L19.2772358,29.9910569 C19.4738009,29.6912766 19.4901297,29.3078439 19.3197627,28.9924375 C19.1493957,28.6770311 18.8197783,28.4804615 18.4613008,28.4804878 L11.003252,28.4804878 C12.0315241,21.0396752 15.7521595,14.2340722 21.460813,9.35203252 C26.8564228,4.72552846 33.6344715,2.07219512 40.0569106,2.07219512 C44.2455285,2.07219512 48.6250407,3.20130081 52.7219512,5.33739837 C56.9764179,7.55905305 60.6664714,10.7242364 63.5099187,14.5908943 C63.8283131,15.0256277 64.4388438,15.119939 64.8735772,14.8015446 C65.3083106,14.4831503 65.402622,13.8726196 65.0842276,13.4378862 C62.063703,9.33008122 58.1437093,5.96749636 53.624065,3.60731707 C49.2500813,1.32650407 44.558374,0.12097561 40.0569106,0.12097561 C33.1754472,0.12097561 25.9346341,2.94569106 20.1908943,7.87073171 C14.0497549,13.1231859 10.0749468,20.4666679 9.03544715,28.4804878 L0.975609756,28.4804878 C0.617132248,28.4804615 0.287514872,28.6770311 0.117147873,28.9924375 C-0.053219126,29.3078439 -0.0368903719,29.6912766 0.159674797,29.9910569 L8.90260163,43.321626 Z M16.6547967,30.4317073 L9.71853659,41.0081301 L2.78211382,30.4317073 L16.6547967,30.4317073 Z" fill="#CCCCCC"></path><g transform="translate(21.626016, 11.056911)" fill="#AE152D" class="primary-fill-color"><path d="M36.6422768,25.7186992 L36.6422768,9.5398374 C36.6422768,9.16783784 36.4313114,8.82803957 36.097561,8.66373984 L18.8042276,0.170406504 C18.5332047,0.0374549529 18.215901,0.0374549529 17.944878,0.170406504 L0.652357724,8.63902439 C0.317795708,8.80279877 0.105691057,9.14278785 0.105691057,9.51528455 L0.105691057,25.7186992 C0.105691057,29.9169106 2.82487805,35.0593496 6.29593496,37.4260163 L17.8243902,45.2884553 C18.1559956,45.5146458 18.5922971,45.5146458 18.9239024,45.2884553 L30.4523577,37.4260163 C33.9230894,35.0593496 36.6422768,29.9169106 36.6422768,25.7186992 L36.6422768,25.7186992 Z M18.3739837,43.300813 L7.39512195,35.8131707 C4.50162602,33.8403252 2.05691057,29.2172358 2.05691057,25.7180488 L2.05691057,10.1237398 L18.3739837,2.13268293 L34.6910569,10.1471545 L34.6910569,25.7186992 C34.6910569,29.278374 32.2962602,33.8069919 29.3526829,35.8139837 L18.3739837,43.300813 Z"></path><path d="M25.0095935,17.4723577 L16.2803252,25.9946341 L11.738374,21.5609756 C11.3515873,21.1927452 10.7406235,21.2039253 10.3675679,21.5860603 C9.99451236,21.9681952 9.99802409,22.5792512 10.3754472,22.9570732 L15.5988618,28.056748 C15.9778617,28.4266861 16.5827887,28.4266861 16.9617886,28.056748 L26.3725203,18.8697561 C26.6270782,18.6274108 26.7316065,18.2668751 26.6461528,17.9259519 C26.5606991,17.5850287 26.2984737,17.3164213 25.9597035,17.2227959 C25.6209333,17.1291705 25.2579888,17.2250007 25.0095935,17.4736585 L25.0095935,17.4723577 Z"></path></g></g></svg>