<svg xmlns="http://www.w3.org/2000/svg" width="80px" height="91px" viewBox="0 0 80 91"><g stroke="none" stroke-width="1" fill="none" fill-rule="evenodd"><g fill-rule="nonzero"><path d="M78.7262944,16.8170558 L42.2611168,16.6209093 L42.2538071,16.6209093 C41.5809729,16.6191195 41.0340785,17.1631049 41.0322798,17.8359391 C41.03049,18.5087733 41.5744754,19.0556677 42.2473096,19.0574619 L77.5007107,19.2471066 L77.5007107,67.5939086 L69.6040609,67.5939086 C68.9312267,67.5939086 68.3857868,68.1393485 68.3857868,68.8121827 C68.3857868,69.485017 68.9312267,70.0304569 69.6040609,70.0304569 L78.7208122,70.0304569 C79.3936464,70.0304569 79.9390863,69.485017 79.9390863,68.8121827 L79.9390863,18.0353299 C79.9390863,17.3646309 79.3969867,16.820074 78.7262944,16.8170558 L78.7262944,16.8170558 Z" fill="#ABABAB"></path><path d="M51.0767513,67.5939086 L8.04385787,67.5939086 C4.98274593,67.590328 2.50214876,65.10964 2.4986802,62.0485279 L2.4986802,58.5195939 C2.50237248,55.4586404 4.98290426,52.9781995 8.04385787,52.9746193 L18.3366497,52.9746193 C19.009484,52.9746193 19.5549239,52.4291794 19.5549239,51.7563452 L19.5549239,18.8741117 L27.8324873,18.9595939 L27.8452792,18.9595939 C28.5181134,18.9629581 29.0662805,18.4202454 29.0696447,17.7474112 C29.0730088,17.074577 28.5302961,16.5264099 27.8574619,16.5230457 L19.5549239,16.4373604 L19.5549239,6.66436548 C19.5549239,5.99153127 19.009484,5.44609137 18.3366497,5.44609137 L8.04385787,5.44609137 C3.76833086,5.45147661 0.254588838,8.82142258 0.0706598985,13.0929949 C0.0651463407,13.1391546 0.0621319797,13.1855937 0.0621319797,13.2320812 L0.0621319797,62.0483249 C0.0668317957,66.4546279 3.63755506,70.0255329 8.04385787,70.0304569 L51.0767513,70.0304569 C51.7495855,70.0304569 52.2950254,69.485017 52.2950254,68.8121827 C52.2950254,68.1393485 51.7495855,67.5939086 51.0767513,67.5939086 L51.0767513,67.5939086 Z M8.04385787,7.88263959 L17.1183756,7.88263959 L17.1183756,50.5380711 L8.04385787,50.5380711 C5.97317812,50.5372559 3.98382418,51.3440696 2.4986802,52.7870051 L2.4986802,13.4282234 C2.50203689,10.367032 4.98266676,7.88622045 8.04385787,7.88263959 Z" fill="#ABABAB"></path><g transform="translate(26.802030, 0.000000)" fill="#AE152D" class="primary-fill-color"><path d="M16.2787817,11.1849746 L16.2787817,1.37116751 C16.2787817,0.6983333 15.7333418,0.152893401 15.0605076,0.152893401 L1.33705584,0.152893401 C0.664221625,0.152893401 0.118781726,0.6983333 0.118781726,1.37116751 L0.118781726,45.1884264 C0.118781726,45.4102815 0.17937768,45.6279231 0.294010152,45.817868 L7.15573604,57.1884264 C7.37627257,57.5538534 7.77196417,57.7772186 8.19878173,57.7772186 C8.62559928,57.7772186 9.02129089,57.5538534 9.24182741,57.1884264 L16.1035533,45.817868 C16.2181858,45.6279231 16.2787744,45.4102815 16.2787817,45.1884264 L16.2787817,12.142132 C16.4092678,11.8362801 16.4092678,11.4904205 16.2787817,11.1845685 L16.2787817,11.1849746 Z M13.8422335,2.58944162 L13.8422335,10.4454822 L2.55532995,10.4454822 L2.55532995,2.58944162 L13.8422335,2.58944162 Z M8.19878173,54.2008122 L2.55532995,44.8491371 L2.55532995,12.8820305 L13.8422335,12.8820305 L13.8422335,44.8491371 L8.19878173,54.2008122 Z"></path><path d="M44.0203341,43.6196954 C44.019902,43.5223617 44.0078363,43.4254269 43.9843655,43.3309645 L43.9843655,33.4251777 C43.9843655,32.7523435 43.4389256,32.2069036 42.7660914,32.2069036 L24.4716751,32.2069036 C23.7988409,32.2069036 23.253401,32.7523435 23.253401,33.4251777 L23.253401,89.5932995 C23.253401,90.2661337 23.7988409,90.8115736 24.4716751,90.8115736 L42.7660914,90.8115736 C43.4389256,90.8115736 43.9843655,90.2661337 43.9843655,89.5932995 L43.9843655,70.7673096 C44.0323236,70.5777408 44.0323236,70.3792135 43.9843655,70.1896447 L43.9843655,61.8477157 C44.0323236,61.6581469 44.0323236,61.4596196 43.9843655,61.2700508 L43.9843655,52.9269036 C44.0323236,52.7373347 44.0323236,52.5388074 43.9843655,52.3492386 L43.9843655,43.9086294 C44.0078236,43.8140957 44.019889,43.7170953 44.0203341,43.6196954 L44.0203341,43.6196954 Z M25.6897462,88.3750254 L25.6897462,34.6434518 L41.5476142,34.6434518 L41.5476142,42.4014213 L36.4308629,42.4014213 C35.7580287,42.4014213 35.2125888,42.9468612 35.2125888,43.6196954 C35.2125888,44.2925296 35.7580287,44.8379695 36.4308629,44.8379695 L41.5476142,44.8379695 L41.5476142,51.4196954 L36.4308629,51.4196954 C35.7580287,51.4196954 35.2125888,51.9651353 35.2125888,52.6379695 C35.2125888,53.3108038 35.7580287,53.8562437 36.4308629,53.8562437 L41.5476142,53.8562437 L41.5476142,60.3401015 L36.4308629,60.3401015 C35.7580287,60.3401015 35.2125888,60.8855414 35.2125888,61.5583756 C35.2125888,62.2312098 35.7580287,62.7766497 36.4308629,62.7766497 L41.5476142,62.7766497 L41.5476142,69.2601015 L36.4308629,69.2601015 C35.9956155,69.2601015 35.5934303,69.4923032 35.3758065,69.8692385 C35.1581828,70.2461739 35.1581828,70.7105774 35.3758065,71.0875127 C35.5934303,71.4644481 35.9956155,71.6966498 36.4308629,71.6966497 L41.5476142,71.6966497 L41.5476142,88.3750254 L25.6897462,88.3750254 Z"></path><path d="M33.4891371,76.0239594 C31.6879681,76.0239594 30.0641082,77.108812 29.3747738,78.7728516 C28.6854394,80.4368911 29.066386,82.3523243 30.3399757,83.625972 C31.6135655,84.8996198 33.5289812,85.2806538 35.1930522,84.5913952 C36.8571232,83.9021367 37.942132,82.2783263 37.942132,80.4771574 C37.9393348,78.0189628 35.9473314,76.0268686 33.4891371,76.0239594 L33.4891371,76.0239594 Z M33.4891371,82.4936041 C32.6734414,82.4936862 31.9380226,82.0023753 31.6258314,81.2487866 C31.3136403,80.4951978 31.4861634,79.6277515 32.0629473,79.0509676 C32.6397312,78.4741837 33.5071775,78.3016606 34.2607663,78.6138518 C35.014355,78.9260429 35.5056659,79.6614617 35.5055838,80.4771574 C35.5043528,81.5902999 34.6022796,82.4923731 33.4891371,82.4936041 L33.4891371,82.4936041 Z"></path></g></g></g></svg>