<svg xmlns="http://www.w3.org/2000/svg" width="79px" height="58px" viewBox="0 0 79 58"><g stroke="none" stroke-width="1" fill="none" fill-rule="evenodd"><g fill-rule="nonzero"><path d="M4.38331508,56.9746541 L56.3187257,56.9746541 L56.3187257,55.0632554 L12.125117,55.0632554 L12.125117,13.716675 L53.5696565,13.716675 L53.5696565,26.2067098 L55.4810553,26.2067098 L55.4810553,13.716675 L61.3108213,13.716675 C62.6854886,13.7283297 63.7913066,14.8505365 63.7827377,16.2252265 L63.7827377,25.2768143 L65.6941568,25.2768143 L65.6941568,16.2252265 C65.7014603,13.795416 63.7406086,11.8181758 61.3108213,11.8052763 L47.6857342,11.8052763 L47.6857342,4.06299652 C47.6857342,1.82267795 45.9258138,0 43.7625884,0 L21.9323444,0 C19.769119,0 18.0091986,1.82267795 18.0091986,4.06299652 L18.0091986,11.8052763 L4.38331508,11.8052763 C1.95352779,11.8181758 -0.00732388127,13.795416 -2.04496257e-05,16.2252265 L-2.04496257e-05,52.5547038 C-0.00732388127,54.9845143 1.95352779,56.9617545 4.38331508,56.9746541 L4.38331508,56.9746541 Z M41.9730413,11.8052763 L23.7217322,11.8052763 L23.7217322,5.67701344 L41.9730413,5.67701344 L41.9730413,11.8052763 Z M19.9205973,4.06299652 C19.9205973,2.87665505 20.8229368,1.91139871 21.9323444,1.91139871 L43.7625884,1.91139871 C44.8718367,1.91139871 45.7743355,2.87665505 45.7743355,4.06299652 L45.7743355,11.8052763 L43.88444,11.8052763 L43.88444,5.0145545 C43.884706,4.3261657 43.3277094,3.76745905 42.639323,3.76561473 L23.0556098,3.76561473 C22.3671611,3.76737138 21.8100678,4.32610368 21.8103335,5.0145545 L21.8103335,11.8052763 L19.9205973,11.8052763 L19.9205973,4.06299652 Z M1.91135024,16.2252265 C1.90291763,14.8505722 3.00868477,13.728417 4.38331508,13.716675 L10.2130811,13.716675 L10.2130811,55.0632554 L4.38331508,55.0632554 C3.00868477,55.0515133 1.90291763,53.9293581 1.91135024,52.5547038 L1.91135024,16.2252265 Z" fill="#ABABAB"></path><g transform="translate(43.643604, 23.892484)" fill="#AE152D" class="primary-fill-color"><path d="M17.4330712,0.0267595819 C7.89885515,0.0267595819 0.14223992,7.59494276 0.14223992,16.8974017 C0.14223992,26.1998606 7.89885515,33.7680438 17.4330712,33.7680438 C26.9672872,33.7680438 34.7237432,26.1998606 34.7237432,16.8974017 C34.7237432,7.59494276 26.9666501,0.0267595819 17.4330712,0.0267595819 Z M17.4330712,31.8566451 C8.95283225,31.8566451 2.05363863,25.1460428 2.05363863,16.8974017 C2.05363863,8.64876058 8.95283225,1.93815829 17.4330712,1.93815829 C25.9133101,1.93815829 32.8123444,8.64907914 32.8123444,16.8974017 C32.8123444,25.1457242 25.9133101,31.8566451 17.4330712,31.8566451 Z"></path><path d="M18.6385266,8.21901444 L18.6385266,7.07376804 C18.6385266,6.54594987 18.2106455,6.11806869 17.6828273,6.11806869 C17.1550091,6.11806869 16.7271279,6.54594987 16.7271279,7.07376804 L16.7271279,8.2231558 C15.8612317,8.35348375 15.0567184,8.74806353 14.4235739,9.35295172 C13.1077352,10.6355002 13.0303235,12.427118 13.0378099,12.9447885 C13.0674365,14.9697561 14.6077053,16.6779094 16.7838328,17.0984171 L16.9991837,17.1403086 C17.1563962,17.1710503 17.3418019,17.2072076 17.4579194,17.2291887 C17.5289597,17.2427277 17.7108611,17.2970433 17.7889099,17.3202987 C17.8168286,17.3287232 17.8442662,17.3386667 17.8711,17.3500846 C17.8835241,17.3555002 17.8961075,17.360438 17.9086909,17.3660129 L18.2063912,17.4789447 C18.233093,17.4891054 18.2592505,17.5006423 18.2847586,17.5135092 C18.4258835,17.5847088 18.4696864,17.6100348 18.5628671,17.6640319 L18.7492285,17.7728223 C18.7595819,17.7793529 18.7710503,17.7865207 18.7839522,17.7943255 C19.0899353,17.9781384 20.6190543,18.9679243 20.6794226,20.397332 C20.7155799,21.2514087 20.4970433,21.9025585 20.011548,22.3883723 C19.2340866,23.1661523 17.9567944,23.3281434 17.325555,23.3024988 C16.3977302,23.2634744 14.5836536,22.4504928 14.4243703,21.0346242 C14.3652987,20.5101049 13.8922047,20.132785 13.3676854,20.1918567 C12.8431661,20.2509283 12.4658462,20.7240223 12.5249179,21.2485416 C12.7772225,23.4891787 14.9767646,24.8652265 16.7272872,25.1568741 L16.7272872,26.122449 C16.7272872,26.6502672 17.1551684,27.0781483 17.6829866,27.0781483 C18.2108047,27.0781483 18.6386859,26.6502672 18.6386859,26.122449 L18.6386859,25.1030363 C19.6622648,24.9291112 20.6108327,24.4542173 21.3633848,23.7389348 C22.2235142,22.8788054 22.6473668,21.6948532 22.5898656,20.3160976 C22.4909507,17.9732006 20.4135789,16.5433151 19.7659333,16.1532305 L19.6803982,16.100667 L19.521115,16.0090791 C19.3967148,15.9370831 19.3288601,15.8983773 19.1464808,15.8063116 C19.0616911,15.7636525 18.9747674,15.7253741 18.8860528,15.6916277 L18.6050772,15.5849079 C18.5172551,15.5483343 18.4275595,15.5164331 18.3363664,15.489338 C18.1498457,15.4335889 17.9700149,15.3811847 17.8148731,15.3518766 C17.7014634,15.3303733 17.5200398,15.2950124 17.3661722,15.2650672 L17.1473171,15.2223793 C15.6484619,14.9326431 14.9637033,13.8560478 14.9492086,12.9173917 C14.9394923,12.2468094 15.1467198,11.3180289 15.7578895,10.7223096 C16.2454555,10.2470085 16.9553808,10.0252862 17.8672773,10.0611249 C20.3239024,10.1598805 20.9043305,12.1198606 20.9637432,12.3484321 C21.093165,12.8562591 21.6074059,13.1651375 22.1165118,13.0408417 C22.6256178,12.916546 22.9396647,12.4054451 22.8205077,11.895112 C22.2775726,9.94965863 20.6375379,8.50801474 18.6385266,8.21901444 L18.6385266,8.21901444 Z"></path></g></g></g></svg>