<svg xmlns="http://www.w3.org/2000/svg" width="80px" height="80px" viewBox="0 0 80 80"><g stroke="none" stroke-width="1" fill="none" fill-rule="evenodd"><g fill-rule="nonzero"><path d="M70.9344348,59.9702609 C70.7350345,60.1033493 70.5006046,60.174229 70.2608696,60.1739141 L71.0506087,60.1739141 L70.9344348,59.9702609 Z" fill="#D4E1F4"></path><path d="M50.3304348,7.92086957 L47.8956522,7.92086957 L47.8956522,19.3043478 C47.8956431,19.5160701 47.9508512,19.7241343 48.0558261,19.908 L69.6603478,57.7391304 L37.893913,57.7391304 C37.6646206,54.846041 35.2499876,52.6152086 32.3478261,52.6152086 C29.4456646,52.6152086 27.0310316,54.846041 26.8017391,57.7391304 L9.8813913,57.7391304 L30.701913,19.8911304 C30.8007425,19.7113614 30.8524364,19.5094919 30.8521739,19.3043478 L30.8521739,8 L28.4173913,8 L28.4173913,18.9913043 L1.56817391,67.8003478 C-0.0067826087,69.9236522 -0.270956522,72.5481739 0.864695652,74.8373913 C2.21026087,77.5509565 5.256,79.3043478 8.62382609,79.3043478 L72.2713043,79.3043478 C75.3593043,79.3043478 77.9201739,77.9210435 79.1210435,75.604 C80.3313043,73.2688696 79.992,70.3591304 78.2151304,67.8095652 L50.3304348,18.9812174 L50.3304348,7.92086957 Z M32.3478261,55.0513043 C33.9040965,55.0539351 35.2224765,56.1986296 35.4434783,57.7391304 L29.2521739,57.7391304 C29.4729408,56.1984224 30.791384,55.0534508 32.3478261,55.0507826 L32.3478261,55.0513043 Z M76.1913043,69.1645217 C77.4638261,70.9683478 77.7509565,72.9568696 76.9594783,74.484 C76.173913,76 74.4646957,76.8695652 72.2713043,76.8695652 L8.62382609,76.8695652 C6.1733913,76.8695652 3.984,75.6474783 3.04608696,73.7565217 C2.29547826,72.2434783 2.47895652,70.6248696 3.56226087,69.2 C3.59843938,69.1524455 3.63105012,69.1022796 3.65982609,69.049913 L8.62608696,60.0205217 C8.80685571,60.1213073 9.01042503,60.1741156 9.2173913,60.173913 L70.2608696,60.173913 C70.5006046,60.174229 70.7350345,60.1033493 70.9344348,59.9702609 L76.1286957,69.065913 C76.1481739,69.0996522 76.1688696,69.1325217 76.1913043,69.164 L76.1913043,69.1645217 Z" fill="#ABABAB"></path><path d="M20.2608696,64 C17.1872849,64 14.6956522,66.4916327 14.6956522,69.5652174 C14.6956522,72.6388021 17.1872849,75.1304348 20.2608696,75.1304348 C23.3344543,75.1304348 25.826087,72.6388021 25.826087,69.5652174 C25.822541,66.4931027 23.3329843,64.003546 20.2608696,64 L20.2608696,64 Z M20.2608696,72.6956522 C18.5319782,72.6956522 17.1304348,71.2941088 17.1304348,69.5652174 C17.1304348,67.836326 18.5319782,66.4347826 20.2608696,66.4347826 C21.989761,66.4347826 23.3913043,67.836326 23.3913043,69.5652174 C23.3892918,71.2932745 21.9889266,72.6936396 20.2608696,72.6956522 L20.2608696,72.6956522 Z" fill="#AE152D" class="primary-fill-color"></path><path d="M59.1274783,63.2173913 C56.5341412,63.2173913 54.4318261,65.3197064 54.4318261,67.9130435 C54.4318261,70.5063806 56.5341412,72.6086957 59.1274783,72.6086957 C61.7208153,72.6086957 63.8231304,70.5063806 63.8231304,67.9130435 C63.8201594,65.320938 61.7195837,63.2203623 59.1274783,63.2173913 Z M59.1274783,70.173913 C57.8788345,70.173913 56.8666087,69.1616873 56.8666087,67.9130435 C56.8666087,66.6643997 57.8788345,65.6521739 59.1274783,65.6521739 C60.376122,65.6521739 61.3883478,66.6643997 61.3883478,67.9130435 C61.3868146,69.1610516 60.3754864,70.1723799 59.1274783,70.173913 L59.1274783,70.173913 Z" fill="#AE152D" class="primary-fill-color"></path><path d="M48.8013913,53.1217391 C51.8611728,53.0624522 54.2978627,50.5417477 54.2534351,47.4817144 C54.2090074,44.4216812 51.7001655,41.9727792 48.6399525,42.0023465 C45.5797396,42.0319138 43.1186833,44.528834 43.133324,47.5891545 C43.1480958,50.649475 45.6330355,53.1226275 48.6933913,53.1227826 C48.7296812,53.1227826 48.7656812,53.1224348 48.8013913,53.1217391 Z M45.5652174,47.6173913 C45.5324411,45.8889126 46.9070023,44.4610944 48.6354783,44.4281739 C48.656,44.4281739 48.6765217,44.4281739 48.6968696,44.4281739 C50.4017263,44.4285127 51.7928423,45.7930326 51.826087,47.4975652 L51.826087,47.4975652 C51.859176,49.2264566 50.4844566,50.654824 48.7555652,50.687913 C47.0266738,50.7210021 45.5983065,49.3462827 45.5652174,47.6173913 Z" fill="#AE152D" class="primary-fill-color"></path><path d="M27.6530435,37.0676522 C27.7012664,39.6252046 29.7877324,41.6736266 32.3457391,41.6747826 C32.3761739,41.6747826 32.4067826,41.6747826 32.4372174,41.6747826 C35.0299787,41.6254344 37.091866,39.4836602 37.0426679,36.890896 C36.9934697,34.2981318 34.851815,32.2361205 32.2590479,32.2851685 C29.6662809,32.3342165 27.6041456,34.4757519 27.6530435,37.0685217 L27.6530435,37.0676522 Z M30.7191304,35.4106087 C31.1339947,34.977254 31.7050238,34.7279376 32.3048696,34.7182609 C32.3195942,34.7182609 32.3343768,34.7182609 32.3492174,34.7182609 C33.5806022,34.7187927 34.58511,35.7046671 34.6086957,36.9358261 L34.6086957,36.9358261 C34.6279952,37.9589207 33.9577199,38.8674254 32.9744834,39.1508704 C31.9912469,39.4343155 30.9402159,39.0220248 30.4119427,38.1456559 C29.8836694,37.269287 30.0098771,36.1473595 30.7196522,35.4102609 L30.7191304,35.4106087 Z" fill="#AE152D" class="primary-fill-color"></path><path d="M56.6086957,8.17391304 L56.6086957,1.2173913 C56.6086957,0.545044652 56.063651,0 55.3913043,0 L24.6086957,0 C23.936349,0 23.3913043,0.545044652 23.3913043,1.2173913 L23.3913043,8.17391304 C23.3913043,8.8462597 23.936349,9.39130435 24.6086957,9.39130435 L55.3913043,9.39130435 C55.7141766,9.39130435 56.0238248,9.26304385 56.25213,9.03473869 C56.4804352,8.80643353 56.6086957,8.49678529 56.6086957,8.17391304 L56.6086957,8.17391304 Z M54.173913,6.95652174 L25.826087,6.95652174 L25.826087,2.43478261 L54.173913,2.43478261 L54.173913,6.95652174 Z" fill="#ABABAB"></path></g></g></svg>