<svg xmlns="http://www.w3.org/2000/svg" width="80px" height="65px" viewBox="0 0 80 65"><g stroke="none" stroke-width="1" fill="none" fill-rule="evenodd"><g fill-rule="nonzero"><path d="M75.6629046,41.0906224 L75.6629046,13.986888 C75.6625944,13.9415047 75.6591561,13.8961967 75.6526141,13.8512863 C75.7202665,13.3854271 75.4524739,12.935829 75.0106224,12.773444 L40.6192531,0.131784232 C40.3974616,0.0502608264 40.1539077,0.0502608264 39.9321162,0.131784232 L5.54074689,12.773112 C5.15212965,12.9159686 4.892448,13.2843801 4.88849284,13.6984044 C4.88462717,14.1124286 5.13730391,14.4856793 5.52315353,14.6358506 L16.0424896,18.7297925 L16.0424896,30.1503734 L18.0341909,30.1503734 L18.0341909,19.5048963 L39.9145228,28.0204149 C40.1468336,28.1107 40.4045356,28.1107 40.6368465,28.0204149 L62.5171784,19.5048963 L62.5171784,32.4851452 C52.4460873,36.1038542 41.6447973,37.21355 31.0482988,35.7181743 C30.6960438,35.6681571 30.3438629,35.8098651 30.1244193,36.0899183 C29.9049756,36.3699714 29.8516079,36.745823 29.9844193,37.0758934 C30.1172306,37.4059637 30.4160438,37.6401073 30.7682988,37.6901245 C33.9054714,38.1349626 37.0701185,38.3579227 40.2386722,38.3573444 C47.8228721,38.3578034 55.3535374,37.0873767 62.5178423,34.5988382 L62.5178423,43.6250622 C53.5386958,46.8443081 43.9689492,48.0811105 34.46639,47.2504564 L34.2904564,49.2343568 C36.2547165,49.4087414 38.2257261,49.4957676 40.2034855,49.4954357 C48.2782333,49.4952668 56.2886196,48.0592488 63.8605809,45.2544398 C64.2505145,45.10938 64.5091783,44.7372034 64.5092116,44.3211618 L64.5092116,18.7297925 L73.6710373,15.1639834 L73.6710373,41.1058921 C71.0453874,41.6393907 69.2543785,44.0798979 69.5329123,46.7446826 C69.8114461,49.4094672 72.0684127,51.426864 74.7476323,51.4060391 C77.4268519,51.3848896 79.6519376,49.3323833 79.8886914,46.6635623 C80.1254453,43.9947412 78.2964239,41.582591 75.6627386,41.0902905 L75.6629046,41.0906224 Z M40.2756846,26.0237344 L8.69842324,13.7344398 L40.2756846,2.12763485 L71.8529461,13.7344398 L40.2756846,26.0237344 Z M74.7107054,49.4071369 C73.4135916,49.4072041 72.2441627,48.6258932 71.7477322,47.4275356 C71.2513018,46.229178 71.5256356,44.8497754 72.4428098,43.9325538 C73.359984,43.0153321 74.7393724,42.7409268 75.9377557,43.2372953 C77.136139,43.7336637 77.9175104,44.9030522 77.9175104,46.200166 C77.9154983,47.9704282 76.4809676,49.4050332 74.7107054,49.4071369 L74.7107054,49.4071369 Z" fill="#ABABAB"></path><g transform="translate(0.000000, 29.045643)" fill="#AE152D" class="primary-fill-color"><path d="M35.2775104,17.6886307 C35.2775104,7.97208573 27.4006944,0.0952697095 17.6841494,0.0952697095 C7.9676044,0.0952697095 0.0907883817,7.97208573 0.0907883817,17.6886307 C0.0907883817,27.4051757 7.9676044,35.2819917 17.6841494,35.2819917 C27.3961443,35.2710156 35.2665343,27.4006256 35.2775104,17.6886307 Z M17.6841494,33.2902905 C9.06759063,33.2902905 2.08248963,26.3051895 2.08248963,17.6886307 C2.08248963,9.07207195 9.06759063,2.08697095 17.6841494,2.08697095 C26.3007081,2.08697095 33.2858091,9.07207195 33.2858091,17.6886307 C33.2760222,26.3011323 26.296651,33.2805036 17.6841494,33.2902905 L17.6841494,33.2902905 Z"></path><path d="M24.0217427,12.2899585 L15.3369295,20.9747718 L11.34639,16.9843983 C11.095989,16.7271374 10.7265018,16.6245654 10.3793192,16.7159333 C10.0321366,16.8073012 9.7610052,17.0784645 9.66967821,17.4256579 C9.57835122,17.7728513 9.68096678,18.1423264 9.93825726,18.3926971 L14.6328631,23.0871369 C15.0217426,23.475899 15.6521163,23.475899 16.0409959,23.0871369 L25.4300415,13.6980913 C25.685036,13.4472165 25.7858859,13.0788511 25.6942406,12.7330744 C25.6025954,12.3872977 25.3325363,12.1172387 24.9867596,12.0255934 C24.640983,11.9339481 24.2726175,12.034798 24.0217427,12.2897925 L24.0217427,12.2899585 Z"></path></g></g></g></svg>