<svg xmlns="http://www.w3.org/2000/svg" width="80px" height="80px" viewBox="0 0 80 80"><g stroke="none" stroke-width="1" fill="none" fill-rule="evenodd"><g fill-rule="nonzero"><g transform="translate(25.528455, 70.731707)" fill="#D4E1F4"><polygon points="1.64195122 1.74634146 1.63878049 1.74634146 1.6402439 1.74658537"></polygon></g><path d="M79.944065,40.8292683 L67.1621138,4.76308943 C67.0479592,4.43153305 66.7646518,4.18674341 66.4200404,4.12190626 C66.0754289,4.0570691 65.7225303,4.18215934 65.4956848,4.44955802 C65.2688393,4.7169567 65.2029462,5.0855257 65.3230894,5.41495935 L77.6435772,40.1803252 L54.8252033,40.1803252 L64.9686179,5.36195122 C65.1193512,4.8446445 64.8221848,4.30309105 64.304878,4.15235772 C63.7875713,4.0016244 63.2460179,4.29879085 63.0952846,4.81609756 L52.5326829,41.0731707 C52.4950782,41.2018641 52.4845588,41.3369554 52.5017886,41.4699187 C52.4996748,41.5087805 52.4982114,41.5479675 52.4995122,41.5869919 C52.7493393,49.0006056 58.831609,54.8813648 66.2494309,54.8813648 C73.6672528,54.8813648 79.7495225,49.0006056 79.9993496,41.5869919 C80.0017642,41.5029824 79.9963204,41.4189311 79.9830894,41.335935 C80.0153178,41.1665779 80.0018478,40.9916925 79.944065,40.8292683 L79.944065,40.8292683 Z M74.475122,49.5908943 C71.2028002,52.7676467 66.3937083,53.7761399 62.1208322,52.1816571 C57.8479561,50.5871743 54.875167,46.6747646 54.4839024,42.1308943 L78.0147967,42.1308943 C77.7834414,44.9660192 76.5247109,47.6190732 74.475122,49.5915447 L74.475122,49.5908943 Z" fill="#AE152D" class="primary-fill-color"></path><path d="M27.5004878,41.4544715 C27.5145004,40.9910106 27.2915648,40.5523091 26.9089431,40.2904065 L14.6666667,4.63918699 C14.491552,4.12955839 13.9364579,3.85838128 13.4268293,4.03349595 C12.9172007,4.20861063 12.6460235,4.76370473 12.8211382,5.27333333 L24.762439,40.0476423 L2.66065041,40.0476423 L12.4715447,5.22065041 C12.5660603,4.88514026 12.4744039,4.52469261 12.2311014,4.2750846 C11.9877989,4.02547659 11.6298138,3.92462961 11.2919957,4.01053175 C10.9541775,4.09643389 10.687849,4.35603457 10.5933333,4.69154472 L0.557398374,40.316748 C0.193494101,40.5794635 -0.0153473547,41.0064174 0.000650406504,41.4549593 C0.24683197,48.8679339 6.33351689,54.7466716 13.7505691,54.7351389 C21.1676213,54.7466716 27.2543062,48.8679339 27.5004878,41.4549593 L27.5004878,41.4544715 Z M13.7505691,52.7834314 C7.62141055,52.7936667 2.50689895,48.1054469 1.98504065,41.9985366 L25.5160976,41.9985366 C24.9942393,48.1054469 19.8797277,52.7936667 13.7505691,52.7834314 Z" fill="#AE152D" class="primary-fill-color"></path><path d="M11.5852033,5.93170732 L34.3900813,6.01414634 C34.7938841,8.03259179 36.379651,9.60556664 38.4013008,9.99300813 L38.3495935,55.6045528 C34.4959316,55.8611242 30.8487121,57.4390763 28.023252,60.0721951 C25.1754675,62.6833005 23.2510123,66.1473313 22.5385366,69.9447154 L21.24,69.9447154 C18.906252,69.9474036 17.0150459,71.8386097 17.0123577,74.1723577 L17.0123577,78.699187 C17.0131642,79.4172719 17.5950859,79.9991935 18.3131707,80 L60.3887805,80 C61.1068654,79.9991935 61.688787,79.4172719 61.6895935,78.699187 L61.6895935,74.1723577 C61.6869948,71.8385726 59.7957363,69.9473142 57.4619512,69.9447154 L56.1764228,69.9447154 C55.5212417,66.1225658 53.6054748,62.6297315 50.7344715,60.0229268 C47.8672882,57.3951586 44.1830956,55.8341983 40.300813,55.6022764 L40.3525203,9.98373984 C42.3077246,9.58734011 43.8479699,8.07988232 44.2863415,6.13365854 L66.2456911,6.06455285 C66.7845054,6.06369971 67.2206092,5.62621276 67.2197573,5.08739837 C67.218903,4.54858399 66.781416,4.11248022 66.2426016,4.11333333 L66.2404878,4.11333333 L44.3321951,4.18227642 C43.9111261,1.786145 41.843874,0.0292285477 39.4112023,-0.000346835151 C36.9785305,-0.0291839057 34.869694,1.67759516 34.3912195,4.06292683 L11.5920325,3.9804878 L11.5884553,3.9804878 C11.0496409,3.97958979 10.6121176,4.41565716 10.6112181,4.95447154 C10.6103215,5.49328593 11.0463889,5.93080928 11.5852033,5.93170732 L11.5852033,5.93170732 Z M59.738374,74.1723577 L59.738374,78.0487805 L18.9635772,78.0487805 L18.9635772,74.1723577 C18.9651003,72.9157556 19.9833979,71.8974581 21.24,71.895935 L57.4619512,71.895935 C58.7185905,71.8973687 59.7369403,72.9157185 59.738374,74.1723577 L59.738374,74.1723577 Z M54.1917073,69.9447154 L24.5289431,69.9447154 C25.2159794,66.6996086 26.8994607,63.7501338 29.3442276,61.5082927 C32.1373984,58.939187 35.6856911,57.5245528 39.335122,57.5245528 C43.0710557,57.5332972 46.6686119,58.93912 49.4206504,61.4656911 C51.8843653,63.70309 53.5580648,66.6775542 54.1917073,69.9447154 L54.1917073,69.9447154 Z M39.3510569,1.95121719 C41.0560673,1.95911358 42.4325887,3.3463175 42.4273174,5.05133797 C42.4220157,6.75635843 41.0369185,8.13499977 39.331892,8.13232468 C37.6268654,8.1296418 36.2461074,6.74665468 36.2461789,5.04162602 C36.2520951,3.33164664 37.6410686,1.9491471 39.3510569,1.95121719 L39.3510569,1.95121719 Z" fill="#ABABAB"></path></g></g></svg>