<svg xmlns="http://www.w3.org/2000/svg" width="80px" height="71px" viewBox="0 0 80 71"><g stroke="none" stroke-width="1" fill="none" fill-rule="evenodd"><g fill-rule="nonzero"><path d="M80,8.88030657 L80,61.7252359 C79.9946934,66.6214623 76.0271227,70.5890331 71.1320755,70.5931605 L8.86792453,70.5931605 C3.97287728,70.5890331 0.00530659623,66.6214623 0,61.7252359 L0,8.88030657 C0.00530659623,3.98525947 3.97287728,0.0176887547 8.86792453,0.0123820377 L71.1320755,0.0123820377 C76.0271227,0.0176887547 79.9946934,3.98525947 80,8.88030657 Z M77.3584906,61.7252359 L77.3584906,21.1615565 L2.64150943,21.1615565 L2.64150943,61.7252359 C2.64504725,65.1627358 5.43042445,67.9487028 8.86792453,67.951651 L71.1320755,67.951651 C74.5695755,67.9487028 77.3549528,65.1627358 77.3584906,61.7252359 Z M77.3584906,18.5200471 L77.3584906,8.88030657 C77.3549528,5.44280664 74.5695755,2.65801887 71.1320755,2.65389147 L8.86792453,2.65389147 C5.43042445,2.65801887 2.64504725,5.44280664 2.64150943,8.88030657 L2.64150943,18.5200471 L77.3584906,18.5200471 Z" fill="#ABABAB"></path><g transform="translate(5.433962, 6.339623)"><path d="M52.4033019,35.4145048 L43.8561321,28.137382 C43.2995283,27.6845518 42.4834906,27.7600235 42.0176888,28.3060142 C41.5524764,28.8525944 41.6090802,29.6709905 42.1456368,30.1485849 L49.509434,36.4198113 L42.1456368,42.6922171 C41.7735849,42.9941038 41.5943396,43.473467 41.6774764,43.9451651 C41.7600235,44.4174528 42.0919811,44.8071934 42.5442217,44.9640331 C42.9970519,45.1214623 43.4988208,45.021816 43.8561321,44.7034198 L52.4033019,37.4257075 C52.6981132,37.1745283 52.8685141,36.8077829 52.8685141,36.4198113 C52.8685141,36.0330189 52.6981132,35.6650943 52.4033019,35.4145048 L52.4033019,35.4145048 Z" fill="#AE152D" class="primary-fill-color"></path><path d="M37.137382,22.5731132 C36.4239387,22.4227594 35.7240566,22.879717 35.5737028,23.5931605 L30.2470519,48.884434 C30.0966981,49.5972877 30.553066,50.2971698 31.2665094,50.4487028 C31.3561321,50.4669811 31.4475236,50.4764151 31.5400943,50.4764151 C32.1639152,50.4758255 32.7028302,50.038915 32.8319576,49.4274764 L38.1580189,24.137382 C38.3071934,23.4239387 37.8508255,22.723467 37.137382,22.5731132 Z" fill="#AE152D" class="primary-fill-color"></path><path d="M29.9622642,8.54127366 L29.9758255,8.54127366 C32.2783019,8.54009434 34.146816,6.67806611 34.1544812,4.37441042 L34.1544812,4.36143864 C34.1521226,2.05896226 32.2894997,0.192217057 29.9870282,0.182188343 L29.9758255,0.182188343 C27.6674528,0.178655698 25.7930424,2.04716981 25.7894997,4.35495275 C25.7859669,6.66332543 27.6544812,8.53714626 29.9622642,8.54127366 Z M29.976264,2.24852539 L29.9811181,2.24852539 C31.1461312,2.25014783 32.0902772,3.19799178 32.0878547,4.36456908 C32.087041,5.53114637 31.141277,6.47575004 29.976264,6.47494049 L29.9681735,6.47494049 C28.8031605,6.47250955 27.8598237,5.52466539 27.8614396,4.35808809 C27.8638688,3.19070072 28.810442,2.24690733 29.976264,2.24852539 Z" fill="#ABABAB"></path><path d="M16.2641509,36.4198113 C16.2641509,36.8066038 16.4339623,37.1745283 16.7287736,37.4257075 L25.2759434,44.7034198 C25.8325472,45.1556604 26.6485849,45.0807783 27.1143867,44.5336085 C27.5795991,43.987618 27.5229953,43.1698113 26.9864386,42.6922171 L19.6226415,36.4198113 L26.9864386,30.1485849 C27.5229953,29.6709905 27.5795991,28.8525944 27.1143867,28.3060142 C26.6485849,27.7600235 25.8325472,27.6845518 25.2759434,28.137382 L16.7287736,35.4145048 C16.4339623,35.6656839 16.2641509,36.0330189 16.2641509,36.4198113 L16.2641509,36.4198113 Z" fill="#AE152D" class="primary-fill-color"></path><path d="M12.9528252,4.30896226 C12.9492924,6.61615562 14.8124999,8.49115562 17.1191037,8.50117917 L17.1320755,8.50117917 C19.4339623,8.49882083 21.3018868,6.63738204 21.3113208,4.33549525 L21.3113208,4.32252362 C21.3107312,2.01886792 19.4481132,0.150943396 17.1456368,0.142688604 L17.1320755,0.142688604 C14.8290095,0.14327834 12.961085,2.00648589 12.9528252,4.30896226 Z M15.6443261,2.82373884 C16.0377715,2.42832499 16.5728898,2.20630994 17.131485,2.20872086 L17.138771,2.20872086 C18.3053447,2.21036126 19.24929,3.15838228 19.246866,4.32517724 C19.2444325,5.49359265 18.2972492,6.43756214 17.131485,6.43513595 L17.1258181,6.43513595 C16.2717338,6.43351082 15.5026534,5.91655573 15.17883,5.12572803 C14.8541971,4.33490033 15.0379669,3.42496246 15.6443261,2.82373884 Z" fill="#ABABAB"></path><path d="M4.3036557,0.101391559 C1.99528302,0.0937500377 0.117334943,1.95931608 0.110825521,4.26827834 C0.103184,6.57665087 1.96875004,8.45400936 4.27712272,8.46167958 L4.29009434,8.46167958 C6.59964619,8.46521223 8.4740566,6.59669811 8.47759928,4.28832543 C8.48113208,1.97936317 6.61261796,0.104952755 4.3036557,0.101391559 Z M4.28976672,6.39475143 L4.28330062,6.39475143 C3.11778494,6.39231987 2.17535013,5.44483984 2.1777703,4.27790095 C2.17939139,3.11096206 3.12505947,2.16591153 4.28976672,2.16833634 L4.29784946,2.16833634 C5.46336492,2.16996074 6.40579995,3.11744056 6.40418539,4.28518921 C6.40175848,5.45212831 5.4552824,6.39636887 4.28976672,6.39475143 Z" fill="#ABABAB"></path></g></g></g></svg>