<svg xmlns="http://www.w3.org/2000/svg" width="80px" height="79px" viewBox="0 0 80 79"><g stroke="none" stroke-width="1" fill="none" fill-rule="evenodd"><g fill-rule="nonzero"><path d="M59.4092827,0.0691983122 C50.6938895,0.0790336029 42.9251299,5.56536751 40.0008439,13.7755274 C37.0815997,5.55905366 29.3112109,0.0657265841 20.5915612,0.0540084388 C13.7817722,0.0540084388 8.25198312,2.83375527 4.60016878,8.09265823 C1.63341772,12.3637131 0,18.1329958 0,24.3375527 C0,30.8477637 2.09485232,37.7397468 6.22632911,44.8222785 C9.49687764,50.4288608 14.04827,56.1733333 19.7540928,61.8956962 C29.4356118,71.6059072 39.2599156,78.004557 39.3579747,78.0681857 C39.7497476,78.3217807 40.2540904,78.3209871 40.6450633,78.0661603 C40.7431224,78.0021941 50.5662447,71.5616878 60.2467511,61.8312236 C65.9513924,56.0965401 70.5029536,50.3498734 73.7733333,44.7510549 C77.9049789,37.6766245 80,30.8077637 80,24.3351899 C80,12.5716456 72.7834599,0.0691983122 59.4092827,0.0691983122 Z M77.6371308,24.3351899 C77.6371308,30.377384 75.6545148,36.8389873 71.7443038,43.5397468 C68.5800844,48.9621941 64.158481,54.5454852 58.6021941,60.134346 C52.8740115,65.8499263 46.647992,71.0437923 39.9979747,75.654346 C33.3467638,71.0697556 27.1211982,65.8964706 21.3964557,60.196962 C15.8408439,54.6205907 11.4197468,49.0408439 8.25586498,43.6123207 C4.34565401,36.9031224 2.3628692,30.4182278 2.3628692,24.3375527 C2.3628692,14.225654 7.13670886,2.41704641 20.5907173,2.41704641 C30.6557034,2.43118834 38.8099204,10.58986 38.8185654,20.6548523 C38.8185655,21.3073406 39.3475117,21.8362868 40,21.8362868 C40.6524883,21.8362868 41.1814345,21.3073406 41.1814346,20.6548523 C41.1941794,10.5939935 49.3484207,2.44201728 59.4092827,2.43206751 C66.4325738,2.43206751 70.6940084,6.2585654 73.0324051,9.46852321 C75.9588186,13.4852321 77.6371308,18.9044726 77.6371308,24.3351899 Z" fill="#ABABAB"></path><path d="M34.7475105,53.4249789 L37.9093671,36.6057384 L40.6842194,58.7648945 C40.7560724,59.3392185 41.2334276,59.776919 41.8118143,59.7988186 C41.8270042,59.7988186 41.8420253,59.7988186 41.8570464,59.7988186 C42.4187694,59.7988186 42.9026434,59.4028253 43.014346,58.8523207 L46.4698734,41.8202532 L48.3206751,47.9493671 C48.4705647,48.4456478 48.9264809,48.7862332 49.4448945,48.7891983 L49.4514768,48.7891983 C49.9673943,48.789156 50.4236214,48.4543481 50.5783966,47.9621941 L51.8879325,43.7961181 L52.7274262,46.1370464 C52.8957427,46.6066124 53.3408412,46.9198699 53.8396624,46.9198312 L71.5611814,46.9198312 C72.2136697,46.9198312 72.742616,46.3908849 72.742616,45.7383966 C72.742616,45.0859083 72.2136697,44.556962 71.5611814,44.556962 L54.6710549,44.556962 L52.9264135,39.6921519 C52.7551454,39.2145758 52.2980806,38.8996728 51.7908234,38.9097667 C51.2835663,38.9198607 50.8393909,39.2526974 50.6872574,39.7367089 L49.4740928,43.5961181 L47.3755274,36.6469198 C47.2189804,36.1287396 46.730301,35.7832367 46.1895768,35.8084368 C45.6488526,35.8336368 45.1944254,36.2230924 45.0867511,36.7535865 L42.1331646,51.3151055 L39.3162869,28.8194093 C39.2438898,28.2420038 38.7618164,27.8033055 38.1801621,27.7855088 C37.5985077,27.7677121 37.0905157,28.1761175 36.9829536,28.7480169 L33.4285232,47.6523207 L31.5274262,39.9692827 C31.4056825,39.4776655 30.9841308,39.1183351 30.4794379,39.0759782 C29.974745,39.0336212 29.4991977,39.3176616 29.2972152,39.7821097 L27.0735865,44.8945148 L8.43881857,44.8945148 C7.78633025,44.8945148 7.25738397,45.4234611 7.25738397,46.0759494 C7.25738397,46.7284377 7.78633025,47.257384 8.43881857,47.257384 L27.8481013,47.257384 C28.3184351,47.2573486 28.743948,46.9783357 28.9314768,46.5470042 L30.0715612,43.9248945 L32.4396624,53.4906329 C32.5732582,54.0299704 33.0646229,54.4033296 33.6200354,54.3875292 C34.1754479,54.3717287 34.6447924,53.9710391 34.7475105,53.4249789 L34.7475105,53.4249789 Z" fill="#AE152D" class="primary-fill-color"></path></g></g></svg>