<svg xmlns="http://www.w3.org/2000/svg" width="80px" height="72px" viewBox="0 0 80 72"><g stroke="none" stroke-width="1" fill="none" fill-rule="evenodd"><g fill-rule="nonzero"><path d="M29.2207281,1.54175589 C27.8982696,1.56913951 26.6534771,2.1717692 25.8117345,3.19211991 C24.9287995,2.22869031 23.675096,1.69015915 22.3684797,1.7130621 L12.0901071,1.7130621 C10.8772448,1.70491008 9.71193853,2.18428011 8.85589197,3.04351558 C7.99984542,3.90275106 7.52481157,5.06983169 7.5371143,6.28265525 L7.5371143,58.0652677 C7.52220852,59.284703 7.99437948,60.4597764 8.84915893,61.3296084 C9.70393838,62.1994404 10.870591,62.6920501 12.0901071,62.698186 L22.3684797,62.698186 C23.6850319,62.7073057 24.9422467,62.151122 25.820985,61.1707066 C26.6833538,62.1430088 27.9210933,62.6990748 29.2207281,62.698186 L39.4991006,62.698186 C42.0734882,62.698186 44.1685564,60.6266502 44.1970021,58.0524197 L44.1970021,6.29550321 C44.1970021,3.75468951 42.0455675,1.54175589 39.4991006,1.54175589 L29.2207281,1.54175589 Z M24.6680942,58.0728051 C24.6680942,59.3027326 23.671041,60.2997859 22.4411135,60.2997859 L12.1627409,60.2997859 C10.9328134,60.2997859 9.93576017,59.3027326 9.93576017,58.0728051 L9.93576017,6.33832976 C9.93576017,5.10840227 10.9328134,4.11134904 12.1627409,4.11134904 L22.4411135,4.11134904 C23.671041,4.11134904 24.6680942,5.10840227 24.6680942,6.33832976 L24.6680942,58.0728051 Z M41.7987152,6.29550321 L41.7987152,58.0524197 C41.7987152,59.2400857 40.7456959,60.2997859 39.4991006,60.2997859 L29.2207281,60.2997859 C27.9924625,60.2997859 27.1026981,59.3353319 27.1026981,58.0938758 C27.1026981,57.9504925 27.0663812,57.7855246 27.0663812,57.6579015 L27.0663812,6.71143469 C27.0663812,6.58398287 27.1026981,6.4138758 27.1026981,6.27049251 C27.1026981,5.00282655 28.0328908,3.93952891 29.2207281,3.93952891 L39.4991006,3.93952891 C40.7242827,3.93952891 41.7987152,5.07614561 41.7987152,6.29550321 Z" fill="#ABABAB"></path><path d="M34.3599143,8.10532726 C32.064972,8.09841993 29.9921466,9.47552386 29.1091018,11.5937874 C28.226057,13.7120509 28.7069407,16.1537248 30.3272606,17.7789547 C31.9475804,19.4041846 34.387788,19.8924539 36.5087137,19.0158224 C38.6296394,18.1391909 40.0130197,16.0705417 40.0130197,13.7755889 C40.0142581,10.650176 37.4853167,8.11357113 34.3599143,8.10532726 Z M34.3599143,17.0475826 C33.0349978,17.0544743 31.8366792,16.2617028 31.3248417,15.0396249 C30.8130043,13.817547 31.0886941,12.4074231 32.0231022,11.4680971 C32.9575103,10.5287711 34.3661676,10.2456829 35.5909154,10.7510982 C36.8156632,11.2565135 37.614735,12.4506542 37.614735,13.7755889 C37.6170118,15.5767854 36.1610995,17.0400539 34.3599143,17.0468522 L34.3599143,17.0475826 Z" fill="#ABABAB"></path><path d="M39.7430407,42.6552463 C39.7430407,41.9929776 39.2061659,41.4561028 38.5438972,41.4561028 L30.3211991,41.4561028 C29.6589305,41.4561028 29.1220557,41.9929776 29.1220557,42.6552463 L29.1220557,55.503212 C29.1220557,56.1654806 29.6589305,56.7023555 30.3211991,56.7023555 L38.5438972,56.7023555 C39.2061659,56.7023555 39.7430407,56.1654806 39.7430407,55.503212 L39.7430407,42.6552463 Z M37.3447537,54.4753747 L31.5203426,54.4753747 L31.5203426,43.8543897 L37.3447537,43.8543897 L37.3447537,54.4753747 Z" fill="#ABABAB"></path><path d="M39.7430407,35.117773 C39.7430407,34.4555044 39.2061659,33.9186296 38.5438972,33.9186296 L30.3211991,33.9186296 C29.6589305,33.9186296 29.1220557,34.4555044 29.1220557,35.117773 L29.1220557,38.7152034 C29.1220557,39.3774721 29.6589305,39.9143469 30.3211991,39.9143469 L38.5438972,39.9143469 C39.2061659,39.9143469 39.7430407,39.3774721 39.7430407,38.7152034 L39.7430407,35.117773 Z M37.3447537,37.51606 L31.5203426,37.51606 L31.5203426,36.3169165 L37.3447537,36.3169165 L37.3447537,37.51606 Z" fill="#ABABAB"></path><path d="M17.2292934,8.10532726 C14.934351,8.09841993 12.8615256,9.47552386 11.9784808,11.5937874 C11.095436,13.7120509 11.5763197,16.1537248 13.1966396,17.7789547 C14.8169594,19.4041846 17.257167,19.8924539 19.3780927,19.0158224 C21.4990184,18.1391909 22.8823987,16.0705417 22.8823987,13.7755889 C22.8836371,10.650176 20.3546957,8.11357113 17.2292934,8.10532726 Z M17.2292934,17.0475826 C15.9043768,17.0544743 14.7060582,16.2617028 14.1942207,15.0396249 C13.6823833,13.817547 13.9580731,12.4074231 14.8924812,11.4680971 C15.8268893,10.5287711 17.2355466,10.2456829 18.4602944,10.7510982 C19.6850423,11.2565135 20.484114,12.4506542 20.484114,13.7755889 C20.4863908,15.5767854 19.0304785,17.0400539 17.2292934,17.0468522 L17.2292934,17.0475826 Z" fill="#ABABAB"></path><path d="M22.6124197,42.6552463 C22.6124197,41.9929776 22.0755449,41.4561028 21.4132762,41.4561028 L13.1905782,41.4561028 C12.5283095,41.4561028 11.9914347,41.9929776 11.9914347,42.6552463 L11.9914347,55.503212 C11.9914347,56.1654806 12.5283095,56.7023555 13.1905782,56.7023555 L21.4132762,56.7023555 C22.0755449,56.7023555 22.6124197,56.1654806 22.6124197,55.503212 L22.6124197,42.6552463 Z M20.2141328,54.4753747 L14.3897216,54.4753747 L14.3897216,43.8543897 L20.2141328,43.8543897 L20.2141328,54.4753747 Z" fill="#ABABAB"></path><path d="M22.6124197,35.117773 C22.6124197,34.4555044 22.0755449,33.9186296 21.4132762,33.9186296 L13.1905782,33.9186296 C12.5283095,33.9186296 11.9914347,34.4555044 11.9914347,35.117773 L11.9914347,38.7152034 C11.9914347,39.3774721 12.5283095,39.9143469 13.1905782,39.9143469 L21.4132762,39.9143469 C22.0755449,39.9143469 22.6124197,39.3774721 22.6124197,38.7152034 L22.6124197,35.117773 Z M20.2141328,37.51606 L14.3897216,37.51606 L14.3897216,36.3169165 L20.2141328,36.3169165 L20.2141328,37.51606 Z" fill="#ABABAB"></path><path d="M80,64.9250535 C80,64.2627849 79.4631252,63.7259101 78.8008565,63.7259101 L1.19914347,63.7259101 C0.536874818,63.7259101 0,64.2627849 0,64.9250535 L0,70.5781585 C0,71.2404271 0.536874818,71.7773019 1.19914347,71.7773019 L78.8008565,71.7773019 C79.4631252,71.7773019 80,71.2404271 80,70.5781585 L80,64.9250535 Z M77.6017131,69.379015 L2.39828694,69.379015 L2.39828694,66.124197 L77.6017131,66.124197 L77.6017131,69.379015 Z" fill="#ABABAB"></path><path d="M63.1374732,3.92856531 C62.6913508,1.41527377 60.2953022,-0.262856783 57.7808994,0.176959315 L47.6573876,1.97002141 C45.1439954,2.41853402 43.4661709,4.81461663 43.9042398,7.32985011 L52.8625268,58.3249679 C53.0736442,59.5335607 53.7571869,60.608399 54.7622004,61.3121142 C55.7672139,62.0158293 57.011018,62.2905282 58.2189293,62.075546 L68.3424411,60.2826552 C70.855888,59.8342283 72.533757,57.4380821 72.0955889,54.9228266 L63.1374732,3.92856531 Z M67.9246253,57.9218844 L57.8016274,59.713576 C56.5930163,59.9222803 55.4424465,59.116652 55.225182,57.9095503 L46.2668951,6.91443255 C46.055792,5.70210149 46.8644653,4.54721494 48.0758887,4.3309636 L58.1987152,2.53927195 C59.4073483,2.33046898 60.5579813,3.13614153 60.7751606,4.34329764 L69.7334475,55.3384154 C69.9446568,56.5507124 69.1360337,57.7056367 67.9246253,57.9218844 Z" fill="#AE152D" class="primary-fill-color"></path><path d="M55.7995717,18.5906638 C58.8760572,18.0381797 60.926462,15.1018193 60.385439,12.0232976 L60.385439,12.0232976 C59.98537,9.76635259 58.2648915,7.9727788 56.026535,7.4792037 C53.7881785,6.98562859 51.4729375,7.88929469 50.1607754,9.76867941 C48.8486134,11.6480641 48.798048,14.1328974 50.032666,16.0641081 C51.267284,17.9953187 53.543845,18.9924261 55.8004283,18.5903212 L55.7995717,18.5906638 Z M52.9570878,15.6916488 C51.8754502,14.932411 51.3556448,13.5978202 51.6388149,12.3070078 C51.921985,11.0161954 52.9527189,10.021752 54.252848,9.78501071 C54.4413997,9.75164789 54.6325023,9.73479601 54.8239829,9.73464668 C56.4044613,9.74139903 57.7524796,10.8807636 58.0224411,12.43803 L58.0224411,12.43803 C58.3362269,14.2132269 57.1555417,15.9079729 55.3815846,16.2286938 C54.5341218,16.3809789 53.6609681,16.1875685 52.9570878,15.6916488 L52.9570878,15.6916488 Z" fill="#AE152D" class="primary-fill-color"></path><path d="M65.0449679,40.5320771 C64.9898659,40.2186159 64.8124108,39.939918 64.551694,39.7573777 C64.2909773,39.5748375 63.968388,39.5034303 63.6549893,39.5588865 L55.5573448,40.991863 C54.9060815,41.1071454 54.4711251,41.7279643 54.585182,42.3794433 L56.8161028,55.079743 C56.8711648,55.3932357 57.0486032,55.671976 57.3093246,55.8545517 C57.5700459,56.0371273 57.8926575,56.1085576 58.2060814,56.0531049 L66.3040685,54.6197859 C66.9553317,54.5045034 67.3902882,53.8836845 67.2762313,53.2322056 L65.0449679,40.5320771 Z M58.9704497,53.4828266 L57.1546039,43.1444968 L62.8907923,42.1295075 L64.7066381,52.4673233 L58.9704497,53.4828266 Z" fill="#AE152D" class="primary-fill-color"></path><path d="M55.290621,39.4586724 L63.3884368,38.0256959 C64.0397,37.9104135 64.4746565,37.2895946 64.3605996,36.6381156 L63.7360171,33.0817987 C63.680917,32.7683022 63.5034367,32.489575 63.2426813,32.3070301 C62.9819258,32.1244852 62.6592921,32.0531018 62.3458672,32.1086081 L54.2480514,33.5417559 C53.5969274,33.6572027 53.1621606,34.2779697 53.2762313,34.9293362 L53.900985,38.4853105 C53.9560471,38.7988032 54.1334854,39.0775435 54.3942068,39.2601191 C54.6549282,39.4426948 54.9775398,39.514125 55.2909636,39.4586724 L55.290621,39.4586724 Z M61.5814989,34.6792291 L61.791349,35.8734047 L56.0549893,36.8885653 L55.8458244,35.6940471 L61.5814989,34.6792291 Z" fill="#AE152D" class="primary-fill-color"></path></g></g></svg>