<svg xmlns="http://www.w3.org/2000/svg" width="80px" height="115px" viewBox="0 0 80 115"><g stroke="none" stroke-width="1" fill="none" fill-rule="evenodd"><g fill-rule="nonzero"><g transform="translate(15.468278, 0.000000)" fill="#AE152D" class="primary-fill-color"><path d="M2.9660423,36.5745015 L2.9660423,20.5082779 L13.2717825,20.5082779 L13.2717825,36.5745015 C13.2717825,37.3753978 13.9210372,38.0246526 14.7219335,38.0246526 C15.5228298,38.0246526 16.1720846,37.3753978 16.1720846,36.5745015 L16.1720846,18.2327492 C16.1720846,18.0168279 16.1237829,17.8036409 16.0309366,17.6087009 L9.42791541,3.75975831 C9.1873124,3.25507807 8.67801161,2.93366589 8.11891239,2.93366589 C7.55981316,2.93366589 7.05051237,3.25507807 6.80990937,3.75975831 L0.206888218,17.6087009 C0.113964625,17.8036141 0.0657401813,18.0168188 0.0657401813,18.2327492 L0.0657401813,36.5745015 C0.0657401813,37.3753978 0.714994925,38.0246526 1.51589124,38.0246526 C2.31678755,38.0246526 2.9660423,37.3753978 2.9660423,36.5745015 L2.9660423,36.5745015 Z M8.11891239,7.7541994 L12.8174018,17.6079758 L3.42042296,17.6079758 L8.11891239,7.7541994 Z"></path><path d="M18.5421148,1.45015106 L18.5421148,36.5745015 C18.5421148,37.3753978 19.1913695,38.0246526 19.9922659,38.0246526 C20.7931622,38.0246526 21.4424169,37.3753978 21.4424169,36.5745015 L21.4424169,27.6616314 L29.8049547,27.6616314 C30.605851,27.6616314 31.2551057,27.0123767 31.2551057,26.2114804 C31.2551057,25.410584 30.605851,24.7613293 29.8049547,24.7613293 L21.4424169,24.7613293 L21.4424169,13.9052568 L27.0537764,13.9052568 C27.8546727,13.9052568 28.5039275,13.2560021 28.5039275,12.4551057 C28.5039275,11.6542094 27.8546727,11.0049547 27.0537764,11.0049547 L21.4424169,11.0049547 L21.4424169,2.90030211 L34.8662236,2.90030211 L34.8662236,36.5745015 C34.8662236,37.3753978 35.5154783,38.0246526 36.3163746,38.0246526 C37.1172709,38.0246526 37.7665257,37.3753978 37.7665257,36.5745015 L37.7665257,1.45015106 C37.7665257,0.649254743 37.1172709,0 36.3163746,0 L19.9922659,0 C19.1913695,0 18.5421148,0.649254743 18.5421148,1.45015106 L18.5421148,1.45015106 Z"></path><path d="M55.8767372,3.8044713 C53.9763446,2.68866926 51.8856087,1.93474891 49.7104532,1.58090634 C47.4960725,1.22030211 46.8435045,1.48060423 46.4135347,2.08700906 C46.0929179,2.54678874 46.0576117,3.1476481 46.3221752,3.64181269 C46.4179267,3.80671887 46.5252661,3.9646184 46.6433837,4.11432024 C47.0254985,4.62622356 47.7367976,5.57897281 47.5934743,6.51601208 C47.4598187,7.39190332 46.7306344,8.39903323 46.025861,9.37280967 C45.5857375,9.95297814 45.1832992,10.5607931 44.8210272,11.1925076 C43.6229607,13.3307553 43.5770393,15.910574 44.7001813,17.9255589 C46.5491239,21.2396375 50.6458006,21.8967976 52.9220544,21.9934743 C53.047573,21.9987915 53.1723666,22.0014502 53.296435,22.0014502 C55.919402,22.0246288 58.3955754,20.7931884 59.9598792,18.6876133 C61.7133535,16.3463444 62.1440483,13.2978852 61.1422356,10.3214502 C60.313716,7.60531722 58.5423565,5.41389728 55.8767372,3.8044713 L55.8767372,3.8044713 Z M57.638429,16.9488822 C56.5623564,18.3874542 54.8384414,19.1929516 53.0445921,19.0953474 C50.1583082,18.972568 48.0945015,18.0560725 47.2335952,16.5119033 C46.5969789,15.3706344 46.6419335,13.875287 47.3626586,12.5885196 C47.6687922,12.0630514 48.0069111,11.5568819 48.3751057,11.0728701 C49.2401208,9.87794562 50.2206647,8.52350453 50.4606647,6.95371601 C50.5734922,6.18065548 50.4982118,5.39178634 50.2412085,4.65401813 C52.9428399,5.30054381 57.1173414,7.03685801 58.3731722,11.1845317 C58.3777644,11.1995166 58.3825982,11.2147432 58.3876737,11.2297281 C59.0876133,13.2942598 58.8145015,15.378852 57.638429,16.9488822 L57.638429,16.9488822 Z"></path><path d="M49.3220544,21.712145 C49.2633862,21.6993975 49.2039736,21.6903565 49.1441692,21.6850755 L49.1112991,21.6819335 C47.4232754,21.339246 45.6684204,21.6944368 44.2465257,22.6665861 C42.7381062,23.6840475 41.717336,25.2797554 41.4259819,27.0757704 L39.9581873,36.4812085 L42.8239275,36.9285801 L44.2883384,27.5434441 C44.4525097,26.5361698 45.0251226,25.6413091 45.8709366,25.0702115 C46.6653169,24.5250877 47.6494014,24.3318385 48.5909366,24.5360725 C48.6496047,24.54882 48.7090173,24.5578611 48.7688218,24.563142 L48.7883988,24.5650755 C49.6795383,24.7801923 50.4440642,25.350134 50.9046949,26.1427399 C51.3653255,26.9353459 51.4820474,27.8817652 51.2277946,28.7625378 L48.3867069,36.2296073 L51.0975227,37.2606647 L53.9543202,29.7500906 C53.964713,29.7230211 53.974139,29.6954683 53.9828399,29.6676737 C54.4968432,27.9924956 54.2851904,26.1785687 53.3993192,24.6667309 C52.5134481,23.1548931 51.0344672,22.0835653 49.3218127,21.7131118 L49.3220544,21.712145 Z"></path></g><path d="M11.4093051,35.0412085 C10.8277074,35.0412085 10.3024261,35.3888528 10.0749245,35.9241088 C8.3642518,39.9472966 7.37026901,44.2386324 7.1378852,48.6042296 C7.09945619,49.2343202 7.08302115,54.5718429 7.07939577,55.964713 L0.206163142,73.9690634 C-0.153441797,74.9109485 -0.0267070781,75.9694577 0.545088861,76.7998267 C1.1168848,77.6301957 2.06056332,78.1261535 3.06876133,78.1261631 L12.3243505,78.1261631 L12.3243505,88.5955287 C12.3247468,91.1692493 13.3669129,93.6332127 15.2134285,95.4260926 C17.059944,97.2189724 19.5535486,98.1880763 22.1261631,98.1126284 C22.7635045,98.0928097 30.6880967,98.058006 35.644713,98.0401208 L39.4030211,112.983202 C39.5655683,113.627373 40.1450641,114.07855 40.809426,114.07855 L74.6363746,114.07855 C75.0869627,114.07855 75.5120315,113.869438 75.7866455,113.512203 C76.0612596,113.154968 76.1542138,112.690378 76.0381873,112.254985 C75.9813897,112.041813 70.3731722,90.796858 71.6152266,77.4513595 C71.9535952,73.8187311 75.4218731,65.0989728 75.7541994,64.2699698 C80.2953265,55.6388079 81.0149462,45.5004969 77.7384894,36.3144411 C77.5344383,35.7372777 76.9899301,35.3504158 76.3777644,35.3476737 L11.4163142,35.0424169 L11.4093051,35.0412085 Z M75.3264048,38.2419335 C77.9653252,46.44782 77.181025,55.3714139 73.1511782,62.9911782 C73.1296677,63.0325076 73.1100906,63.0750453 73.0924471,63.1183082 C72.9305136,63.5183082 69.1214502,72.9629003 68.7287009,77.1821148 C67.6410876,88.8507553 71.4126888,105.636495 72.7734139,111.178248 L41.9398187,111.178248 L38.1805438,96.2308157 C38.0184866,95.5862531 37.4390035,95.1343598 36.7743807,95.1342598 L36.7688218,95.1342598 C36.2044713,95.136435 22.9360725,95.1857402 22.0360121,95.2137764 C20.2478528,95.2648316 18.5150996,94.5902919 17.2321082,93.3436751 C15.9491167,92.0970583 15.2250338,90.3844167 15.2246526,88.5955287 L15.2246526,76.6760121 C15.2246526,75.8751158 14.5753978,75.225861 13.7745015,75.225861 L3.0694864,75.225861 C3.015576,75.225834 2.96512777,75.1992924 2.93456958,75.1548792 C2.90401139,75.110466 2.8972531,75.0538639 2.91649547,75.0035045 L9.8844713,56.7516616 C9.94697483,56.5875364 9.97923766,56.4134482 9.97969789,56.2378248 C9.98598187,53.5941994 10.0060423,49.2323867 10.0340785,48.770997 C10.2306977,45.0600015 11.0231838,41.4048215 12.381148,37.9456193 L75.3264048,38.2419335 Z" fill="#ABABAB"></path></g></g></svg>