<svg xmlns="http://www.w3.org/2000/svg" width="80px" height="85px" viewBox="0 0 80 85"><g stroke="none" stroke-width="1" fill="none" fill-rule="evenodd"><g fill-rule="nonzero"><path d="M58.5263067,80.4689417 C68.0031845,80.4689417 75.6857019,72.786309 75.6857019,63.3094312 C75.6857019,53.8325535 68.0032996,46.1498056 58.5264219,46.1498056 C49.0495441,46.1498056 41.3665659,53.8319775 41.3665659,63.3088553 C41.3770403,72.7816324 49.0535298,80.4582765 58.5263067,80.4689417 Z M58.5263067,48.2232397 C64.6281097,48.2232397 70.1290414,51.8990286 72.4640034,57.5363996 C74.7989655,63.1737707 73.5081223,69.6625981 69.1933971,73.9771256 C64.878672,78.2916531 58.3897854,79.582199 52.7525213,77.2469787 C47.1152572,74.9117583 43.44,69.4106583 43.44,63.3088553 C43.4496176,54.9810171 50.1984681,48.2324758 58.5263067,48.2232397 L58.5263067,48.2232397 Z" fill="#AE152D" class="primary-fill-color"></path><path d="M58.5596544,72.1347732 C58.5484233,72.1347732 58.5375378,72.1330454 58.5263067,72.1330454 C58.5150756,72.1330454 58.5041901,72.1344276 58.4927862,72.1347732 C56.5012699,72.1146126 54.8967169,70.4958068 54.8941685,68.5041901 C54.8941685,67.931627 54.4300144,67.467473 53.8574514,67.467473 C53.5850089,67.4684842 53.3243754,67.5788187 53.1340155,67.7737264 C52.9436555,67.9686342 52.8395042,68.2317996 52.8449244,68.5041901 C52.8164932,71.2737972 54.8066753,73.6527096 57.537797,74.1136933 L57.537797,75.9509287 C57.537797,76.5234917 58.001951,76.9876458 58.574514,76.9876458 C59.1470771,76.9876458 59.6112311,76.5234917 59.6112311,75.9509287 L59.6112311,74.1136933 C62.5073281,73.5651963 64.509374,70.9016027 64.2311537,67.9671828 C63.9529334,65.0327629 61.4859763,62.7928876 58.5384017,62.7984449 C57.0682862,62.8027807 55.7405186,61.9205322 55.174939,60.5635583 C54.6093594,59.2065844 54.9175063,57.6424952 55.9555279,56.6014527 C56.9935495,55.5604102 58.5567366,55.2477192 59.9153483,55.8093529 C61.2739601,56.3709866 62.1600635,57.6961848 62.16,59.1663067 C62.16,59.7388697 62.624154,60.2030238 63.1967171,60.2030238 C63.7739088,60.2048308 64.2458836,59.7433921 64.2571058,59.1663067 C64.2404216,56.4292415 62.2972797,54.083061 59.6112311,53.5568035 L59.6112311,51.9326134 C59.6112311,51.3600504 59.1470771,50.8958963 58.574514,50.8958963 C58.001951,50.8958963 57.537797,51.3600504 57.537797,51.9326134 L57.537797,53.5568035 C54.8066065,54.0177115 52.8163342,56.3966442 52.8447516,59.1663067 C52.8427455,62.3135838 55.3911274,64.8673018 58.5384017,64.871879 C59.8357928,64.8680826 61.036657,65.5567245 61.6886403,66.6783999 C62.3406237,67.8000753 62.3446744,69.1843751 61.6992667,70.309847 C61.0538589,71.4353188 59.8570455,72.1309768 58.5596544,72.1347732 L58.5596544,72.1347732 Z" fill="#AE152D" class="primary-fill-color"></path><path d="M5.86194384,23.9654428 C7.73199591,23.964925 9.48939975,23.0715214 10.5917927,21.5609503 L17.7014255,26.5114471 C17.0783758,28.8077631 17.9049992,31.2529104 19.7936101,32.7001171 C21.682221,34.1473237 24.2582138,34.3095366 26.31345,33.1106779 C28.3686863,31.9118193 29.4955104,29.5896825 29.1654428,27.2333477 L36.6194384,20.9466955 C38.5461813,22.9722623 41.6357858,23.3539454 43.9975476,21.8581714 C46.3593094,20.3623973 47.334882,17.4061165 46.327257,14.7984449 L53.1286393,8.56466523 C54.473146,11.2127176 57.586652,12.4354982 60.3738462,11.4101066 C63.1610404,10.384715 64.7397652,7.43569133 64.0475787,4.54765446 C63.3553921,1.65961758 60.6113737,-0.25335805 57.6621789,0.0961120936 C54.7129841,0.445582237 52.4920441,2.94688955 52.4939957,5.91671706 C52.4939957,6.05235421 52.500216,6.18643629 52.5093737,6.31965443 L45.2231533,12.9973218 C43.3104729,10.8582824 40.1301201,10.4190728 37.7092814,11.9596494 C35.2884427,13.500226 34.3394192,16.5672936 35.4671274,19.2058747 L28.4447516,25.1282937 C27.4564007,23.3977875 25.655689,22.2888416 23.6655329,22.1850715 C21.6753769,22.0813014 19.7690989,22.9969586 18.6061339,24.6152916 L11.5084233,19.6736069 C12.1821293,17.2494115 11.2334879,14.6656832 9.15117621,13.2533869 C7.06886448,11.8410906 4.31749039,11.9153397 2.31437882,13.4378859 C0.311267255,14.9604322 -0.496644995,17.5915631 0.306824714,19.9758952 C1.11029442,22.3602272 3.34587492,23.9657652 5.86194384,23.9654428 L5.86194384,23.9654428 Z M58.3552484,2.12820734 C59.8875732,2.12820734 61.2690544,3.05113391 61.8554982,4.46679743 C62.4419419,5.88246095 62.1178558,7.51199487 61.0343632,8.59553688 C59.9508706,9.6790789 58.3213514,10.0032394 56.9056612,9.41686018 C55.4899709,8.83048098 54.5669114,7.44904193 54.5669114,5.91671706 C54.5692917,3.82543511 56.2639665,2.13068302 58.3552484,2.12820734 Z M40.8575378,13.1155076 C42.9498739,13.1155076 44.6460475,14.8116811 44.6460475,16.9040173 C44.6460475,18.9963534 42.9498739,20.692527 40.8575378,20.692527 C38.7652017,20.692527 37.0690281,18.9963534 37.0690281,16.9040173 C37.0714086,14.812668 38.7661885,13.117888 40.8575378,13.1155076 Z M23.3596544,24.25054 C24.8919793,24.25054 26.2734604,25.1734665 26.8599042,26.58913 C27.446348,28.0047936 27.1222618,29.6343275 26.0387692,30.7178695 C24.9552766,31.8014115 23.3257575,32.125572 21.9100672,31.5391928 C20.494377,30.9528136 19.5713175,29.5713745 19.5713175,28.0390497 C19.5736978,25.9477677 21.2683726,24.2530156 23.3596544,24.25054 L23.3596544,24.25054 Z M5.86194384,14.3142981 C7.95425749,14.3142981 9.65045356,16.0104365 9.65045356,18.1027502 C9.65045356,20.1950638 7.95437268,21.8913175 5.86205903,21.8913175 C3.76974538,21.8913175 2.07352955,20.1952942 2.07343413,18.1029806 C2.07571941,16.0115638 3.77052715,14.3166787 5.86194384,14.3142981 Z" fill="#ABABAB"></path><path d="M63.5853132,43.5421166 L63.5853132,18.8580562 C63.5853132,18.2856156 63.2005184,17.7969762 62.6280778,17.7969762 L54.0820734,17.7969762 C53.5049569,17.8087543 53.0437283,18.2808218 53.0453521,18.8580562 L53.0453521,43.5421166 L55.1187905,43.5421166 L55.1187905,19.8704104 L61.511879,19.8704104 L61.511879,43.5421166 L63.5853132,43.5421166 Z" fill="#ABABAB"></path><path d="M46.1339093,48.0345572 L46.1339093,29.801987 C46.1339093,29.2293737 45.7029806,28.6825054 45.1303672,28.6825054 L36.5847084,28.6825054 C36.0122678,28.6825054 35.5939525,29.2293737 35.5939525,29.801987 L35.5939525,55.0287689 C35.5870004,55.2903446 35.6904308,55.5427739 35.8789259,55.7242671 C36.0674211,55.9057602 36.323583,55.9995656 36.5847084,55.9827214 L40.0863931,55.9827214 L40.0863931,53.9092873 L37.6673866,53.9092873 L37.6673866,30.7559395 L44.0604752,30.7559395 L44.0604752,48.0345572 L46.1339093,48.0345572 Z" fill="#ABABAB"></path><path d="M28.5097192,41.1231102 C28.5097192,40.5505471 28.0455652,40.0863931 27.4730022,40.0863931 L19.0064795,40.0863931 C18.4339165,40.0863931 17.9697624,40.5505471 17.9697624,41.1231102 L17.9697624,55.1187905 C17.9697624,55.6913535 18.4339165,56.1555076 19.0064795,56.1555076 L27.4730022,56.1555076 C28.0455652,56.1555076 28.5097192,55.6913535 28.5097192,55.1187905 L28.5097192,41.1231102 Z M20.0431965,42.1598272 L26.6090713,42.1598272 L26.6090713,53.9092873 L20.0431965,53.9092873 L20.0431965,42.1598272 Z" fill="#ABABAB"></path><path d="M11.0583153,31.1015119 C11.0583153,30.5289489 10.5941613,30.0647948 10.0215983,30.0647948 L1.55507559,30.0647948 C0.98251257,30.0647948 0.518358531,30.5289489 0.518358531,31.1015119 L0.518358531,54.9460043 C0.518358531,55.5185673 0.98251257,55.9827214 1.55507559,55.9827214 L10.0215983,55.9827214 C10.5941613,55.9827214 11.0583153,55.5185673 11.0583153,54.9460043 L11.0583153,31.1015119 Z M9.15766739,53.9092873 L2.59179266,53.9092873 L2.59179266,32.1382289 L9.15766739,32.1382289 L9.15766739,53.9092873 Z" fill="#ABABAB"></path><path d="M58.5263067,84.6104557 C67.1473999,84.6142972 74.92157,79.4235449 78.2225276,71.4594416 C81.5234852,63.4953384 79.7008948,54.3269254 73.6049102,48.2308419 C67.5089256,42.1347585 58.3405423,40.3120193 50.3763855,43.6128477 C42.4122286,46.9136761 37.2213502,54.6877621 37.225052,63.3088553 C37.2380994,75.0678604 46.7673018,84.5972174 58.5263067,84.6104557 L58.5263067,84.6104557 Z M40.9712311,55.4515767 C42.1018456,52.9434204 43.7526628,50.7042245 45.8142549,48.882419 C53.1733558,42.4135428 64.2251017,42.5316728 71.4442478,49.1563732 C78.6633939,55.7810736 79.7284519,66.7820142 73.9142131,74.6685441 C68.0999743,82.5550739 57.2761456,84.7910916 48.8127807,79.8540701 C40.3494158,74.9170487 36.9681112,64.3946051 40.9712311,55.4515767 L40.9712311,55.4515767 Z" fill="#AE152D" class="primary-fill-color"></path></g></g></svg>