<svg xmlns="http://www.w3.org/2000/svg" width="80px" height="76px" viewBox="0 0 80 76"><g stroke="none" stroke-width="1" fill="none" fill-rule="evenodd"><g fill-rule="nonzero"><path d="M53.3581435,36.1370464 C53.0905565,36.4663122 53.0200789,36.913781 53.1735014,37.3093569 C53.3269239,37.7049329 53.6806836,37.987863 54.1003063,38.0505974 C54.5199289,38.1133318 54.9409685,37.9462356 55.2033755,37.612827 C56.1235737,36.4895199 57.2646728,35.5671736 58.5559494,34.9029536 C59.0440735,34.7163119 59.3515852,34.2311566 59.3120524,33.710064 C59.2725196,33.1889714 58.895336,32.7557606 58.3846414,32.6448945 C57.8599156,32.5178059 56.5608439,31.0021941 56.5890295,30.0052321 C56.5985266,29.6714396 56.4663243,29.3492175 56.2251282,29.1182803 C55.9839321,28.8873431 55.6562716,28.7692619 55.3232068,28.7932489 C51.5112236,29.0680169 49.1031224,28.852827 44.9115612,26.8499578 C44.5983317,26.7002825 44.2351249,26.6959451 43.9184104,26.8380977 C43.601696,26.9802502 43.3635309,27.2545044 43.267173,27.5880169 C42.4806751,30.3110549 41.9650633,35.5255696 41.7345148,43.0869198 C41.7146368,43.7390732 42.2271729,44.2838742 42.8793249,44.3037975 L42.9159494,44.3037975 C43.554194,44.3034548 44.0767817,43.7962615 44.0962025,43.1583122 C44.2835443,37.015865 44.6690295,32.3783966 45.2202532,29.5836287 C48.7228692,31.0813502 51.2138397,31.3701266 54.4163713,31.2153586 C54.6395392,31.889065 54.9730812,32.5210154 55.4033755,33.0854008 C55.5714513,33.308785 55.7525828,33.5220401 55.9458228,33.7240506 C54.9762713,34.405396 54.1054822,35.2174017 53.3581435,36.1370464 L53.3581435,36.1370464 Z M58.5666975,34.9213502 C58.5257885,34.9377134 58.4837444,34.951082 58.4408975,34.9613502 C58.483483,34.9501622 58.5254707,34.9368115 58.5666975,34.9213502 L58.5666975,34.9213502 Z" fill="#ABABAB"></path><path d="M72.7816034,11.3130802 C70.1839352,9.12770795 66.9115671,7.90594277 63.5172996,7.85417722 C61.1486926,7.82131872 58.8640564,8.7307907 57.1660436,10.3824963 C55.4680309,12.0342019 54.495752,14.2928245 54.4631224,16.6614346 C54.4322363,18.9130802 56.2393249,20.8038819 57.8867511,22.2793249 C57.0158769,22.7958343 56.2627422,23.4888907 55.6757806,24.3139241 C52.8715612,24.0786498 45.9205063,22.4351055 44.387173,19.1171308 C42.6924895,15.4506329 42.9233755,7.39392405 43.4155274,1.28050633 C43.4421883,0.949227269 43.3280816,0.622040029 43.1011917,0.379186953 C42.8743019,0.136333877 42.5556159,0.000278470236 42.2232911,0.00429770597 L35.252827,0.0906329114 C34.9297851,0.0946673697 34.6224873,0.230815223 34.4024689,0.467382853 C34.1824504,0.703950483 34.068907,1.0202985 34.08827,1.34278481 C34.8092827,13.3476793 34.7927426,21.2312236 34.0391561,24.7748523 C33.2668354,28.4106329 27.6303797,34.3848101 24.6162025,34.9397468 C23.8952365,34.3299819 23.0597773,33.8703073 22.1588186,33.5876793 C23.7466667,32.1132489 25.4234599,30.2484388 25.3665823,28.0646414 C25.2326097,23.1360515 21.1346286,19.2458461 16.2057384,19.36827 C12.8125032,19.4614296 9.5555084,20.7233653 6.98531646,22.9407595 C2.12135021,27.1370464 -0.223459916,33.9762025 0.0168776371,43.268692 C0.234092827,51.643038 2.73113924,57.8359494 7.43864979,61.6751055 C10.8808439,64.4825316 14.9544304,65.4050633 17.3964557,65.3419409 C20.5293589,65.261029 23.5017826,63.9387995 25.6597384,61.6661675 C27.8176943,59.3935356 28.9843869,56.3566916 28.9031224,53.2237975 C28.8018565,49.2646414 26.2047257,46.6190717 24.252827,45.2359494 C24.747179,44.8164623 25.1765521,44.3259453 25.5269198,43.7804219 C25.8393293,43.2947725 26.0521142,42.7518815 26.1529114,42.1832911 C29.1498734,41.771308 31.3189873,40.5579747 33.5718143,38.8664979 C34.0612658,46.8600844 35.3007595,67.84827 34.2148523,74.5660759 C34.1595981,74.9079056 34.2570864,75.2567671 34.4815442,75.520432 C34.7060021,75.7840969 35.0348305,75.9360338 35.381097,75.9360338 L43.3944304,75.9360338 C43.7269825,75.9360338 44.0441473,75.7959358 44.2680539,75.5500563 C44.4919604,75.3041767 44.6018716,74.9753169 44.5708017,74.6442194 C44.4654852,73.5213502 44.3463291,71.2489451 44.2443882,68.4099578 C44.2191007,67.759404 43.6722806,67.2519137 43.0216508,67.2751654 C42.371021,67.2984171 41.8618222,67.8436467 41.883038,68.494346 C41.9566245,70.5405907 42.0394937,72.304135 42.1205063,73.5724895 L36.723038,73.5724895 C37.5637131,65.3058228 36.3540928,45.6207595 35.8820253,37.9368776 C35.84827,37.3763713 35.817384,36.8842194 35.7924051,36.4703797 C35.7655922,36.0283784 35.4938634,35.6384817 35.0884706,35.4603223 C34.6830779,35.2821628 34.2120955,35.3456575 33.8683544,35.6248101 C30.7767089,38.1395781 28.6291983,39.6857384 24.8838819,39.9380591 C24.5380779,39.9613826 24.2199573,40.1353747 24.0137649,40.4139587 C23.8075724,40.6925427 23.7341082,41.0476158 23.812827,41.3851477 C23.8896203,41.7142616 23.7925738,42.0983966 23.5243882,42.5269198 C22.9797468,43.3981435 22.0099578,44.009789 21.6428692,44.0933333 C21.1321702,44.2092143 20.758697,44.6474619 20.7252732,45.1700752 C20.6918493,45.6926886 21.0064517,46.1749422 21.4982278,46.3549367 C21.7481857,46.4698734 26.4244726,48.7162869 26.5417722,53.284557 C26.6067106,55.7908758 25.673295,58.2203272 23.9468901,60.0383968 C22.2204852,61.8564664 19.8425276,62.914208 17.3362025,62.978903 C16.8847257,62.9925738 12.8054008,63.0020253 8.9321519,59.8432068 C4.78244726,56.4587342 2.57772152,50.8614346 2.37907173,43.2067511 C2.15848101,34.6568776 4.2278481,28.4401688 8.53046414,24.7287764 C10.6872769,22.8675422 13.4205742,21.8080743 16.2683544,21.7294515 C19.8933148,21.639521 22.907177,24.5005007 23.0059072,28.1252321 C23.0455696,29.6501266 21.0077637,31.4622785 19.6592405,32.6614346 C19.4499578,32.8470886 19.2502954,33.0251477 19.0659916,33.1934177 C18.6992095,33.528501 18.5812391,34.0572434 18.7708017,34.5164557 C19.0612658,35.2204219 19.7414346,35.3881857 20.4616034,35.5659072 C21.3054852,35.7738397 22.4592405,36.0587342 23.3355274,36.977384 C23.5584527,37.2111399 23.8673666,37.3434271 24.1903797,37.3434599 C27.0313924,37.3434599 30.2832068,34.3093671 31.5505485,33.0048945 C33.5043038,30.9924051 35.7915612,27.9024473 36.35173,25.2651477 C37.1223629,21.6418565 37.1787342,13.9655696 36.5205063,2.4371308 L40.9620253,2.38312236 C40.3392405,11.0951899 40.7594937,16.9007595 42.2421941,20.1081857 C44.7218565,25.4762869 54.8479325,26.7063291 56.2901266,26.7063291 C56.7035461,26.7063365 57.0868951,26.4902426 57.3009283,26.1365401 C58.1485232,24.7356962 59.1650633,24.1545992 60.4305485,23.7118987 C60.8254655,23.5737349 61.117855,23.2370049 61.1992606,22.8266127 C61.2806661,22.4162204 61.1389453,21.9933802 60.8266667,21.7149367 C60.6410127,21.548692 60.438481,21.3736709 60.227173,21.190211 C58.864135,20.0070886 56.8040506,18.2197468 56.8251477,16.6940084 C56.8491084,14.9520158 57.5641659,13.2909059 58.8129842,12.0761774 C60.0618025,10.8614489 61.742062,10.1926281 63.4840506,10.2168776 C66.3325713,10.2604008 69.0787668,11.2857902 71.2587342,13.1198312 C75.6054008,16.7822785 77.7495359,22.9733333 77.6318987,31.5232068 C77.5461603,37.8043882 76.0732489,42.7522363 73.2541772,46.2298734 C72.9843326,46.5573557 72.9108396,47.0043989 73.0616406,47.4010344 C73.2124417,47.79767 73.5643711,48.0829674 73.9836229,48.1484548 C74.4028748,48.2139421 74.8250444,48.0495594 75.0896203,47.7178059 C78.2511392,43.8180591 79.9014346,38.3800844 79.9945992,31.5556118 C80.123038,22.264135 77.6962025,15.4535021 72.7816034,11.3130802 Z M21.5187456,46.373911 C21.5533456,46.385911 21.5887456,46.396911 21.6245456,46.406511 C21.5887148,46.3975676 21.5533961,46.3866849 21.5187456,46.373911 Z" fill="#ABABAB"></path><path d="M47.4261603,59.9156118 L53.164557,59.9156118 L53.164557,65.6540084 C53.164557,66.3064968 53.6935032,66.835443 54.3459916,66.835443 L59.7468354,66.835443 C60.3993238,66.835443 60.92827,66.3064968 60.92827,65.6540084 L60.92827,59.9156118 L66.4978903,59.9156118 C67.1503786,59.9156118 67.6793249,59.3866655 67.6793249,58.7341772 L67.6793249,53.3333333 C67.6793249,52.680845 67.1503786,52.1518987 66.4978903,52.1518987 L60.92827,52.1518987 L60.92827,46.5822785 C60.92827,45.9297902 60.3993238,45.4008439 59.7468354,45.4008439 L54.3459916,45.4008439 C53.6935032,45.4008439 53.164557,45.9297902 53.164557,46.5822785 L53.164557,52.1518987 L47.4261603,52.1518987 C46.773672,52.1518987 46.2447257,52.680845 46.2447257,53.3333333 L46.2447257,58.7341772 C46.2447257,59.3866655 46.773672,59.9156118 47.4261603,59.9156118 Z M48.6075949,54.5147679 L54.3459916,54.5147679 C54.9984799,54.5147679 55.5274262,53.9858216 55.5274262,53.3333333 L55.5274262,47.7637131 L58.5654008,47.7637131 L58.5654008,53.3333333 C58.5654008,53.9858216 59.0943471,54.5147679 59.7468354,54.5147679 L65.3164557,54.5147679 L65.3164557,57.5527426 L59.7468354,57.5527426 C59.0943471,57.5527426 58.5654008,58.0816889 58.5654008,58.7341772 L58.5654008,64.4725738 L55.5274262,64.4725738 L55.5274262,58.7341772 C55.5274262,58.0816889 54.9984799,57.5527426 54.3459916,57.5527426 L48.6075949,57.5527426 L48.6075949,54.5147679 Z" fill="#AE152D" class="primary-fill-color"></path><path d="M57.2291983,75.9451477 C65.415492,75.9451477 72.795742,71.0139461 75.9285167,63.4508035 C79.0612915,55.8876609 77.3296372,47.1820945 71.5410293,41.3935349 C65.7524214,35.6049753 57.0468406,33.8733936 49.4837241,37.0062314 C41.9206076,40.1390692 36.9895359,47.5193604 36.9895359,55.705654 C37.0022783,66.8784012 46.056451,75.9324984 57.2291983,75.9451477 Z M57.2291983,37.8285232 C67.1023718,37.8285232 75.1063291,45.832143 75.1063291,55.7053165 C75.1063291,65.57849 67.1027094,73.5824473 57.2295359,73.5824473 C47.3563624,73.5824473 39.3524051,65.5788275 39.3524051,55.705654 C39.3634732,45.8371073 47.3606518,37.8397777 57.2291983,37.8285232 L57.2291983,37.8285232 Z" fill="#AE152D" class="primary-fill-color"></path></g></g></svg>