<svg xmlns="http://www.w3.org/2000/svg" width="80px" height="80px" viewBox="0 0 80 80"><g stroke="none" stroke-width="1" fill="none" fill-rule="evenodd"><g fill-rule="nonzero"><path d="M12.8267789,74.2778947 L17.0036211,70.8192 C19.0312236,72.0595865 21.2330809,72.989469 23.536,73.5779368 L24.0581053,78.9594947 C24.1120395,79.4695102 24.5517472,79.8506295 25.0642526,79.8315789 L33.3561263,79.8315789 C33.8685338,79.850532 34.308089,79.4694173 34.3619368,78.9594947 L34.8840421,73.5575579 C37.1911302,72.9826974 39.3964917,72.0576577 41.4233263,70.8146526 L45.5929263,74.2726737 C45.993871,74.6059074 46.5825125,74.5794262 46.9519158,74.2115368 L52.8006737,68.3641263 C53.1689653,67.9955261 53.1966068,67.4073244 52.8645053,67.0058105 L49.4059789,62.8289684 C50.646255,60.8010287 51.5760744,58.5989025 52.1645474,56.2957474 L57.5220211,55.7736421 C58.0409467,55.7240917 58.4383348,55.2901144 58.4421053,54.7688421 L58.4421053,46.4771368 C58.4388246,45.9552083 58.0409481,45.5205062 57.5213474,45.4711579 L52.0949895,44.9490526 C51.5159366,42.6413502 50.5868187,40.435959 49.3399579,38.4096 L52.7925895,34.2401684 C53.123512,33.8402867 53.0976668,33.254729 52.7328,32.8855579 L46.9574737,27.0364632 C46.5893128,26.663263 45.9968972,26.6335691 45.5932632,26.9680842 L41.4164211,30.4267789 C39.3888277,29.1863744 37.1869677,28.2564907 34.8840421,27.6680421 L34.3619368,22.2740211 C34.3092984,21.761653 33.8710205,21.376215 33.3561263,21.3891417 L25.0642526,21.3891417 C24.5493883,21.3762973 24.1111583,21.7616931 24.0584421,22.2740211 L23.5363368,27.6821895 C21.2290134,28.2580534 19.0235879,29.1841753 16.9968842,30.4282947 L12.8267789,26.9717895 C12.4256641,26.6387359 11.8370144,26.6655093 11.4677895,27.0336 L5.61903158,32.8813474 C5.25043709,33.2500145 5.22278923,33.8385711 5.5552,34.2401684 L9.01389474,38.4168421 C7.77347437,40.4444273 6.84358969,42.6462898 6.25515789,44.9492211 L0.872926316,45.4713263 C0.362832435,45.5250788 -0.0185819252,45.9645553 1.94484186e-15,46.4771368 L1.94484186e-15,54.7688421 C-0.0181707068,55.2813102 0.363011573,55.7205928 0.872926316,55.7748211 L6.2752,56.2969263 C6.85005641,58.6040959 7.77515614,60.8095218 9.01827368,62.8363789 L5.56042105,67.0064842 C5.2271873,67.4074289 5.25366851,67.9960704 5.62155789,68.3654737 L11.4694737,74.2140632 C11.8375972,74.5825245 12.4257005,74.6101819 12.8267789,74.2778947 L12.8267789,74.2778947 Z M11.0356211,63.5572211 C11.320363,63.2134611 11.3458315,62.7236035 11.0982737,62.3521684 C9.64764873,60.159936 8.61783665,57.7167952 8.06147368,55.1476211 C7.98646778,54.7236706 7.6396636,54.4007105 7.21145263,54.3560421 L2.02105263,53.8511158 L2.02105263,47.3948632 L7.21145263,46.8906105 C7.64428881,46.8473122 7.99778535,46.5258273 8.08185263,46.0990316 C8.649481,43.5298053 9.67772334,41.0846199 11.1168,38.8818526 C11.354343,38.510375 11.3236005,38.0277657 11.0408421,37.6894316 L7.70122105,33.6591158 L12.2474105,29.1117474 L16.2765474,32.4488421 C16.6203131,32.7334491 17.1100701,32.7588475 17.4814316,32.5113263 C19.673482,31.0602953 22.1165925,30.0301863 24.6858105,29.4736842 C25.1113233,29.3933788 25.4333736,29.0428235 25.4773895,28.6120421 L25.9821474,23.4105263 L32.4378947,23.4105263 L32.9419789,28.6127158 C32.9850459,29.0467296 33.3060917,29.4019293 33.7335579,29.4885053 C36.3029189,30.0571997 38.7480835,31.0864033 40.9507368,32.5263158 C41.3218905,32.7642837 41.8044831,32.7341557 42.1431579,32.4518737 L46.1684211,29.1171368 L50.6502737,33.6557474 L47.3094737,37.6894316 C47.0249493,38.0331651 46.9995525,38.522823 47.2469895,38.8941474 C48.697468,41.0864195 49.727163,43.5295535 50.2834526,46.0986947 C50.3798577,46.5291423 50.7423306,46.8486515 51.1814737,46.8902737 L56.4193684,47.3945263 L56.4193684,53.8517895 L51.2537263,54.3550316 C50.8161102,54.3976368 50.4557199,54.7172282 50.3610947,55.1466105 C49.7890475,57.7164345 48.75685,60.1615843 47.3143579,62.3639579 C47.0752425,62.7341376 47.1035937,63.2165855 47.3844211,63.5562105 L50.7221895,67.5873684 L46.1748211,72.1347368 L42.1448421,68.7976421 C41.8010118,68.5128698 41.3110566,68.4874683 40.9396211,68.7351579 C38.7474384,70.1857253 36.3043531,71.2154809 33.7352421,71.7717895 C33.3114521,71.8464957 32.9884671,72.1929829 32.9436632,72.6209684 L32.4378947,77.8105263 L25.9821474,77.8105263 L25.4778947,72.6208 C25.434356,72.1878409 25.1124903,71.8344386 24.6854737,71.7507368 C22.1163139,71.1830643 19.6711915,70.1548245 17.4684632,68.7157895 C17.0969496,68.4782936 16.6143383,68.5091044 16.2760421,68.7919158 L12.2462316,72.1318737 L7.69886316,67.5855158 L11.0356211,63.5572211 Z" fill="#AE152D" class="primary-fill-color"></path><path d="M29.2102737,67.7773474 C38.684342,67.7773474 46.3644632,60.0969455 46.3644632,50.6228772 C46.3644632,41.1488089 38.6841175,33.4686316 29.2100491,33.4686316 C19.7359808,33.4686316 12.0557474,41.1489211 12.0557474,50.6229895 C12.0664214,60.0927206 19.7405424,67.7667663 29.2102737,67.7773474 L29.2102737,67.7773474 Z M29.2102737,35.4896842 C37.5681455,35.4896842 44.3434105,42.26523 44.3434105,50.6231018 C44.3434105,58.9809735 37.5679209,65.7562947 29.2100491,65.7562947 C20.8521773,65.7562947 14.0768,58.9808613 14.0768,50.6229895 C14.0862673,42.2689546 20.8562387,35.4990585 29.2102737,35.4896842 Z" fill="#AE152D" class="primary-fill-color"></path><path d="M49.0507789,19.0315789 L51.5641263,19.2752842 C51.8503538,20.3100751 52.2660459,21.3046013 52.8013474,22.2352842 L51.1922526,24.1738105 C50.8590509,24.5749106 50.8857533,25.1636765 51.2538947,25.5329684 L54.3368421,28.6169263 C54.7055316,28.9853694 55.2939677,29.0129421 55.6954947,28.6805895 L57.6392421,27.0708211 C58.5687817,27.607238 59.5610629,28.026699 60.5935158,28.3196632 L60.8372211,30.8833684 C60.8840602,31.4085086 61.3160442,31.8157541 61.8430316,31.8315789 L66.2152421,31.8315789 C66.7422359,31.8158471 67.1742935,31.4086727 67.2212211,30.8835368 L67.4649263,28.3376842 C68.5002321,28.0456937 69.4946609,27.6245299 70.4247579,27.0841263 L72.3632842,28.6851368 C72.7655177,29.0172737 73.3544574,28.9886695 73.7226105,28.6191158 L76.8064,25.5341474 C77.1754493,25.1653242 77.2030347,24.5761779 76.8700632,24.1744842 L75.2602947,22.2304 C75.7969082,21.3005008 76.2164843,20.307819 76.5094737,19.2749474 L78.96,19.0315789 C79.4692439,18.976704 79.8496279,18.5378107 79.8315789,18.0259368 L79.8315789,13.6537263 C79.8501609,13.1411448 79.4687465,12.7016683 78.9586526,12.6479158 L76.4505263,12.4042105 C76.1649739,11.369556 75.7500795,10.3750431 75.2156632,9.44421053 L76.8259368,7.50568421 C77.1576171,7.10663585 77.1331586,6.52123238 76.7693474,6.15124211 L73.7256421,3.06728421 C73.3576333,2.6947951 72.766051,2.66511731 72.3626105,2.99890526 L70.4190316,4.60867368 C69.4895066,4.07222734 68.4972217,3.65276477 67.4647579,3.35983158 L67.2212211,0.872084211 C67.1672118,0.362176859 66.7276542,-0.018876082 66.2152421,5.9869644e-16 L61.8430316,5.9869644e-16 C61.3306537,-0.0188692243 60.8911477,0.362202775 60.8372211,0.872084211 L60.5933474,3.37987368 C59.5588161,3.66547315 58.5644203,4.08036586 57.6336842,4.61473684 L55.6951579,3.00429474 C55.2941855,2.67095788 54.7054257,2.69744113 54.336,3.06543158 L51.2522105,6.14753684 C50.8838684,6.51620397 50.8562978,7.10452183 51.1885474,7.50602105 L52.7981474,9.4496 C52.2617597,10.3791542 51.8423003,11.3714317 51.5493053,12.4038737 L49.0509474,12.6484211 C48.5389816,12.7012626 48.1542482,13.1397413 48.1684211,13.6542316 L48.1684211,18.0264421 C48.1545168,18.5406478 48.5391052,18.9787512 49.0507789,19.0315789 Z M50.1894737,14.5716211 L52.4848842,14.3472842 C52.918898,14.3042173 53.2740977,13.9831715 53.3606737,13.5557053 C53.6470693,12.2572892 54.1663319,11.0215013 54.8933053,9.90821053 C55.1311787,9.53698484 55.1009142,9.0543886 54.8185263,8.71578947 L53.3344,6.92597895 L55.1162947,5.14290526 L56.9057684,6.62501053 C57.2495342,6.90961754 57.7392912,6.93501589 58.1106526,6.68749474 C59.2166612,5.9557643 60.4492223,5.43631926 61.7453474,5.15570526 C62.1691374,5.08099908 62.4921223,4.73451181 62.5369263,4.30652632 L62.7609263,2.02105263 L65.2968421,2.02105263 L65.5210105,4.30602105 C65.5644488,4.73872792 65.8859033,5.09205427 66.3125895,5.17608421 C67.6115609,5.46113328 68.8480724,5.97938505 69.9621053,6.70568421 C70.3336918,6.94303611 70.8162233,6.91230292 71.1546947,6.62972632 L72.9399579,5.14863158 L74.6913684,6.92210526 L73.2053895,8.71578947 C72.9207825,9.05955524 72.8953841,9.54931223 73.1429053,9.92067368 C73.8746965,11.0265884 74.3941474,12.2591062 74.6746947,13.5552 C74.7496482,13.979179 75.0964801,14.302165 75.5247158,14.3467789 L77.8105263,14.5716211 L77.8105263,17.1092211 L75.5626105,17.3325474 C75.1302269,17.3763352 74.7773259,17.6977138 74.6933895,18.1241263 C74.407891,19.4223816 73.8895409,20.6581706 73.1634526,21.7716211 C72.9259096,22.1430986 72.9566521,22.625708 73.2394105,22.9640421 L74.7242105,24.7538526 L72.9431579,26.5374316 L71.1538526,25.0553263 C70.8100869,24.7707193 70.3203299,24.745321 69.9489684,24.9928421 C68.8429747,25.7246004 67.6104082,26.2440477 66.3142737,26.5246316 C65.8804585,26.6331895 65.5628522,27.0043834 65.5226947,27.4497684 L65.2968421,29.8105263 L62.7609263,29.8105263 L62.5367579,27.4496 C62.4955987,27.0082157 62.1768326,26.6425842 61.7451789,26.5416421 C60.4459507,26.249042 59.2102737,25.7241203 58.0976842,24.9921684 C57.7280429,24.7522105 57.2455246,24.7794715 56.9052632,25.0595368 L55.1152842,26.5396211 L53.3323789,24.7555368 L54.8144842,22.9650526 C55.0992565,22.6212223 55.124658,22.1312671 54.8769684,21.7598316 C54.1452623,20.6536875 53.6258209,19.4210209 53.3451789,18.1248 C53.2660407,17.6996802 52.9163868,17.3774501 52.4862316,17.3332211 L50.1894737,17.1082105 L50.1894737,14.5716211 Z" fill="#ABABAB"></path><path d="M64.0291368,23.1686737 C68.0767446,23.1686737 71.3579789,19.8874393 71.3579789,15.8398316 C71.3579789,11.7922239 68.0767446,8.51098947 64.0291368,8.51098947 C59.9815291,8.51098947 56.7002947,11.7922239 56.7002947,15.8398316 C56.7049354,19.8855155 59.9834529,23.1640331 64.0291368,23.1686737 L64.0291368,23.1686737 Z M64.0291368,10.5320421 C66.960548,10.5320421 69.3369263,12.9084204 69.3369263,15.8398316 C69.3369263,18.7712428 66.960548,21.1476211 64.0291368,21.1476211 C61.0977257,21.1476211 58.7213474,18.7712428 58.7213474,15.8398316 C58.724596,12.9097671 61.0990724,10.5352908 64.0291368,10.5320421 L64.0291368,10.5320421 Z" fill="#ABABAB"></path></g></g></svg>