<svg xmlns="http://www.w3.org/2000/svg" width="100px" height="90px" viewBox="0 0 100 90"><g stroke="none" stroke-width="1" fill="none" fill-rule="evenodd"><g fill="#E1E1E1"><path d="M3.6981638,63.4633278 C3.61705435,63.0215641 3.54044266,62.566772 3.47117729,62.111381 L4.36637969,61.9754077 C4.43429573,62.4216639 4.50925825,62.8673211 4.58871852,63.2999501 L3.6981638,63.4633278 Z M4.27027774,66.1425125 C4.16233171,65.7022463 4.05933321,65.2526955 3.96413081,64.806589 L4.84973801,64.6180532 C4.94299138,65.0551747 5.04404086,65.4957404 5.14973801,65.9274709 L4.27027774,66.1425125 Z M5.00011282,68.7841098 C4.86682946,68.3525291 4.73744416,67.9100166 4.61540518,67.4687022 L5.48826874,67.2279035 C5.60790892,67.6605324 5.73474551,68.0943594 5.86533021,68.5174043 L5.00011282,68.7841098 Z M5.88557009,71.3768885 C5.72589993,70.9512978 5.57042766,70.5173211 5.42365105,70.0869384 L6.28062257,69.7950749 C6.42470053,70.216772 6.57702437,70.642213 6.7335461,71.0598669 L5.88557009,71.3768885 L5.88557009,71.3768885 Z"></path><path d="M5.67267654,42.1978702 L4.80326125,41.9437438 C4.93204685,41.504376 5.06787894,41.0638103 5.20745915,40.6347754 L6.06877849,40.9139101 C5.93189693,41.3348586 5.79861357,41.7667388 5.67267654,42.1978702 Z M4.99546515,44.7964892 L4.11285645,44.5946256 C4.2149554,44.1483694 4.32470053,43.7007654 4.43849363,43.2639434 L5.31480548,43.4918636 C5.20326125,43.92 5.095765,44.3589185 4.99546515,44.7964892 Z M4.47297639,47.4310483 L3.57987294,47.2817471 C3.65498539,46.8327953 3.73819378,46.3793511 3.8263497,45.9341431 L4.71465555,46.1099501 C4.62799888,46.5464725 4.54688943,46.9910815 4.47297639,47.4310483 Z M4.1071593,50.0918136 L3.20685945,49.9950749 C3.25573501,49.5422296 3.31165705,49.0847421 3.37357609,48.6354908 L4.27072751,48.7587354 C4.2101578,49.1993012 4.15513531,49.6476539 4.1071593,50.0918136 Z M3.89771402,52.7696506 L2.99306634,52.7251747 C3.0155551,52.2699334 3.04479048,51.8101997 3.08017279,51.3584027 L3.98317129,51.4290849 C3.94838868,51.8720466 3.91960308,52.3232446 3.89771402,52.7696506 Z M3.84254161,55.0367221 L2.93699438,55.0362729 C2.93714431,54.721198 2.94029273,54.4070216 2.94643966,54.093594 L3.85198688,54.1117138 C3.84583996,54.4193012 3.84269153,54.727787 3.84254161,55.0367221 L3.84254161,55.0367221 Z"></path><path d="M27.4641308,15.027005 L27.0254502,14.235574 C27.4242508,14.0149917 27.8314472,13.7974043 28.2351953,13.5895507 L28.6503377,14.3932612 C28.2545356,14.597371 27.8554352,14.8104659 27.4641308,15.027005 Z M25.1507875,16.3972213 L24.6656301,15.6331947 C25.047789,15.3913478 25.4411923,15.1502496 25.8356451,14.9167887 L26.2972642,15.6950416 C25.9107575,15.9238602 25.5250004,16.1600166 25.1507875,16.3972213 Z M22.9211023,17.9005657 L22.3927665,17.1661897 C22.7648804,16.8991847 23.1434412,16.6357737 23.5182538,16.3828453 L24.0250004,17.1323461 C23.6575341,17.3803328 23.2861698,17.6389517 22.9211023,17.9005657 Z M20.7843707,19.531797 L20.2134561,18.8296173 C20.5654801,18.5443428 20.9281488,18.2590682 21.2911173,17.98203 L21.8405926,18.7006822 C21.4846705,18.9724792 21.1294981,19.2520632 20.7843707,19.531797 Z M18.7464397,21.2849251 L18.135795,20.617188 C18.4716271,20.3106489 18.8167545,20.0050083 19.1614322,19.7083527 L19.7525866,20.3937604 C19.4143557,20.6845757 19.075825,20.984376 18.7464397,21.2849251 Z M16.8149554,23.1544093 L16.16578,22.5233611 C16.481822,22.1991514 16.8086585,21.8737438 17.1366945,21.5561231 L17.7668295,22.2057404 C17.4449404,22.5170715 17.1245506,22.8361897 16.8149554,23.1544093 Z M14.9951653,25.1327621 L14.3106076,24.5404992 C14.6104576,24.1947255 14.9175041,23.8508985 15.2233512,23.5186023 L15.8900678,24.130183 C15.5905176,24.4564892 15.2891683,24.7935774 14.9951653,25.1327621 Z M13.2944157,27.2147421 L12.5762747,26.6635108 C12.8530364,26.3038103 13.1395431,25.9423128 13.427699,25.5896506 L14.1293482,26.1615474 C13.8468894,26.5073211 13.5659299,26.8619301 13.2944157,27.2147421 Z M11.7190034,29.3921131 L10.9699779,28.8837105 C11.2261998,28.5069384 11.4909674,28.1292679 11.7569344,27.7616306 L12.4909674,28.2915973 C12.2300978,28.6520466 11.9702777,29.0223794 11.7190034,29.3921131 L11.7190034,29.3921131 Z"></path><path d="M51.3070094,9.36419301 C50.8575341,9.34772047 50.4052103,9.33783694 49.9623317,9.33439268 L49.9690783,8.42990017 C50.4206526,8.43334443 50.8819719,8.4433777 51.3401428,8.46014975 L51.3070094,9.36419301 Z M47.7621818,9.36868552 L47.7258999,8.46494176 C48.015705,8.45326123 48.3065596,8.44472546 48.5981638,8.43858569 L48.6167545,9.3430782 C48.3312972,9.34876872 48.0462897,9.35730449 47.7621818,9.36868552 Z M53.9909674,9.5402995 C53.5500379,9.49851913 53.0989134,9.46212978 52.6495881,9.4324792 L52.709708,8.52978369 C53.1674292,8.56018303 53.6272493,8.59702163 54.0767245,8.6397005 L53.9909674,9.5402995 Z M56.659783,9.87319468 C56.2172043,9.80460899 55.7690783,9.74201331 55.3279989,9.68705491 L55.439843,8.78960067 C55.8900678,8.84545757 56.3471893,8.90955075 56.7986136,8.97933444 L56.659783,9.87319468 L56.659783,9.87319468 Z"></path><path d="M78.1873692,19.3483527 L78.0644307,19.2502662 L78.6272493,18.541797 L78.7542358,18.6430283 L78.1873692,19.3483527 Z M80.2366945,21.0893511 C79.9080588,20.792995 79.5675791,20.4952912 79.2250004,20.2043261 L79.811807,19.5151747 C80.1609824,19.81198 80.5080588,20.1153744 80.8434412,20.4175707 L80.2366945,21.0893511 Z M82.1804726,22.9459567 C81.8669794,22.6286356 81.5446406,22.311614 81.2221518,22.0032779 L81.8482388,21.3496173 C82.1770244,21.6639434 82.50566,21.9874043 82.8251503,22.3108652 L82.1804726,22.9459567 Z M84.0124067,24.913228 C83.7181038,24.5780865 83.4148055,24.2426456 83.1107575,23.9163394 L83.7740259,23.3001165 C84.083771,23.6331614 84.3930663,23.9750416 84.6933662,24.3166223 L84.0124067,24.913228 Z M85.7261998,26.9839767 C85.4512373,26.6311647 85.1680289,26.2786522 84.8845206,25.936173 L85.5822717,25.3597837 C85.8714771,25.7088519 86.1602328,26.0684027 86.4407425,26.4284027 L85.7261998,26.9839767 Z M87.315705,29.1513145 C87.0611323,28.7815807 86.7989134,28.4133444 86.5368445,28.0564892 L87.2672792,27.5215807 C87.5344457,27.885624 87.8016121,28.2614975 88.061732,28.6385691 L87.315705,29.1513145 L87.315705,29.1513145 Z"></path><path d="M96.2423917,56.4112812 L95.3372942,56.3852246 C95.3500379,55.9385191 95.3567845,55.4867221 95.3567845,55.0418136 L96.2623317,55.0418136 C96.2623317,55.4954077 96.2555851,55.9561897 96.2423917,56.4112812 Z M96.0836211,59.1458735 L95.181672,59.0666556 C95.2205026,58.6215973 95.2534861,58.1708486 95.2791233,57.7269884 L96.1833212,57.7795507 C96.1569344,58.2319468 96.1233512,58.6915308 96.0836211,59.1458735 Z M95.7648804,61.8665391 L94.8690783,61.7349085 C94.9339959,61.2928453 94.9932163,60.844792 95.0447905,60.4036273 L95.9441908,60.5083028 C95.8914172,60.9586023 95.8311473,61.4153411 95.7648804,61.8665391 Z M95.2866196,64.5638436 L94.4001128,64.3798003 C94.4905176,63.9449251 94.5761248,63.5012146 94.6540858,63.0609484 L95.5459899,63.2186356 C95.4662298,63.6678869 95.3789734,64.1204326 95.2866196,64.5638436 Z M94.649738,67.2283527 L93.7755251,66.9924958 C93.8909674,66.5658569 94.0025116,66.1278369 94.1074591,65.690416 L94.9881188,65.9009651 C94.8812223,66.346772 94.7672792,66.7936273 94.649738,67.2283527 L94.649738,67.2283527 Z"></path><path d="M57.4735761,17.8438103 L61.0549854,17.8438103 C61.3049104,17.8438103 61.507759,18.0462729 61.507759,18.2960566 L61.507759,23.2518968 L66.7641308,17.9770882 C66.8492882,17.8917304 66.9645806,17.8438103 67.0851203,17.8438103 L81.3482388,17.8438103 L81.3482388,0.904492512 L57.4735761,0.904492512 L57.4735761,17.8438103 Z M61.0549854,24.7995674 C60.9965146,24.7995674 60.9378939,24.7883361 60.8819719,24.7654243 C60.7127065,24.6954908 60.6022118,24.5304659 60.6022118,24.3473211 L60.6022118,18.7483028 L57.0208025,18.7483028 C56.7707275,18.7483028 56.5680289,18.5458403 56.5680289,18.2960566 L56.5680289,0.452246256 C56.5680289,0.202462562 56.7707275,0 57.0208025,0 L81.8010124,0 C82.0509374,0 82.253786,0.202462562 82.253786,0.452246256 L82.253786,18.2960566 C82.253786,18.5458403 82.0509374,18.7483028 81.8010124,18.7483028 L67.2732762,18.7483028 L61.3759749,24.6664393 C61.2890184,24.7534443 61.1729764,24.7995674 61.0549854,24.7995674 L61.0549854,24.7995674 Z"></path><polygon points="66.2414921 6.66044925 67.9701278 6.66044925 67.9701278 5.75595674 66.2414921 5.75595674"></polygon><polygon points="62.783771 6.66044925 64.5125566 6.66044925 64.5125566 5.75595674 62.783771 5.75595674"></polygon><polygon points="73.1566346 6.66044925 74.8855701 6.66044925 74.8855701 5.75595674 73.1566346 5.75595674"></polygon><polygon points="69.6989134 6.66044925 71.427849 6.66044925 71.427849 5.75595674 69.6989134 5.75595674"></polygon><polygon points="76.6143557 6.66044925 78.3432912 6.66044925 78.3432912 5.75595674 76.6143557 5.75595674"></polygon><polygon points="62.783771 10.6897837 76.0380439 10.6897837 76.0380439 9.78529118 62.783771 9.78529118"></polygon><polygon points="62.783771 14.7189684 69.6989134 14.7189684 69.6989134 13.8144759 62.783771 13.8144759"></polygon><path d="M10.7995131,39.4414143 C18.4549854,39.5929617 24.4113572,43.5453245 26.4491383,45.0859567 L26.4491383,25.3449584 C24.4229014,26.9601664 18.5572343,31.035025 10.7995131,31.1895674 L10.7995131,39.4414143 Z M26.9019119,46.4780366 C26.7948654,46.4780366 26.6890184,46.44 26.6049104,46.367371 C26.5354951,46.3071714 19.5425416,40.3415641 10.3467395,40.3415641 C10.0966645,40.3415641 9.89396589,40.1391015 9.89396589,39.8893178 L9.89396589,30.7416639 C9.89396589,30.4918802 10.0966645,30.2894176 10.3467395,30.2894176 C19.7115071,30.2894176 26.5269494,24.1015807 26.5945656,24.038985 C26.7269494,23.9169384 26.9191533,23.8848918 27.0833212,23.9569218 C27.2480888,24.0289517 27.3546855,24.1914309 27.3546855,24.3711314 L27.3546855,46.0257903 C27.3546855,46.2027953 27.2512373,46.3636273 27.089768,46.4371547 C27.0296481,46.4645591 26.9656301,46.4780366 26.9019119,46.4780366 L26.9019119,46.4780366 Z"></path><path d="M2.12050263,33.3049418 C1.85633471,33.3049418 1.64119228,33.5199834 1.64119228,33.7836938 L1.64119228,36.8472879 C1.64119228,37.1111481 1.85633471,37.3260399 2.12050263,37.3260399 L3.9059599,37.3260399 L3.9059599,33.3049418 L2.12050263,33.3049418 Z M4.35873351,38.2305324 L2.12050263,38.2305324 C1.35693441,38.2305324 0.735645055,37.6099667 0.735645055,36.8472879 L0.735645055,33.7836938 C0.735645055,33.021015 1.35693441,32.4004493 2.12050263,32.4004493 L4.35873351,32.4004493 C4.60865855,32.4004493 4.81150712,32.6030616 4.81150712,32.8526955 L4.81150712,37.7782862 C4.81150712,38.0280699 4.60865855,38.2305324 4.35873351,38.2305324 L4.35873351,38.2305324 Z"></path><path d="M9.75528524,31.1939101 C8.18721927,31.1939101 6.60880847,31.3310815 5.06443066,31.6015308 L5.04239168,31.605574 C4.9083587,31.6289351 4.81150712,31.7440932 4.81150712,31.8793178 L4.81150712,38.8554409 C4.81150712,38.9945591 4.9155551,39.1131614 5.05333621,39.1309817 L5.2029614,39.1508985 C6.64913831,39.340782 8.12200188,39.4370715 9.58047264,39.4370715 L9.89396589,39.4370715 L9.89396589,31.1939101 L9.75528524,31.1939101 Z M10.3467395,40.3415641 L9.58047264,40.3415641 C8.08257159,40.3415641 6.57012781,40.242579 5.08497039,40.047604 L4.93549513,40.0278369 C4.34853861,39.9508652 3.9059599,39.4471048 3.9059599,38.8554409 L3.9059599,31.8793178 C3.9059599,31.3036772 4.31780398,30.8138436 4.88557009,30.7148586 L4.90745915,30.7108153 C6.5041608,30.4312313 8.13489543,30.2894176 9.75528524,30.2894176 L10.3467395,30.2894176 C10.5966645,30.2894176 10.7995131,30.4918802 10.7995131,30.7416639 L10.7995131,39.8893178 C10.7995131,40.1391015 10.5966645,40.3415641 10.3467395,40.3415641 L10.3467395,40.3415641 Z"></path><path d="M27.7824217,23.1018469 C27.5465896,23.1018469 27.3546855,23.2935275 27.3546855,23.5292346 L27.3546855,46.7498336 C27.3546855,46.985391 27.5465896,47.1772213 27.7824217,47.1772213 C28.0184037,47.1772213 28.2103077,46.985391 28.2103077,46.7498336 L28.2103077,23.5292346 C28.2103077,23.2935275 28.0184037,23.1018469 27.7824217,23.1018469 Z M27.7824217,48.0815641 C27.0471893,48.0815641 26.4491383,47.4842097 26.4491383,46.7498336 L26.4491383,23.5292346 C26.4491383,22.7947088 27.0471893,22.1973544 27.7824217,22.1973544 C28.517804,22.1973544 29.115855,22.7947088 29.115855,23.5292346 L29.115855,46.7498336 C29.115855,47.4842097 28.517804,48.0815641 27.7824217,48.0815641 L27.7824217,48.0815641 Z"></path><path d="M29.0154052,38.5822962 L29.0154052,37.6778037 C30.3196031,37.6778037 31.3804726,36.61802 31.3804726,35.3153411 L31.3804726,34.9635774 C31.3804726,33.6610483 30.3196031,32.6012646 29.0154052,32.6012646 L29.0154052,31.696772 C30.8187035,31.696772 32.2860199,33.1623794 32.2860199,34.9635774 L32.2860199,35.3153411 C32.2860199,37.1166889 30.8187035,38.5822962 29.0154052,38.5822962"></path><path d="M13.5362448,54.2750915 C12.5702777,54.2750915 11.6833212,53.6563228 11.3773242,52.6926789 L8.23759408,42.8127454 C8.19486545,42.6790183 8.09081747,42.5708985 7.95858359,42.5238769 L6.67207684,42.0659401 C6.49201687,42.0016972 6.37147714,41.8311314 6.37147714,41.6400499 L6.37147714,39.8893178 L7.27702437,39.8893178 L7.27702437,41.3210815 L8.26263156,41.6719468 C8.65948314,41.8131614 8.97267654,42.1372213 9.10071252,42.5387022 L12.2404427,52.4190849 C12.461732,53.116173 13.1891683,53.5118136 13.8954651,53.3226789 C14.2611323,53.2241431 14.5614322,52.9866389 14.7410424,52.653594 C14.9211023,52.3205491 14.9546855,51.9394343 14.8359449,51.580183 L12.057684,43.1685524 C11.8434412,42.5205824 12.1474891,41.8113644 12.7645806,41.5187521 L13.4164547,41.2093677 L13.4164547,40.2410815 L14.3220019,40.2410815 L14.3220019,41.495391 C14.3220019,41.67 14.2214022,41.8290349 14.0635311,41.9039101 L13.1530364,42.3357903 C12.9474891,42.4332779 12.8462897,42.6692845 12.9176541,42.8850749 L15.6960648,51.2965557 C15.8933662,51.8943594 15.8374442,52.5288519 15.5383437,53.0827787 C15.2392433,53.6368552 14.7393932,54.0321963 14.1311473,54.1960233 C13.9323467,54.2494842 13.7327965,54.274792 13.5362448,54.2750915"></path><polyline points="9.90311132 45.8427953 9.66757909 44.9696007 13.0815221 44.0507321 13.3170544 44.9239268 9.90311132 45.8427953"></polyline><polyline points="10.4287485 47.4048419 10.1930663 46.5316473 13.6070094 45.6127787 13.8426915 46.4859734 10.4287485 47.4048419"></polyline><path d="M99.4264996,55.1434942 L77.917804,55.1434942 L77.917804,54.2390017 L98.973726,54.2390017 L98.973726,30.2188852 L71.1143557,30.2188852 L71.1143557,29.3143927 L99.4264996,29.3143927 C99.6768744,29.3143927 99.8792732,29.5168552 99.8792732,29.7666389 L99.8792732,54.6912479 C99.8792732,54.9410316 99.6768744,55.1434942 99.4264996,55.1434942"></path><path d="M82.4450903,45.7857404 C81.8701278,45.7857404 81.2951653,45.5730948 80.8468894,45.1475042 L70.7971143,35.28599 L71.4314472,34.6407155 L81.4761248,44.4972879 C82.0175041,45.0110815 82.8731263,45.0103328 83.4194532,44.4921963 L99.1221518,29.5834942 L99.74584,30.2389517 L84.0432912,45.1475042 C83.5951653,45.5730948 83.0202028,45.7857404 82.4450903,45.7857404"></path><polyline points="71.9924666 48.9026456 71.3389434 48.2763894 77.5911173 41.765391 78.2446406 42.3916473 71.9924666 48.9026456"></polyline><polyline points="99.1146556 54.8454908 86.6527365 42.3985358 87.2929164 41.7591015 99.7548355 54.2059068 99.1146556 54.8454908"></polyline><path d="M88.3146556,65.7982363 C84.3642807,65.7982363 81.1504876,69.0084359 81.1504876,72.9542097 C81.1504876,76.8996839 84.3642807,80.1098835 88.3146556,80.1098835 C92.2648804,80.1098835 95.4786735,76.8996839 95.4786735,72.9542097 C95.4786735,69.0084359 92.2648804,65.7982363 88.3146556,65.7982363 Z M88.3146556,81.014376 C83.8648804,81.014376 80.2449404,77.3985025 80.2449404,72.9542097 C80.2449404,68.5096173 83.8648804,64.8937438 88.3146556,64.8937438 C92.7642807,64.8937438 96.3843707,68.5096173 96.3843707,72.9542097 C96.3843707,77.3985025 92.7642807,81.014376 88.3146556,81.014376 L88.3146556,81.014376 Z"></path><path d="M28.4028115,11.3597671 C28.9770244,16.4237271 33.5786735,20.0767388 38.6582837,19.5015474 C41.1196031,19.2233111 43.3253002,18.0061398 44.8692283,16.0746589 C46.4125566,14.1433278 47.1095581,11.7286023 46.8314472,9.27569052 C46.2572343,4.21202995 41.6552852,0.558718802 36.5761248,1.13391015 C31.4954651,1.708802 27.8288984,6.29595674 28.4028115,11.3597671 Z M37.6053602,20.4656406 C32.5019119,20.4656406 28.0893182,16.634426 27.5031113,11.4614476 C26.8729764,5.90211314 30.8975641,0.866006656 36.4744756,0.235108153 C42.0462897,-0.396539101 47.1007125,3.61437604 47.7312972,9.17415973 C48.0365446,11.8672712 47.2714771,14.5184526 45.5768744,16.6387687 C43.8824217,18.7589351 41.4614322,20.0950083 38.7600828,20.4003494 C38.3725266,20.4442263 37.9866196,20.4656406 37.6053602,20.4656406 L37.6053602,20.4656406 Z"></path><path d="M36.5851203,10.7321631 C36.6016121,11.323228 36.6983137,11.7609484 36.8752253,12.0442762 C37.0519869,12.327604 37.2992133,12.4518968 37.6166046,12.4159567 C37.829798,12.3918469 38.0151053,12.2747421 38.1729764,12.0658403 C38.3305476,11.8557404 38.4483887,11.5688186 38.5264996,11.2040266 L38.4492882,8.09116473 C38.3091083,8.07049917 38.1665296,8.06825291 38.0214022,8.08472546 C37.5134561,8.14207987 37.1446406,8.38302829 36.9148055,8.80846922 C36.6852702,9.23391015 36.5752253,9.87484193 36.5851203,10.7321631 Z M43.299663,9.18419301 C43.3881188,10.3691681 43.199813,11.3428453 42.7350454,12.1050749 C42.2702777,12.8673045 41.5843707,13.2997837 40.6773242,13.402213 C40.3055101,13.4442928 39.9675791,13.4013145 39.663681,13.2731281 C39.359783,13.1449418 39.111807,12.9429285 38.9196031,12.6670882 C38.5428415,13.31401 37.9803227,13.6798502 37.2320469,13.7644592 C36.7966645,13.8135774 36.4013122,13.7289684 36.04584,13.5104825 C35.6902178,13.2919967 35.4098579,12.9562562 35.2047605,12.5032612 C34.9995131,12.050416 34.8924666,11.5222463 34.8839209,10.9187521 C34.891717,9.7731614 35.1539359,8.82329451 35.6701278,8.06900166 C36.1863197,7.31470882 36.8753752,6.88881864 37.7369944,6.79133111 C38.403711,6.71600666 38.9947155,6.80480865 39.5103077,7.05788686 L39.9711773,7.29419301 L40.0753752,11.3137937 C40.0695281,11.9509817 40.3229014,12.2404493 40.8353452,12.1824958 C41.2208025,12.1389185 41.5161548,11.8570882 41.7212523,11.3371547 C41.9264996,10.8172213 41.9993632,10.1737438 41.9399929,9.40657238 C41.8459899,7.88795341 41.399663,6.75718802 40.6011623,6.01412646 C39.8028115,5.27121464 38.7232013,4.97665557 37.3626316,5.13044925 C36.4965146,5.22838602 35.751687,5.53582363 35.1279989,6.05276206 C34.5046106,6.5697005 34.0423917,7.2537604 33.7414921,8.10509151 C33.4407425,8.95642263 33.323801,9.90014975 33.3908175,10.9365724 C33.4974142,12.5269218 33.9521368,13.7014143 34.7546855,14.4600499 C35.5572343,15.2186855 36.6660798,15.5178869 38.0809224,15.3579534 C38.4618819,15.3148253 38.8605326,15.2251248 39.2768744,15.0887022 C39.6932163,14.9524293 40.0284487,14.8103161 40.2827215,14.6625125 L40.6620319,15.759584 C40.4059599,15.9717804 40.0494382,16.1597171 39.5926166,16.3236938 C39.1356451,16.487371 38.6714771,16.5959401 38.199813,16.649401 C36.961732,16.7894176 35.8884187,16.6714143 34.9800229,16.2956905 C34.0716271,15.9201165 33.3561848,15.2923627 32.8339959,14.4128785 C32.311657,13.5332446 31.9983137,12.4309318 31.8941158,11.1057903 C31.8071593,9.85193012 31.9695281,8.70154742 32.3813722,7.65449251 C32.7932163,6.60758735 33.4232013,5.76254576 34.2713272,5.11951747 C35.1193032,4.47648918 36.1148055,4.09028286 37.257684,3.96104825 C38.4005626,3.83181364 39.413756,3.95655574 40.2972642,4.33497504 C41.1807725,4.71354409 41.8812223,5.32227953 42.3990633,6.16118136 C42.9166046,7.00008319 43.2169044,8.00775374 43.299663,9.18419301 L43.299663,9.18419301 Z"></path><path d="M0.959782986,58.8069884 C1.24419078,60.1451581 2.56577999,61.0035275 3.9053602,60.7193012 C5.24509033,60.4353744 6.10401087,59.1154742 5.81990293,57.7773045 C5.53549513,56.4388353 4.21390592,55.5810649 2.87432572,55.8649917 C1.53459558,56.1489185 0.675824965,57.4688186 0.959782986,58.8069884 Z M3.38931822,61.6781531 C1.82290143,61.6781531 0.411956899,60.5851248 0.07417579,58.9947754 C-0.313680282,57.1687188 0.858133811,55.3676705 2.68646964,54.980416 C4.51465555,54.5919634 6.31750413,55.7636106 6.70551012,57.5896672 C7.09321627,59.415574 5.9215521,61.2166223 4.09321627,61.6040266 C3.85723426,61.654193 3.62140218,61.6781531 3.38931822,61.6781531 L3.38931822,61.6781531 Z"></path><path d="M87.4750753,73.1860233 C87.435795,73.6483028 87.4723767,73.9982696 87.5849704,74.2347255 C87.6975641,74.4713311 87.8789734,74.5900832 88.1291983,74.5900832 C88.2971143,74.5900832 88.451687,74.5150582 88.5929164,74.3660566 C88.7341458,74.2160067 88.8512373,74.0027621 88.9441908,73.7251248 L89.1585836,71.2910815 C89.0513872,71.262629 88.9405926,71.2482529 88.8261998,71.2482529 C88.4258999,71.2482529 88.1175041,71.4035441 87.9013122,71.715025 C87.6851203,72.0266556 87.5429914,72.5166389 87.4750753,73.1860233 Z M92.8366945,72.5711481 C92.8010124,73.5030449 92.5686286,74.2456572 92.139693,74.798985 C91.7107575,75.3523128 91.1387935,75.6290516 90.4239509,75.6290516 C90.1308475,75.6290516 89.871777,75.5657072 89.6465896,75.4388686 C89.4214022,75.3121797 89.2461398,75.1327787 89.1211023,74.9008153 C88.7707275,75.3719301 88.3007125,75.6076373 87.7109074,75.6076373 C87.367729,75.6076373 87.0675791,75.5067055 86.8101578,75.3051414 C86.5528864,75.1032779 86.3642807,74.8168053 86.2444906,74.445574 C86.1248505,74.074193 86.0881188,73.6529451 86.1345956,73.1815308 C86.2419419,72.2890183 86.5296481,71.5714143 86.9978639,71.0287188 C87.4660798,70.4860233 88.039843,70.2146755 88.7190034,70.2146755 C89.2443407,70.2146755 89.6966645,70.3361231 90.0753752,70.5788686 L90.4131563,70.8037937 L90.139843,73.9473544 C90.0789734,74.443777 90.2506376,74.6917637 90.6545356,74.6917637 C90.9582837,74.6917637 91.2130064,74.4981364 91.4185536,74.1107321 C91.6241008,73.7233278 91.7375941,73.2281032 91.7590334,72.624609 C91.819753,71.4321464 91.5722268,70.5110316 91.0164547,69.8612646 C90.4605326,69.2113478 89.6465896,68.8865391 88.5741758,68.8865391 C87.8915671,68.8865391 87.2846705,69.0606988 86.7539359,69.4087188 C86.2230514,69.7568885 85.8031113,70.2495674 85.493816,70.8867554 C85.1846705,71.5240932 85.0104576,72.2496339 84.9711773,73.063827 C84.9139059,74.3133444 85.1641308,75.2692013 85.721702,75.9315474 C86.2794232,76.5938935 87.115855,76.9249917 88.2309974,76.9249917 C88.5312972,76.9249917 88.8494382,76.8902496 89.1854202,76.8206156 C89.5214022,76.7509817 89.7948654,76.669817 90.00581,76.5769717 L90.2041608,77.4658902 C89.9861698,77.6087521 89.6921668,77.7239101 89.3221518,77.8113644 C88.9521368,77.8988186 88.5813722,77.9425458 88.2095581,77.9425458 C87.233696,77.9425458 86.4089584,77.7561065 85.7351953,77.3829285 C85.0614322,77.0099002 84.5600828,76.4573211 84.2312972,75.7253411 C83.9023617,74.9935108 83.7558849,74.1063894 83.7915671,73.063827 C83.8344457,72.0784692 84.0623317,71.1955408 84.4752253,70.4154908 C84.8879689,69.6352912 85.4527365,69.0319468 86.1695281,68.6053078 C86.8861698,68.1788186 87.6948654,67.9654243 88.5956151,67.9654243 C89.4963647,67.9654243 90.2738759,68.1520133 90.927849,68.5250416 C91.5821218,68.8982196 92.0735761,69.4346256 92.4023617,70.1342596 C92.7312972,70.8340433 92.8761248,71.6464393 92.8366945,72.5711481 L92.8366945,72.5711481 Z"></path></g><g transform="translate(26.028149, 27.836506)"><path d="M51.3689655,61.7981032 L27.6848576,45.187787 C26.7164918,44.5085191 25.4154423,44.5094176 24.4481259,45.1904825 L0.847076462,61.7976539 L0.195202399,60.8732446 L23.7962519,44.2660732 C25.1533733,43.3114143 26.9773613,43.3100666 28.3352324,44.262629 L52.0194903,60.8727953 L51.3689655,61.7981032" fill="#AE152D" class="primary-fill-color"></path><path d="M51.8688156,62.1034443 L0.565967016,62.1034443 C0.253373313,62.1034443 -8.5222517e-15,61.8505158 -8.5222517e-15,61.5382862 L-8.5222517e-15,26.4176206 C-8.5222517e-15,26.2334276 0.0898050975,26.0609151 0.240629685,25.9550416 L7.78050975,20.6627121 L8.43133433,21.58802 L1.13193403,26.7112812 L1.13193403,60.9728286 L51.3029985,60.9728286 L51.3029985,26.7117304 L44.4563718,21.9222629 L45.1058471,20.9962063 L52.1937031,25.9545923 C52.3449775,26.0603161 52.4349325,26.2332779 52.4349325,26.4176206 L52.4349325,61.5382862 C52.4349325,61.8505158 52.1815592,62.1034443 51.8688156,62.1034443" fill="#AE152D" class="primary-fill-color"></path><polyline fill="#AE152D" class="primary-fill-color" points="31.538081 47.1243594 30.7413793 46.3215474 51.295952 25.9652246 52.0926537 26.7680366 31.538081 47.1243594"></polyline><polyline fill="#AE152D" class="primary-fill-color" points="20.4215892 46.8709817 0.122788606 26.7680366 0.919490255 25.9652246 21.2182909 46.06802 20.4215892 46.8709817"></polyline><path d="M8.92488756,34.2950915 L7.79295352,34.2950915 L7.79295352,0.56530782 C7.79295352,0.253078203 8.04632684,-8.51232562e-15 8.35892054,-8.51232562e-15 L44.7254873,-8.51232562e-15 C45.0382309,-8.51232562e-15 45.2914543,0.253078203 45.2914543,0.56530782 L45.2914543,33.6463727 L44.1596702,33.6463727 L44.1596702,1.13061564 L8.92488756,1.13061564 L8.92488756,34.2950915" fill="#AE152D" class="primary-fill-color"></path><polygon fill="#ABABAB" points="12.9046477 12.8065058 39.5301349 12.8065058 39.5301349 11.6758902 12.9046477 11.6758902"></polygon><polygon fill="#ABABAB" points="31.7374813 17.3470882 34.9845577 17.3470882 34.9845577 16.2164725 31.7374813 16.2164725"></polygon><polygon fill="#ABABAB" points="12.9046477 17.3470882 28.4904048 17.3470882 28.4904048 16.2164725 12.9046477 16.2164725"></polygon><polygon fill="#ABABAB" points="23.9446777 21.887371 39.5301349 21.887371 39.5301349 20.7567554 23.9446777 20.7567554"></polygon><polygon fill="#ABABAB" points="12.9046477 21.887371 19.3988006 21.887371 19.3988006 20.7567554 12.9046477 20.7567554"></polygon><polygon fill="#ABABAB" points="12.9046477 30.9685358 27.8409295 30.9685358 27.8409295 29.8379201 12.9046477 29.8379201"></polygon><polygon fill="#ABABAB" points="17.4506747 35.5089684 33.6857571 35.5089684 33.6857571 34.3785025 17.4506747 34.3785025"></polygon><polygon fill="#ABABAB" points="33.6857571 30.9685358 35.6338831 30.9685358 35.6338831 29.8379201 33.6857571 29.8379201"></polygon><polygon fill="#ABABAB" points="37.582009 30.9685358 39.5301349 30.9685358 39.5301349 29.8379201 37.582009 29.8379201"></polygon><polygon fill="#ABABAB" points="29.7892054 30.9685358 31.7374813 30.9685358 31.7374813 29.8379201 29.7892054 29.8379201"></polygon><polygon fill="#ABABAB" points="19.3988006 8.26592346 21.3469265 8.26592346 21.3469265 7.13530782 19.3988006 7.13530782"></polygon><polygon fill="#ABABAB" points="15.5023988 8.26592346 17.4506747 8.26592346 17.4506747 7.13530782 15.5023988 7.13530782"></polygon><polygon fill="#ABABAB" points="27.1916042 8.26592346 29.1397301 8.26592346 29.1397301 7.13530782 27.1916042 7.13530782"></polygon><polygon fill="#ABABAB" points="23.2950525 8.26592346 25.2434783 8.26592346 25.2434783 7.13530782 23.2950525 7.13530782"></polygon><polygon fill="#ABABAB" points="34.9845577 8.26592346 36.9326837 8.26592346 36.9326837 7.13530782 34.9845577 7.13530782"></polygon><polygon fill="#ABABAB" points="31.088006 8.26592346 33.0361319 8.26592346 33.0361319 7.13530782 31.088006 7.13530782"></polygon></g><g transform="translate(8.594825, 53.149724)"><polyline fill="#EEEEEE" points="0.958811511 13.0362158 43.1289764 0.342322252 34.8105356 31.8465153 23.2570124 25.4994936 15.2851983 30.4617732 11.8190814 19.152472 0.958811511 13.0362158"></polyline><path d="M34.6487665,32.4040361 C34.5556631,32.4040361 34.4628595,32.3811242 34.3787515,32.3356001 L17.2045386,23.0289113 L17.7444187,22.0351675 L34.2907455,31.0016234 L42.3832493,1.40045869 L2.02447868,13.5270976 L12.0427695,18.9967316 L11.499741,19.9886783 L0.29449367,13.8707748 C0.0941938202,13.761457 -0.0204988334,13.5429712 0.00303939745,13.3160993 C0.0267275534,13.0896767 0.184448693,12.8991941 0.403039397,12.8336035 L43.0354232,0.0241026185 C43.2316751,-0.0353482967 43.4462178,0.0170643489 43.5934442,0.160525247 C43.7406706,0.303836396 43.7985416,0.516032735 43.7444187,0.714152535 L35.1947935,31.9875802 C35.1492163,32.1542524 35.029876,32.290675 34.8709554,32.3586617 C34.799891,32.389061 34.7240289,32.4040361 34.6487665,32.4040361" fill="#AE152D" class="primary-fill-color"></path><path d="M15.469906,31.2500594 C15.405888,31.2500594 15.3415701,31.2392773 15.279801,31.2171143 C15.1153333,31.1587116 14.9871473,31.0275302 14.9324247,30.8617565 L11.2355731,19.6680627 C11.1529644,19.4175302 11.2546136,19.1431875 11.4808505,19.0069146 L42.9060379,0.0813072774 L43.4905956,1.04944372 L12.451915,19.7421891 L15.7796511,29.8178464 L22.7914952,25.3609745 L23.3989914,26.3148846 L15.7736541,31.1617066 C15.6820499,31.2201093 15.5762028,31.2500594 15.469906,31.2500594" fill="#AE152D" class="primary-fill-color"></path><path d="M16.0175821,30.8271642 L14.9223797,30.5423389 L17.1177321,22.1181292 C17.1477171,22.0023722 17.213834,21.8993439 17.3064877,21.8232707 L42.3848985,1.28215586 L43.1025896,2.15654854 L18.1667575,22.5810078 L16.0175821,30.8271642" fill="#AE152D" class="primary-fill-color"></path><polyline fill="#AE152D" class="primary-fill-color" points="2.95971106 27.1160494 2.331825 26.1753173 8.80169007 21.8671475 9.42957613 22.8077299 2.95971106 27.1160494"></polyline><polyline fill="#AE152D" class="primary-fill-color" points="4.05491346 33.8745851 3.39299442 32.9573638 10.0169824 28.1875136 10.6789015 29.1047349 4.05491346 33.8745851"></polyline></g></g></svg>