<svg version="1.2" xmlns="http://www.w3.org/2000/svg" viewBox="0 0 500 500" width="500" height="500">
	<style>
		.s0 { fill: #000000 } 
		.s1 { fill: #808080 } 
		.s2 { fill: #ffffff } 
		.s3 { fill: #4d4d4d } 
		.s4 { fill: #a6a6a6 } 
	</style>
	<g id="Background">
		<path id="Path 0" class="s0" d="m0 250v250h500v-500h-500z"/>
		<path id="Path 1" class="s1" d="m421.02 127.75c0 0.41 0.34 1.25 0.75 1.87 0.4 0.61 1.74 1.4 2.98 1.75l2.25 0.63c-3.49-3.91-4.84-5.04-5.25-5.02-0.41 0.01-0.74 0.36-0.73 0.77zm-15.43 35.78c0.7 2.04 1.3 3.88 1.34 4.09 0.04 0.21 0.97 0.38 2.07 0.38 1.1 0 2.01-0.56 2.03-1.25 0.01-0.69-1-2.2-2.25-3.35-1.26-1.16-2.77-2.44-3.37-2.84-0.71-0.49-0.64 0.54 0.18 2.97zm20.26 81.86c-0.53 1.71-0.71 2.77-0.4 2.36 0.3-0.41 3.6 0.94 7.33 3l6.79 3.75c0.41-5.2-0.28-5.86-6.17-8.86l-6.6-3.36zm-343.85 49.61v6l11.5-0.5 0.37-11.5h-11.87zm250.34 85.5c0.01 4.4 0.18 5.98 0.39 3.5 0.21-2.47 0.21-6.07 0-8-0.22-1.92-0.39 0.1-0.39 4.5zm18.99 1c0 3.85 0.18 5.2 0.4 3 0.21-2.2 0.21-5.35-0.01-7-0.22-1.65-0.39 0.15-0.39 4z"/>
		<path id="Path 2" class="s2" d="m345.5 96.63c-2.2 0.18-7.15 0.83-11 1.44-3.85 0.61-9.02 1.68-11.5 2.39-2.48 0.71-7.43 2.52-11 4.02-3.57 1.5-9.2 4.64-12.5 6.97-3.3 2.34-9.05 7.58-12.78 11.65-4.74 5.18-8.27 10.4-11.78 17.4-2.89 5.78-6.09 14.22-7.57 20-2.11 8.2-2.67 13.15-3.1 27.5-0.33 11.13-0.08 20.78 0.69 26.5 0.67 4.95 2.32 12.82 3.68 17.5 1.36 4.68 4.69 12.55 7.42 17.5 3.09 5.62 7.86 12.14 12.7 17.36 4.26 4.6 8.69 8.87 9.85 9.5 1.16 0.63 6.33 3.23 11.5 5.79 5.16 2.56 12.32 5.37 15.89 6.24 3.57 0.87 11.45 2.08 17.5 2.68 7.84 0.78 13.73 0.79 20.5 0.03 5.23-0.58 12.2-1.76 15.5-2.61 3.3-0.85 9.15-3.05 13-4.87 3.85-1.82 9.48-5.34 12.5-7.81 3.02-2.48 7.39-6.93 9.7-9.9 2.31-2.98 5.69-8.44 7.5-12.15 1.82-3.71 3.53-6.56 3.8-6.34 0.27 0.23 0.55-0.56 0.61-1.75 0.06-1.19 0.4-3.63 0.75-5.42l0.64-3.25c-20.54-10.46-27.31-13.5-28.3-13.5-1.34 0-2.38 1.71-4 6.57-1.21 3.61-3.55 8.51-5.2 10.88-1.65 2.37-4.8 5.91-7 7.87-2.2 1.95-6.25 4.58-9 5.85-2.75 1.26-7.48 2.8-10.5 3.43-3.11 0.65-9.62 0.93-15 0.65-6.5-0.34-11.39-1.22-15.5-2.79-3.3-1.26-7.19-3.46-8.65-4.88-1.45-1.42-3.25-2.73-4-2.91-0.74-0.19-1.96-0.86-2.71-1.5-0.75-0.65-3.14-3.87-5.31-7.17-2.17-3.3-5.05-9.49-6.39-13.75-1.42-4.52-2.92-12.85-3.59-20-0.87-9.23-0.87-15.09 0-23.75 0.63-6.32 1.98-14.43 3-18 1.03-3.57 3.01-8.75 4.42-11.5 1.4-2.75 4.09-6.8 5.97-9 1.88-2.2 5.63-5.48 8.34-7.3 2.71-1.81 8.07-4.24 11.92-5.39 5.87-1.75 8.95-2.03 19.05-1.7 11.49 0.37 12.38 0.56 19.5 4.08 4.1 2.03 9.25 5.52 11.45 7.76 2.43 2.48 3.41 4.07 2.5 4.06-1.08-0.02-0.94 0.36 0.5 1.34 1.1 0.76 2.9 3.22 4 5.48 1.5 3.07 2.67 4.17 4.64 4.39 1.46 0.15 2.51 0.06 2.35-0.22-0.17-0.28 5.51-3.99 12.6-8.25 7.1-4.26 12.91-8.2 12.91-8.75 0-0.55-1.12-3.25-2.5-6-1.37-2.75-2.27-5.22-2-5.5 0.27-0.28-3.21-4.29-7.75-8.93-6.91-7.06-9.63-9.06-16.75-12.35-4.68-2.16-10.75-4.65-13.5-5.53-2.75-0.88-7.7-2.03-11-2.56-3.3-0.53-9.82-1.16-14.5-1.4-4.68-0.23-10.3-0.28-12.5-0.1zm-275.43 97.3l-0.07 95.07c59.29-0.01 80.55-0.48 85.5-1.04 4.95-0.56 12.6-1.96 17-3.1 4.4-1.15 11.6-3.78 16-5.86 4.4-2.07 10.73-5.96 14.06-8.63 3.33-2.68 7.66-6.67 9.62-8.87 1.96-2.2 5.15-6.48 7.08-9.5 1.94-3.02 4.53-7.97 5.75-11 1.22-3.02 3.01-8.2 3.97-11.5 0.97-3.3 2.32-10.05 3.01-15 0.83-5.89 1.08-15.04 0.73-26.5-0.43-14.25-0.99-19.27-3.01-27-1.37-5.22-3.66-12.09-5.1-15.25-1.44-3.16-2.28-6.31-1.87-7q0.73-1.24-0.5-0.5c-0.82 0.49-1.72-0.36-2.65-2.5-0.77-1.79-4.96-6.85-9.3-11.25-4.33-4.4-10.79-9.7-14.34-11.77-3.55-2.07-9.94-5.11-14.2-6.75-4.26-1.64-10.79-3.72-14.5-4.62-5.59-1.36-14.5-1.72-51.93-2.07l-45.18-0.43zm118.44 161.36c-0.93 0.66-1.54 2.06-1.35 3.1 0.19 1.04 1.09 2.39 2.01 3 1.26 0.84 2.05 0.75 3.29-0.39 0.9-0.83 1.64-2.27 1.64-3.22 0.01-0.94-0.86-2.16-1.94-2.71-1.37-0.69-2.47-0.63-3.65 0.22zm-14.75 15.46c0.17 10.91 0.63 16.15 1.5 17.04 0.68 0.71 2.7 1.28 4.49 1.25 2.79-0.04 3.25-0.4 3.25-2.54 0-1.56-0.56-2.5-1.5-2.5-1.26 0-1.5-2.28-1.5-14.5v-14.5h-6.5zm90.27-13c-1.92 0.96-4.52 3.32-5.78 5.25-1.81 2.76-2.29 4.86-2.27 10 0.03 4.7 0.59 7.4 2.03 9.75 1.1 1.79 3.46 3.98 5.25 4.87 1.83 0.91 5.43 1.57 8.25 1.51 2.75-0.06 6.01-0.79 7.25-1.62 1.24-0.83 2.9-2.75 3.7-4.26 1.38-2.62 1.32-2.81-1.25-4.08-1.49-0.74-2.81-0.96-2.93-0.5-0.13 0.45-0.81 1.62-1.5 2.6-0.7 0.97-2.85 2.03-4.77 2.34-2.63 0.43-4.19 0.05-6.25-1.52-1.96-1.49-2.93-3.32-3.37-6.34-0.34-2.34-0.11-5.94 0.5-8 0.62-2.06 2.02-4.2 3.12-4.75 1.1-0.55 3.46-0.99 5.25-0.98 1.94 0.01 4.05 0.85 5.25 2.07 1.64 1.69 2.41 1.86 4.25 0.98 1.24-0.59 2.25-1.52 2.25-2.07 0-0.55-1.01-1.95-2.25-3.1-1.24-1.15-3.26-2.5-4.5-3-1.24-0.5-3.71-0.9-5.5-0.9-1.79 0-4.82 0.79-6.73 1.75zm-198.92 15.15l-0.1 16.1c12.44 0.04 16.98-0.55 19.25-1.48 2.06-0.84 4.65-2.76 5.76-4.27 1.1-1.51 2.26-4.55 2.58-6.75 0.32-2.2 0.25-5.8-0.16-8-0.45-2.39-2.07-5.41-4.01-7.5-3.25-3.49-3.3-3.5-13.25-3.85l-9.98-0.34zm137.41-13.24c-0.46 0.37-0.76 1.72-0.67 3 0.12 1.72-0.36 2.33-1.83 2.33q-2 0-2 2 0 2 2 2c1.82 0 1.99 0.67 1.99 7.75-0.01 5.26 0.48 8.48 1.5 10 1.17 1.75 2.45 2.25 5.76 2.24 2.33-0.01 4.75-0.35 5.36-0.75 0.64-0.42 0.81-1.59 0.4-2.74-0.49-1.37-1.62-2-3.61-2h-2.9l-0.5-14.5c6.33 0 7-0.38 7-2 0-1.62-0.67-2-3.5-2-3.23 0-3.5-0.23-3.5-3 0-2.47-0.41-3-2.34-3-1.28 0-2.71 0.3-3.16 0.67zm225 0c-0.46 0.37-0.76 1.72-0.67 3 0.12 1.72-0.36 2.33-1.83 2.33q-2 0-2 2 0 2 2 2c1.82 0 1.99 0.67 1.99 7.75-0.01 5.26 0.48 8.48 1.5 10 1.17 1.75 2.45 2.25 5.76 2.24 2.33-0.01 4.75-0.35 5.36-0.75 0.64-0.42 0.81-1.59 0.4-2.74-0.49-1.37-1.62-2-3.61-2h-2.9l-0.5-14.5c6.33 0 7-0.38 7-2 0-1.62-0.67-2-3.5-2-3.23 0-3.5-0.23-3.5-3 0-2.47-0.41-3-2.34-3-1.28 0-2.71 0.3-3.16 0.67zm-323.41 5.6c-1.32 0.68-3.35 2.5-4.5 4.06-1.44 1.94-2.09 4.29-2.07 7.5 0.01 2.67 0.76 5.85 1.75 7.42 0.95 1.52 2.96 3.25 4.48 3.85 1.51 0.6 4.55 1.06 6.75 1.01 2.2-0.04 5.01-0.76 6.25-1.59 1.23-0.83 2.25-2.19 2.25-3.02 0-0.82-0.9-1.95-2-2.5-1.51-0.75-2.32-0.61-3.25 0.55-0.69 0.85-2.49 1.52-4 1.5-1.52-0.03-3.43-0.72-4.25-1.55-0.83-0.82-1.5-2.17-1.5-3 0-1.2 1.55-1.5 8-1.5h8c0-4.65-0.57-7.18-1.25-8.62-0.69-1.44-2.49-3.24-4-4-1.52-0.76-3.99-1.37-5.5-1.36-1.52 0.01-3.84 0.57-5.16 1.25zm24.91-0.56c-0.83 0.31-2.31 1.28-3.29 2.17-0.98 0.9-1.79 2.97-1.79 4.62-0.01 1.65 0.74 3.68 1.66 4.5 0.92 0.83 3.75 2.18 6.29 3 2.78 0.9 4.63 2.1 4.63 3q-0.01 1.5-3.5 1.78c-2.15 0.17-4.09-0.32-5-1.26-1.35-1.38-1.71-1.32-3.5 0.57l-2 2.1c4.28 3.34 6.52 3.89 10.29 3.86 4.3-0.04 5.76-0.52 7.75-2.55 1.35-1.37 2.46-3.51 2.47-4.75 0.01-1.23-0.55-3.07-1.25-4.07-0.69-1-3.51-2.4-6.26-3.11-3.21-0.82-5.09-1.87-5.25-2.93-0.14-0.9 0.53-1.93 1.5-2.3 0.96-0.37 2.98-0.14 4.5 0.5 2.38 1.01 2.95 0.89 4.25-0.84 1.39-1.85 1.28-2.1-1.5-3.5-1.65-0.82-4.24-1.46-5.75-1.42-1.52 0.05-3.43 0.33-4.25 0.63zm21.11 1.28c-1.86 1.09-3.33 2.33-3.26 2.75 0.06 0.42 0.68 1.31 1.38 1.97 0.99 0.94 1.86 0.89 4.02-0.25 1.51-0.8 3.76-1.34 5-1.21 1.47 0.17 2.25 0.92 2.25 2.19 0 1.48-1.17 2.23-5 3.21-2.91 0.74-5.75 2.23-6.8 3.56-0.98 1.26-1.77 3.19-1.75 4.29 0.01 1.1 0.71 3.02 1.54 4.25 1.16 1.73 2.49 2.26 5.76 2.3 2.6 0.03 4.83-0.56 5.75-1.53 1.33-1.39 1.66-1.4 3-0.07 0.82 0.83 2.73 1.51 4.25 1.53 2.27 0.02 2.75-0.41 2.75-2.48 0-1.55-0.57-2.5-1.5-2.5-1.2 0-1.5-1.5-1.5-7.5 0-6.66-0.28-7.77-2.5-10-1.78-1.78-3.58-2.5-6.25-2.49-2.07 0-5.28 0.89-7.14 1.98zm74.39-0.62c-1.79 0.76-3.71 2.76-4.75 4.96-0.97 2.02-1.75 4.8-1.75 6.17 0 1.38 0.67 4.08 1.5 6 0.82 1.93 2.51 4.18 3.75 5 1.23 0.82 3.82 1.58 5.75 1.68 1.92 0.11 4.97-0.45 6.78-1.24 1.81-0.79 3.5-2.11 3.75-2.94 0.26-0.82-0.32-2.02-1.28-2.67-1.37-0.92-2.08-0.87-3.25 0.22-0.83 0.77-2.85 1.42-4.5 1.45-1.65 0.02-3.57-0.53-4.27-1.23-0.7-0.7-1.26-2.05-1.25-3.02 0.01-1.52 1.07-1.75 8.02-1.75 7.62 0 8-0.1 8.01-2.25 0.01-1.23-0.44-3.71-1-5.5-0.63-2.02-2.15-3.81-4.01-4.75-1.65-0.82-4.24-1.48-5.75-1.46-1.52 0.02-4.1 0.62-5.75 1.33zm68 0.45c-1.65 0.99-3.64 3.35-4.41 5.24-0.89 2.17-1.2 5.11-0.84 7.94 0.43 3.34 1.37 5.21 3.66 7.25 2.49 2.23 4.05 2.75 8.09 2.75 4.04 0 5.59-0.52 8.08-2.75 2.32-2.06 3.22-3.87 3.61-7.25 0.34-2.96-0.03-5.78-1.09-8.25-1.1-2.58-2.69-4.21-5.1-5.25-1.93-0.82-4.74-1.49-6.25-1.49-1.52 0-4.1 0.81-5.75 1.81zm34.03-0.55c-1.09 0.67-2.32 1.67-2.74 2.22-0.45 0.6-0.77 0.29-0.78-0.74-0.01-1.27-0.83-1.75-3.01-1.75h-3v24h6c0-14.66 0.33-16.33 2-18 1.1-1.1 2.56-1.99 3.25-1.98 0.68 0.01 1.92 0.44 2.75 0.96 1.11 0.71 1.56 3.25 1.75 9.99l0.25 9.03h6c-0.2-14.33-0.72-19.4-1.29-20.5-0.57-1.1-1.76-2.54-2.63-3.21-0.87-0.67-2.71-1.22-4.08-1.22-1.38 0-3.39 0.54-4.47 1.2zm27.72 0.17c-1.37 0.95-2.45 1.17-2.75 0.56-0.28-0.55-1.85-1-3.5-1h-3v24h6c-0.03-9.68 0.41-13.85 0.95-15.5 0.58-1.73 1.96-3.29 3.27-3.69 1.25-0.38 3.06-0.26 4.03 0.25 1.46 0.79 1.75 2.4 1.75 9.94v9h6c0.07-17.65-0.26-19.93-1.71-21.78-1.01-1.28-3.32-2.51-5.29-2.81-2.3-0.35-4.28 0.01-5.75 1.03zm24 0.51c-1.79 1.13-3.7 2.95-4.25 4.05-0.55 1.1-1 4.03-1 6.5 0 2.48 0.67 5.85 1.5 7.5 0.82 1.65 2.4 3.45 3.5 4 1.1 0.55 4.25 1 7 1 3.75 0 5.64-0.56 7.58-2.25l2.58-2.25c-4.05-3.89-4.26-3.91-5.91-2.27-0.97 0.95-2.88 1.75-4.25 1.78-1.38 0.03-3.28-0.74-4.23-1.72-0.95-0.98-1.74-2.35-1.75-3.04-0.02-0.89 2.23-1.25 7.98-1.25h8c0-6.71-0.73-8.83-2.25-10.58-1.61-1.85-3.54-2.72-6.75-3.06-3.41-0.35-5.3 0.04-7.75 1.59zm26.94-0.17c-2.01 1.05-3.79 3.03-4.57 5.08-0.69 1.85-1.07 5.45-0.82 8 0.33 3.46 1.18 5.35 3.32 7.39 2.29 2.2 3.84 2.76 7.63 2.79 3.25 0.02 5.61-0.61 7.5-2 1.51-1.12 2.75-2.6 2.75-3.29 0-0.68-0.9-1.81-2-2.5-1.71-1.06-2.23-0.95-3.5 0.75-0.85 1.13-2.71 2.02-4.25 2.05-1.52 0.02-3.43-0.72-4.25-1.65-0.93-1.04-1.41-3.26-1.27-5.79 0.17-2.88 0.91-4.64 2.5-5.89 1.39-1.1 3.04-1.55 4.27-1.15 1.1 0.35 2.45 1.25 3 2 0.83 1.14 1.36 1.12 3.25-0.1 1.55-1.02 2.01-1.97 1.5-3.11-0.42-0.9-1.99-2.25-3.5-3-1.52-0.74-3.99-1.35-5.5-1.33-1.52 0.01-4.24 0.8-6.06 1.75zm-218.19 11.22v12h7v-24h-7z"/>
		<path id="Path 3" class="s3" d="m432.3 138.63c0.16 0.48 1.51 3.46 3 6.62 1.48 3.16 2.59 5.92 2.45 6.13-0.14 0.2-5.65 3.65-12.25 7.65-6.6 4-12.23 7.44-12.5 7.65-0.27 0.21 1.07 3.28 3 6.84 1.92 3.55 4.17 6.47 5 6.47 0.82 0 7.35-3.61 14.5-8.03 7.15-4.43 13.32-8.36 13.7-8.75 0.39-0.39-0.62-3.41-2.24-6.71-1.62-3.3-5.09-8.67-7.7-11.93-2.62-3.25-5.32-6.12-6.01-6.37-0.69-0.25-1.12-0.06-0.95 0.43zm-78.3 2.47c-3.02 0.53-8.59 2.41-12.37 4.18-4.56 2.14-8.64 5.07-12.15 8.72-2.9 3.03-6.43 7.97-7.85 11-1.41 3.03-3.55 9.1-4.75 13.5-1.87 6.85-2.19 10.65-2.21 26.5-0.02 14.03 0.39 20.31 1.7 26 0.95 4.13 2.94 10.14 4.43 13.36 1.48 3.23 3.37 6.46 4.2 7.18 0.82 0.73 2.62 1.73 4 2.24l2.5 0.92c-2.56-8.68-3.86-15.02-4.55-19.7-0.79-5.46-1.04-13.86-0.68-23.5 0.45-12.24 1.05-16.66 3.23-24 1.47-4.95 3.72-10.8 5.01-13 1.29-2.2 4.11-6.03 6.26-8.5 2.16-2.47 6.58-5.94 9.82-7.69 3.25-1.76 9.06-3.94 12.91-4.86 5.28-1.26 9.4-1.52 16.75-1.06 5.36 0.34 10.65 1.06 11.75 1.61q2 1 2 0c0-0.55-0.62-2.24-1.37-3.75-0.75-1.51-2.44-3.48-3.75-4.38-1.31-0.9-4.86-2.34-7.88-3.2-3.02-0.87-9.1-1.79-13.5-2.06-4.4-0.27-10.48-0.05-13.5 0.49zm-120.05 11.65c2.14 4.26 4.64 10 5.54 12.75 0.91 2.75 2.33 8.15 3.17 12 0.84 3.85 1.76 13.97 2.06 22.5 0.32 9.13 0.08 18.99-0.58 24-0.62 4.68-2.06 12.1-3.19 16.5-1.14 4.4-3.81 11.6-5.94 16-2.13 4.4-6.06 10.7-8.74 14-2.68 3.3-7.54 8.17-10.82 10.82-3.27 2.66-10 6.8-14.95 9.22-4.95 2.41-12.83 5.3-17.5 6.42-4.68 1.11-14.35 2.5-21.5 3.08-7.15 0.59-25.38 0.93-40.5 0.76l-27.5-0.3 0.5 12.5c48.44-0.01 68.69-0.46 76.25-1.01 7.56-0.54 16.79-1.64 20.5-2.44 3.71-0.8 9.45-2.4 12.75-3.55 3.3-1.16 8.92-3.65 12.5-5.54 3.57-1.89 8.75-5.29 11.5-7.55 2.75-2.27 7.17-6.66 9.82-9.77 2.66-3.1 6.79-9.69 9.2-14.64 2.41-4.95 5.31-12.6 6.44-17 1.14-4.4 2.51-11.82 3.05-16.5 0.53-4.68 0.97-12.55 0.97-17.5 0-4.95-0.43-12.82-0.97-17.5-0.53-4.68-1.89-12.1-3.01-16.5-1.12-4.4-3.72-11.59-5.77-15.98-2.05-4.39-6.32-11.26-9.48-15.25-3.16-4-6.19-7.27-6.72-7.27-0.54 0 0.78 3.49 2.92 7.75zm204.31 101.94c0.36 0.44-1.44 5.08-4.02 10.31-3.75 7.61-6.27 11.12-12.71 17.67-6.53 6.64-9.62 8.92-16.53 12.22-4.68 2.23-11.2 4.8-14.5 5.7-3.69 1.01-11.77 1.84-21 2.15-9.3 0.32-17.66 0.08-22-0.65-3.85-0.64-10.6-2.31-15-3.7-4.4-1.4-10.81-4.08-14.25-5.96-3.44-1.89-6.26-3.09-6.27-2.68 0 0.41 1.68 2.39 3.75 4.4 2.08 2 6.25 5.22 9.27 7.15 3.02 1.93 8.87 4.88 13 6.56 4.12 1.67 11.1 3.84 15.5 4.8 5.82 1.28 12.49 1.76 24.5 1.76 13.93 0 17.75-0.34 24.5-2.2 4.4-1.21 11.37-3.89 15.5-5.95 5.3-2.64 9.72-5.95 15.08-11.26 6.29-6.24 8.44-9.28 12.73-18.01 2.83-5.77 5.39-11.74 5.67-13.25 0.49-2.57 0.04-2.99-6.68-6.31-3.96-1.96-6.91-3.2-6.54-2.75zm-121.87 122.31c0 6.88 0.16 9.57 0.35 6 0.2-3.57 0.2-9.2 0-12.5-0.19-3.3-0.35-0.37-0.35 6.5zm50.94 4.5c0 3.85 0.18 5.2 0.4 3 0.21-2.2 0.21-5.35-0.01-7-0.22-1.65-0.4 0.15-0.39 4z"/>
		<path id="Path 4" class="s4" d="m334.93 131.22c-3.61 1.25-8.52 3.63-10.9 5.28-2.38 1.65-5.87 4.8-7.77 7-1.89 2.2-4.59 6.25-5.99 9-1.41 2.75-3.39 7.93-4.42 11.5-1.02 3.57-2.37 11.68-3 18-0.87 8.66-0.87 14.52 0 23.75 0.67 7.15 2.17 15.48 3.59 20 1.34 4.26 4.38 10.63 6.75 14.16 2.37 3.53 5.21 7 6.31 7.73 1.1 0.72 2.23 1.1 2.5 0.84 0.27-0.26-0.48-2.61-1.68-5.22-1.19-2.62-2.98-8.13-3.96-12.26-1.38-5.79-1.79-11.6-1.77-25.5 0.02-13.38 0.47-19.92 1.75-25.5 0.95-4.13 3.06-10.31 4.69-13.75 1.63-3.44 5.33-8.76 8.22-11.83 2.89-3.06 7.27-6.69 9.75-8.05 2.48-1.37 6.98-3.23 10-4.13 3.73-1.12 8.88-1.63 16-1.56 6.28 0.05 12.51 0.7 15.5 1.61 2.75 0.84 6.12 1.85 7.5 2.25 2.24 0.66 2.09 0.3-1.5-3.46-2.21-2.33-7.33-5.85-11.45-7.89-7.3-3.61-7.73-3.7-20.5-3.97-11.45-0.25-13.86 0-19.62 2zm89.4 3.43c0.84 1.98 1.56 3.99 1.6 4.47 0.04 0.48-3.87 3.22-8.68 6.08-4.81 2.86-10.66 6.46-13 8l-4.25 2.8c3.87 3.88 4.66 5.3 4.25 5.66-0.41 0.36-0.19 0.36 0.5 0 0.69-0.36 2.39 0.35 3.78 1.59 1.38 1.24 2.51 2.81 2.5 3.5-0.02 0.69 0.42 1.25 0.97 1.25 0.55 0 1.11-0.35 1.25-0.78 0.14-0.43 4.3-3.3 9.25-6.38 4.95-3.08 9.9-6.09 11-6.69 1.1-0.59 2.6-1.44 3.34-1.87 1.06-0.62 0.6-2.36-2.19-8.28-1.94-4.13-4.57-8.45-5.84-9.6-1.27-1.16-3.14-2.38-4.16-2.72-1.76-0.59-1.78-0.43-0.32 2.97zm-200.22 10.2c1.72 3.66 4.25 10.93 5.61 16.15 2.01 7.71 2.58 12.8 3 27 0.35 11.46 0.1 20.61-0.73 26.5-0.69 4.95-2.04 11.7-3.01 15-0.96 3.3-2.75 8.47-3.97 11.5-1.22 3.03-3.81 7.97-5.75 11-1.93 3.02-5.12 7.3-7.08 9.5-1.96 2.2-6.29 6.19-9.62 8.87-3.33 2.67-9.66 6.56-14.06 8.63-4.4 2.08-11.6 4.71-16 5.86-4.4 1.14-12.05 2.54-17 3.1-4.95 0.56-20.81 1.03-35.25 1.03l-26.25 0.01v12c41.46 0 59.57-0.47 67-1.03 7.42-0.56 17.32-1.94 22-3.05 4.67-1.12 12.1-3.74 16.5-5.83 4.4-2.09 10.81-5.89 14.25-8.44 3.44-2.56 8.73-7.69 11.77-11.4 3.04-3.71 7.06-9.9 8.93-13.75 1.88-3.85 4.32-9.93 5.42-13.5 1.11-3.57 2.6-9.2 3.32-12.5 0.84-3.85 1.29-12.99 1.27-25.5-0.03-14-0.51-21.76-1.68-27.5-0.9-4.4-2.39-10.25-3.3-13-0.92-2.75-3.05-7.7-4.73-11-1.69-3.3-3.64-7.12-4.34-8.5-0.71-1.37-2.48-3.62-3.94-5-1.46-1.37-3.3-2.57-4.08-2.65-1.02-0.1-0.54 1.7 1.72 6.5zm198.56 108.4c-1.38 2.89-4.69 8.14-7.34 11.68-2.66 3.53-7.31 8.44-10.33 10.9-3.02 2.46-8.65 5.97-12.5 7.79-3.85 1.82-9.7 4.02-13 4.87-3.3 0.85-10.27 2.03-15.5 2.61-6.77 0.76-12.66 0.75-20.5-0.03-6.05-0.6-13.93-1.82-17.5-2.7-3.58-0.88-9.88-3.14-14-5.01-4.13-1.87-7.61-3.4-7.75-3.38-0.14 0.01-0.25 0.7-0.25 1.52 0 0.82 1.69 2.74 3.75 4.25 2.06 1.51 4.87 3.4 6.25 4.19 1.37 0.79 4.3 2.4 6.5 3.59 2.2 1.18 7.6 3.33 12 4.78 4.4 1.45 11.37 3.15 15.5 3.78 4.44 0.68 13.41 0.94 22 0.64 10.76-0.38 16.43-1.07 22-2.7 4.12-1.2 10.64-3.83 14.48-5.85 3.84-2.03 9.69-6.2 13-9.28 3.31-3.08 7.91-8.48 10.22-12 2.31-3.52 5.31-8.88 6.67-11.9 1.35-3.02 2.16-6 1.8-6.62-0.37-0.61-3.03-2.3-5.92-3.75-2.89-1.45-5.66-2.63-6.16-2.63-0.49 0-2.03 2.36-3.42 5.25zm-249.28 116.25c0.01 7.7 0.16 10.62 0.35 6.5 0.19-4.13 0.19-10.43 0-14-0.19-3.57-0.35-0.2-0.35 7.5z"/>
		<path id="Path 5" class="s0" d="m131.36 205.13l0.14 51.37c20.11-0.23 23.29-0.71 29.5-2.9 4.12-1.45 9.71-4.09 12.42-5.87 2.7-1.78 6.44-5.03 8.31-7.23 1.87-2.2 4.66-6.7 6.21-10 1.54-3.3 3.34-8.25 4-11 0.66-2.75 1.49-7.7 1.86-11 0.36-3.3 0.65-9.82 0.65-14.5 0-4.68-0.3-11.2-0.67-14.5-0.36-3.3-1.32-8.47-2.13-11.5-0.8-3.02-1.71-6.18-2.02-7-0.31-0.82-1.81-2.04-3.34-2.7-1.54-0.66-4.59-1.72-6.79-2.36-2.2-0.64-13.96-1.39-26.14-1.67l-22.14-0.51zm-60.36 167.37c0 6 0.43 10.71 1 11 0.55 0.28 2.91 0.21 5.25-0.15 2.5-0.39 5.18-1.63 6.5-3 1.72-1.8 2.25-3.53 2.25-7.35 0-4.22-0.46-5.47-3-8-2.44-2.44-3.83-3-7.5-3h-4.5zm35.43-2.73c-0.59 0.4-1.38 1.52-1.75 2.48-0.59 1.52-0.03 1.75 4.32 1.75q5 0 5.02-1.25c0.01-0.69-0.55-1.82-1.25-2.52-0.7-0.69-2.17-1.25-3.27-1.23-1.1 0.02-2.48 0.36-3.07 0.77zm120.15 0.31c-1.05 0.56-1.84 1.67-1.75 2.47 0.13 1.05 1.55 1.45 5.17 1.45 2.75 0 5-0.22 5-0.5 0-0.27-0.45-1.4-1-2.5-0.56-1.13-1.98-1.99-3.25-1.97-1.24 0.02-3.11 0.49-4.17 1.05zm70.25-0.39c-0.93 0.25-2.22 2.11-2.88 4.13-0.97 2.97-0.93 4.26 0.18 6.68 1.01 2.19 2.19 3.09 4.38 3.33 1.65 0.18 3.58-0.27 4.29-1 0.71-0.73 1.3-3.35 1.3-5.83 0.01-3.52-0.48-4.89-2.29-6.29-1.27-0.99-2.53-1.72-2.81-1.64-0.27 0.09-1.25 0.37-2.17 0.62zm83.76 1.5l-1.64 2.31c7.4 0.41 9.78 0.28 10.05-0.03 0.28-0.32 0.01-1.33-0.6-2.27-0.6-0.93-2.24-1.84-3.64-2.01-1.73-0.21-3.05 0.42-4.17 2zm-226.5 7.75c-0.78 0.49-1.57 1.61-1.75 2.48-0.19 0.87 0.36 2.14 1.21 2.83 1.24 1 2.04 1 4 0 1.62-0.82 2.45-2.1 2.45-3.75 0-1.93-0.51-2.5-2.25-2.48-1.24 0-2.88 0.42-3.66 0.92z"/>
		<path id="Path 6" class="s3" d="m119.47 143.25c-0.27 0.69-0.37 26.45-0.23 57.25l0.26 56 12 1-0.5-103.5c27.51 0.03 38.54 0.48 42.25 1.02 3.71 0.54 8.55 1.66 10.75 2.48 2.33 0.88 4 1.08 4 0.5 0-0.55-0.68-2.35-1.5-4-0.82-1.65-1.95-3-2.5-3-0.55 0-1-0.68-1-1.5 0-0.82-0.45-1.28-1-1-0.55 0.28-3.36-0.45-6.25-1.61-2.89-1.17-9.3-2.74-14.25-3.5-4.95-0.76-16.32-1.38-25.27-1.38-12.11-0.01-16.4 0.31-16.76 1.24z"/>
		<path id="Path 7" class="s4" d="m108.09 193.91l-0.09 63.09 11.5 0.5-0.5-115.5c25.96 0.01 37.55 0.63 42.5 1.39 4.95 0.76 11.47 2.34 14.5 3.52 3.03 1.17 5.72 1.89 6 1.6 0.28-0.3-1.07-2.12-3-4.04-1.93-1.93-5.97-4.83-9-6.44-3.03-1.61-7.75-3.69-10.5-4.62-3.93-1.33-9.96-1.79-28.16-2.15l-23.15-0.45z"/>
	</g>
</svg>