<svg version="1.2" xmlns="http://www.w3.org/2000/svg" viewBox="0 0 500 500" width="500" height="500">
	<style>
		.s0 { fill: #cbcdd1 } 
		.s1 { fill: #cbced3 } 
		.s2 { fill: #ccced3 } 
		.s3 { fill: #171d31 } 
		.s4 { fill: #283b50 } 
		.s5 { fill: #2b3f54 } 
		.s6 { fill: #2e4155 } 
		.s7 { fill: #0d82c7 } 
		.s8 { fill: #60a1c8 } 
		.s9 { fill: #a1b4c9 } 
		.s10 { fill: #c1cbcf } 
		.s11 { fill: #c9cdd0 } 
	</style>
	<g id="Background">
		<path id="Path 0" class="s0" d="m34 0v15l-3 3h-8l-3-3v-15z"/>
		<path id="Path 1" class="s1" d="m0 414v-8h20l1 7z"/>
		<path id="Path 2" class="s2" d="m0 406v-406h20v15l3 3h8l3-3v-15h466v500h-500v-86l21-1-1-7z"/>
		<path id="Path 3" class="s3" d="m159 377l5-6 9-2 11 5-3 3-12-3-5 7v3l3 7 9 1 6-3 2 2-8 5-13-2-5-11 1-2zm32-5l6-3 12 2 5 6 1 8-9 11h-12l-7-8-1-7zm56 18v-20h6l10 15v-15h3 3v26h-3l-11-13-3-3v4 12h-5zm61 7l-9-4-3-6 1-11 5-5 13-2 7 4-3 4-12-3-5 4-1 8 4 5 17-1-6 6zm24-7v-16h-7v-4l13-1h6l1 5h-7l-1 22h-4zm-112 6v-26l6 1 10 15 1-16h4v20 6h-5l-6-8-6-8v11 5z"/>
		<path id="Path 4" class="s4" d="m166 360l1-7h3 8v7h-6zm134 0l1-7h2l1 5zm24-4v4h-8v-4zm25 0v4h-7v-4z"/>
		<path id="Path 5" class="s5" d="m256 139l21-18 25-9 91-1 2 6-21 30-15-1-19-11-12 1-2 9h-14l-13 5-3-3h-11l-7 4-1 9-5 5v7l4 5-2 23 4 14 15 19 13 6 18 3 18-3 13-9 7 3 4 7 8-1 20 29 1 6-21 2v-13l-3-3h-15l-4 16h-45l-29-9-21-17-7-9-8-16-5-20 1-29 11-27zm-148 221l-1-24h7v8l1 9h1v7zm58 0h-14v-24h8l9 1 6 1v5h-5-10v10h7zm220-7h6v7h-26v-24h8l12 1h3v6l-3 1h-12v9zm-44 3v-19h7v19zm-65-12v-4h8v6h-8zm-77 16l1-7h7v7zm77-4l8-3h9 7l-1 7h-23z"/>
		<path id="Path 6" class="s6" d="m326 145l2-9 12-1 19 11 15 1v2l-9 13-6 1-14-13zm-50 32l-4-5v-7l5-5 1-9 7-4h11l3 3-15 13zm79 53l4-5h6l9 14-8 1-4-7zm-3 46l4-16h15l3 3v13zm-245 60v-16l21 1 11 9 2 17-2 4-10 8-13 1v-7h9l6-4 2-14-7-7-11-1-1 9zm45-6v-10h26v7h-9-9v9h-8zm45 12l-7-6 2-12 6-4 15 2 4 3-3 5-12-4-4 2v5l16 6 5 5-1 11-10 5v-7l3-7zm31 14l16-36 10 1 8 19 1 4 6 16h-3-6l-3-10h-18l-4 10h-8zm49-16v-20h8v20zm39 8v-28h6l2 10v26h-8zm15-21v-7h29v7l-11 1v7 2h-7l-1-10zm35 8l1-15h17 8v7h-5-13v9h-8zm-89 21v-10h8v7zm-85 1l-3-5 6-3 6 4-1 7z"/>
		<path id="Path 7" class="s7" d="m218 289l26-17 8-2 31 20 4 3v7l-10 1-8-4-15 11h-7l-15-11-6 2-6 4-7-2v-8z"/>
		<path id="Path 8" class="s8" d="m111 149l1-36 19-2h61l22 5 16 9 13 12 3 4-2 8-11 24-1 36 6 21 8 12v5l-12 12-21 12-14 4-84 1-4-4v-18z"/>
		<path id="Path 9" class="s9" d="m224 391v-11l6 8zm28-7v-4l3 3z"/>
		<path id="Path 10" class="s10" d="m246 242l-8-12-6-21 1-36 11-24h5l-11 27-1 29 5 20 8 16z"/>
		<path id="Path 11" class="s11" d="m131 111l1-4 15-3 35 1 28 3 16 9 4-1 16 9 10 14-7 10h-5l2-8-3-4-13-12-16-9-22-5zm-20 143l-4-1-3-45v-57l7-2zm135-12l4-1 7 9-5 5v15l-8 2-26 17-6-9h-10l-3-5 14-4 21-12 12-12zm-20 57l6-2 15 11h7l15-11 8 4-6 12-5 1h-22l-9-3v-4z"/>
		<path id="Path 12" class="s0" d="m111 100l50-2 40 3 27 10 2 5-4 1-16-9-28-3-35-1-15 3-1 4-19 2-1 36-7 2v57l3 45 4 1v18l4 4 84-1 3 5h10l6 9-5 4-4-5-7-2-80 2-17-10-5-13-2-116 2-25 6-23zm141 170v-15l5-5 21 17v9l8 4v7l-3 3zm-32 33l6-4 9 8v4l-13-1zm57-2l10-1 3 2v6l-3 3-16 2zm-8 59l-6-16h14v2 10 4z"/>
		<path id="Path 13" fill-rule="evenodd" class="s1" d="m106 101l1-5 4 1v3zm268 46l21-30h5l8 9-5 27h-17l-12-4zm-353 49l9 2v46l-7 2-3-5zm285 43l2-4 13-1 3 2v6zm-199 81l-5-6v-9l14-1 12 9v8zm215 0v-7l10-9h29l11 6 11 1 1 9h-17l-1 15h-17v-7l11-1v-7h-29v7l-1 3h-6zm-78 0v-6h22v6l-4 3 2 15-2 2-8-19zm-130 16l1-9 11 1 7 7-2 14-6 4h-10l-1-9zm46 0v-9h9v10zm214 0v-9h13l-1 10zm-258 24l13-1 10-8 2-4-2-17h13v30h20l1 9-9 2-5 6-5-1-5-6-39 4-2-14zm79-11l2-7 14 4-3 7h-7zm-35 4v-10h10v10zm226 0h-12v-9h12zm-101 0v-7h7l2 7zm18 0l4-5h9v12h8v-4l11 3 3 3v7l-13 1v4h7v16h-10l-17 1-4-5 1-8 5-4 12 3 3-4-7-4-13 2-5 5-1 11 3 6 9 4-7 9h-28l-7-5v-5h3v-26h-3v-10h34l4-2zm-75 3l-1 4h8l4-10h18l3 10-6 1-1 9h-6v20h-6v-20h-4l-1 16-10-15-6-1v26h-3l-8 10-11 2-20-3-2-9 8-5 3-3 7 8h12l9-11-1-8-5-6-12-2-6 3 1-15 8 3h8l10-5z"/>
		<path id="Path 14" class="s2" d="m253 370l1-9 6-1h6v10h-3v15z"/>
		<path id="Path 15" class="s3" d="m275 370l14-1 4 1v4h-13v6h10v4h-9l-1 8h13v4h-18z"/>
		<path id="Path 16" class="s10" d="m248 283h5l8 7-8 6-9-2-5-5z"/>
		<path id="Path 17" class="s11" d="m151 145h33l18 7 17 21 3 26-6 20-15 15-16 6h-35l-2-92z"/>
		<path id="Path 18" fill-rule="evenodd" class="s1" d="m243 343h11l-6-14zm-52 38l4 10 12-1 3-9-4-6-9-1z"/>
		<path id="Path 19" class="s0" d="m166 156l1-4h20l12 6 9 9v5h-4l-5-8-14-7zm-6 66l-5-1-1-7 1-17 3-1z"/>
		<path id="Path 20" class="s2" d="m158 196v-36l8-4 19 1 14 7 5 8h4l4 32-6 12-8 8-14 6h-19l-5-8z"/>
	</g>
</svg>