<svg xmlns="http://www.w3.org/2000/svg" width="80px" height="65px" viewBox="0 0 80 65"><g stroke="none" stroke-width="1" fill="none" fill-rule="nonzero"><path d="M5.85365854,60.1138211 L5.85365854,4.60162602 C5.85408968,3.66107775 6.22813457,2.75922318 6.89350756,2.09446006 C7.55888055,1.42969694 8.46107775,1.0569102 9.40162602,1.0569102 L4.52357724,1.0569102 C3.58302897,1.0569102 2.68083177,1.42969694 2.01545878,2.09446006 C1.35008579,2.75922318 0.976040904,3.66107775 0.975609756,4.60162602 L0.975609756,60.1138211 C0.976597352,62.0723743 2.565024,63.659345 4.52357724,63.6585369 L9.40162602,63.6585369 C7.44307278,63.659345 5.85464613,62.0723743 5.85365854,60.1138211 Z" fill="#EEEEEE"></path><path d="M8.22292683,11.9339837 C10.2994689,11.9326369 11.981873,10.2484133 11.9809756,8.17187097 C11.9800775,6.0953287 10.2962177,4.41256036 8.21967532,4.41300892 C6.1431329,4.41345766 4.46,6.09695346 4.46,8.17349593 C4.46304765,10.2500444 6.1463768,11.9322825 8.22292683,11.9339837 Z M8.22292683,6.36439024 C9.22186067,6.36573688 10.0306827,7.17640225 10.0297561,8.17533657 C10.0288279,9.17427089 9.2185021,9.98343308 8.21956748,9.98292519 C7.22063286,9.98241683 6.41113064,9.17243068 6.41121951,8.17349593 C6.41310216,7.17411965 7.22354887,6.36483674 8.22292683,6.36439024 L8.22292683,6.36439024 Z" fill="#CCCCCC"></path><path d="M18.2578862,11.9339837 C20.334407,11.9325471 22.0167295,10.2482838 22.0157724,8.17176272 C22.0148144,6.09524165 20.3309392,4.41253059 18.2544179,4.41300903 C16.1778967,4.41348767 14.4947967,6.09697464 14.4947967,8.17349593 C14.4978446,10.2501078 16.1812727,11.9323721 18.2578862,11.9339837 L18.2578862,11.9339837 Z M18.2578862,6.36439024 C19.2567987,6.36582663 20.0655391,7.1765316 20.0645529,8.17544467 C20.0635648,9.17435773 19.2532236,9.98346265 18.2543102,9.98292496 C17.2553968,9.98238674 16.4459275,9.17240949 16.4460163,8.17349593 C16.4479884,7.17409336 17.2584818,6.36483654 18.2578862,6.36439024 L18.2578862,6.36439024 Z" fill="#CCCCCC"></path><path d="M28.1068293,11.9339837 C30.1833501,11.9325471 31.8656726,10.2482838 31.8647155,8.17176272 C31.8637575,6.09524165 30.1798823,4.41253059 28.103361,4.41300903 C26.0268398,4.41348767 24.3437398,6.09697464 24.3437398,8.17349593 C24.3467877,10.2501078 26.0302157,11.9323721 28.1068293,11.9339837 L28.1068293,11.9339837 Z M28.1068293,6.36439024 C29.1057418,6.36582663 29.9144822,7.1765316 29.9134959,8.17544467 C29.9125079,9.17435773 29.1021667,9.98346265 28.1032533,9.98292496 C27.1043399,9.98238674 26.2948706,9.17240949 26.2949593,8.17349593 C26.2969315,7.17409336 27.1074249,6.36483654 28.1068293,6.36439024 L28.1068293,6.36439024 Z" fill="#CCCCCC"></path><path d="M42.7874797,8.96357724 L74.7502439,8.96357724 C75.2890583,8.96357724 75.7258537,8.52678187 75.7258537,7.98796748 C75.7258537,7.44915309 75.2890583,7.01235772 74.7502439,7.01235772 L42.7874797,7.01235772 C42.2486653,7.01235772 41.8118699,7.44915309 41.8118699,7.98796748 C41.8118699,8.52678187 42.2486653,8.96357724 42.7874797,8.96357724 L42.7874797,8.96357724 Z" fill="#CCCCCC"></path><g transform="translate(0.975610, 21.788618)" fill="#AE152D" class="primary-fill-color"><path d="M35.398374,0.185365854 C34.995881,-0.0470135845 34.4999863,-0.047001239 34.0975049,0.185398239 C33.6950235,0.417797718 33.4471545,0.847273651 33.4471545,1.31203252 L33.4471545,17.3658537 C33.4476104,17.8304001 33.695613,18.2594917 34.0979107,18.4917851 C34.5002084,18.7240785 34.9958139,18.7243587 35.398374,18.4925203 L49.3017886,10.4653659 C49.7043087,10.2330106 49.9522787,9.8035507 49.9522787,9.33878049 C49.9522787,8.87401028 49.7043087,8.44455036 49.3017886,8.21219512 L35.398374,0.185365854 Z M35.398374,16.2396748 L35.398374,2.43902439 L47.3505691,9.3395122 L35.398374,16.2396748 Z"></path><polygon points="0 26.8585366 78.0487805 26.8585366 78.0487805 28.8097561 0 28.8097561"></polygon><path d="M6.0897561,33.5913821 L5.12861789,33.5913821 C4.5898035,33.5913821 4.15300813,34.0281775 4.15300813,34.5669919 C4.15300813,35.1058063 4.5898035,35.5426016 5.12861789,35.5426016 L6.0897561,35.5426016 C6.62857049,35.5426016 7.06536585,35.1058063 7.06536585,34.5669919 C7.06536585,34.0281775 6.62857049,33.5913821 6.0897561,33.5913821 L6.0897561,33.5913821 Z"></path><path d="M10.9678049,33.5913821 L10.0066667,33.5913821 C9.46785228,33.5913821 9.03105691,34.0281775 9.03105691,34.5669919 C9.03105691,35.1058063 9.46785228,35.5426016 10.0066667,35.5426016 L10.9678049,35.5426016 C11.5066193,35.5426016 11.9434146,35.1058063 11.9434146,34.5669919 C11.9434146,34.0281775 11.5066193,33.5913821 10.9678049,33.5913821 Z"></path><path d="M72.7564228,33.5913821 L19.902439,33.5913821 L19.902439,33.195122 C19.902439,32.6563076 19.4656437,32.2195122 18.9268293,32.2195122 C18.3880149,32.2195122 17.9512195,32.6563076 17.9512195,33.195122 L17.9512195,33.5913821 L16.5113821,33.5913821 C15.9725677,33.5913821 15.5357724,34.0281775 15.5357724,34.5669919 C15.5357724,35.1058063 15.9725677,35.5426016 16.5113821,35.5426016 L17.9512195,35.5426016 L17.9512195,35.9282927 C17.9512195,36.4671071 18.3880149,36.9039024 18.9268293,36.9039024 C19.4656437,36.9039024 19.902439,36.4671071 19.902439,35.9282927 L19.902439,35.5426016 L72.7564228,35.5426016 C73.2952372,35.5426016 73.7320325,35.1058063 73.7320325,34.5669919 C73.7320325,34.0281775 73.2952372,33.5913821 72.7564228,33.5913821 L72.7564228,33.5913821 Z"></path></g><path d="M75.476748,0.081300813 L4.52325203,0.081300813 C2.02701361,0.0830918922 0.00340682509,2.10538928 9.24283234e-15,4.60162602 L9.24283234e-15,60.1138211 C0.00349625203,62.6100207 2.02705068,64.6322658 4.52325203,64.6341463 L75.476748,64.6341463 C77.9729493,64.6322658 79.9965037,62.6100207 80,60.1138211 L80,4.60162602 C79.9965932,2.10538928 77.9729864,0.0830918922 75.476748,0.081300813 Z M4.52325203,2.03252033 L75.476748,2.03252033 C76.8958035,2.03323574 78.0464493,3.18257221 78.0487805,4.60162602 L78.0487805,14.5626016 L1.95121951,14.5626016 L1.95121951,4.60162602 C1.95355065,3.18257221 3.10419649,2.03323574 4.52325203,2.03252033 Z M75.476748,62.6829268 L4.52325203,62.6829268 C3.10419649,62.6822114 1.95355065,61.5328749 1.95121951,60.1138211 L1.95121951,16.5133333 L78.0487805,16.5133333 L78.0487805,60.1138211 C78.0464493,61.5328749 76.8958035,62.6822114 75.476748,62.6829268 L75.476748,62.6829268 Z" fill="#CCCCCC"></path></g></svg>