<svg xmlns="http://www.w3.org/2000/svg" width="70px" height="80px" viewBox="0 0 70 80"><g stroke="none" stroke-width="1" fill="none" fill-rule="nonzero"><path d="M5.80245286,60.2637478 L5.80245286,21.9205525 C5.79986392,19.3169305 7.90832414,17.2041298 10.5119454,17.2013652 L5.66512632,17.2013652 C3.06150506,17.2041298 0.95304484,19.3169305 0.955631399,21.9205525 L0.955631399,60.2637478 C0.95304484,62.8673699 3.06150506,64.9801705 5.66512632,64.9829352 L10.5119454,64.9829352 C7.90832414,64.9801705 5.79986392,62.8673699 5.80245286,60.2637478 L5.80245286,60.2637478 Z" fill="#EEEEEE"></path><path d="M64.3208065,16.2457338 L52.5390323,16.3630294 L52.5582258,18.2964731 L64.3304839,18.1791775 C66.3942626,18.1835317 68.0648766,19.8562053 68.0645161,21.9178131 L68.0645161,54.894951 L1.93548387,54.894951 L1.93548387,21.9178131 C1.93547927,19.8564568 3.6059893,18.1841757 5.66951613,18.179822 L17.8233871,18.179822 L17.8233871,16.2463783 L5.66951613,16.2463783 C2.53771459,16.2523296 0.00159500714,18.7893075 0,21.9178131 L0,60.1577847 C0.0015063089,63.286327 2.53767774,65.8233567 5.66951613,65.8292196 L25.0375806,65.8292196 L25.0375806,77.3839624 L20.5483871,77.3839624 C20.013918,77.3839624 19.5806452,77.8167786 19.5806452,78.3506843 C19.5806452,78.88459 20.013918,79.3174061 20.5483871,79.3174061 L49.4903226,79.3174061 C50.0247917,79.3174061 50.4580645,78.88459 50.4580645,78.3506843 C50.4580645,77.8167786 50.0247917,77.3839624 49.4903226,77.3839624 L44.9624194,77.3839624 L44.9624194,65.8298641 L64.3304839,65.8298641 C67.462574,65.8240006 69.9988493,63.2865786 70,60.1577847 L70,21.9178131 C69.9975977,18.7857644 67.4561605,16.2475109 64.3208065,16.2457338 L64.3208065,16.2457338 Z M43.0269355,77.3839624 L26.9730645,77.3839624 L26.9730645,65.8298641 L43.0269355,65.8298641 L43.0269355,77.3839624 Z M64.3304839,63.8964204 L5.66951613,63.8964204 C3.60573743,63.8920661 1.93548381,62.2193926 1.93548381,60.1577847 L1.93548381,56.8283947 L68.0645162,56.8283947 L68.0645162,60.1577847 C68.0645162,62.2193926 66.3942626,63.8920661 64.3304839,63.8964204 Z" fill="#CCCCCC"></path><g transform="translate(11.706485, 0.000000)" fill="#AE152D" class="primary-fill-color"><path d="M41.9495822,18.8407407 C41.95736,12.5389697 38.7328067,6.67201248 33.4046237,3.29350042 C28.0764407,-0.0850116515 21.3866265,-0.50458978 15.6768398,2.18163242 C10.04594,-0.136059836 3.48288102,-1.10879094 1.16564293,1.87275724 C-0.705779922,4.28072616 0.0250276568,8.3694532 3.2235622,13.3830325 C3.84844628,14.3628567 4.55503354,15.3596079 5.33299,16.3653867 C5.22543986,17.1797213 5.17101783,18.0001741 5.17006802,18.8215569 C5.14492051,25.140922 8.3786088,31.0285136 13.7290423,34.4049219 C14.294817,34.7561014 14.6402131,35.3728421 14.6436013,36.0379624 L14.6436013,42.694577 L13.2711169,42.694577 C12.7360565,42.694577 12.3023043,43.1276296 12.3023043,43.661827 C12.3023043,44.1960245 12.7360565,44.629077 13.2711169,44.629077 L14.6436013,44.629077 L14.6436013,45.9229352 C14.6442217,47.5294483 15.9472306,48.8323028 17.5563361,48.835325 L18.8936203,48.835325 C19.284837,50.8619791 20.8845105,52.4395542 22.9190954,52.805191 C24.9536803,53.1708278 27.0039423,52.2491853 28.0784475,50.4859371 C28.2587489,50.1909109 28.2677054,49.8222608 28.1019432,49.5188539 C27.9361809,49.215447 27.6208831,49.0233779 27.2748195,49.0149973 C26.9287558,49.0066166 26.6045015,49.1831976 26.4242001,49.4782238 C25.8028586,50.5004861 24.64164,51.0673005 23.4519838,50.929023 C22.2623276,50.7907454 21.2625896,49.9727562 20.8930879,48.835325 L29.56396,48.835325 C31.1730394,48.8323027 32.476002,47.5294222 32.4765334,45.9229352 L32.4765334,44.629077 L34.1377239,44.629077 C34.6727843,44.629077 35.1065364,44.1960245 35.1065364,43.661827 C35.1065364,43.1276296 34.6727843,42.694577 34.1377239,42.694577 L32.4762104,42.694577 L32.4762104,36.9489507 C32.9283229,37.1262799 33.3750532,37.2928618 33.8164011,37.4486965 C34.9637347,37.8562169 36.1354893,38.1916485 37.3247942,38.4530245 C38.1039322,38.6232463 38.8930291,38.7443382 39.687405,38.815582 C40.0865557,38.8494358 40.472466,38.8663626 40.8451359,38.8663626 C41.3748077,38.8687742 41.9038659,38.8300751 42.4275297,38.7506151 C44.0291383,38.4992913 45.250165,37.8454303 46.0571858,36.8070874 C48.4478922,33.7310711 43.2744333,27.0262552 41.0860473,24.4438588 C41.6597572,22.6313618 41.951003,20.7415893 41.9495822,18.8407407 L41.9495822,18.8407407 Z M23.5552233,2.36184326 C23.6327283,2.36184326 23.7102333,2.3624007 23.7877383,2.36347542 C32.7986552,2.50310345 40.0261106,9.84328422 40.0120317,18.8407407 C40.0289911,24.4998291 37.1264076,29.7689635 32.3304041,32.7852618 C31.769306,33.1385577 31.308807,33.6301821 30.9932814,34.2127616 C26.8874539,32.3342009 22.4617569,29.6022032 18.2099616,26.2929185 C13.9353993,22.966062 10.2019188,19.3514487 7.37670001,15.8329155 C8.79172916,8.02423654 15.6069667,2.34952697 23.5552233,2.36184326 L23.5552233,2.36184326 Z M4.85794892,12.3445284 C2.1714318,8.13247694 1.38362575,4.74790792 2.69636672,3.05892818 C3.80081299,1.6378767 7.86482005,1.37365623 13.4878079,3.40713819 C9.76854992,5.84441506 7.05674065,9.54144734 5.85195057,13.8171665 C5.50080985,13.3223644 5.16947597,12.831485 4.85794892,12.3445284 Z M30.5385861,45.9226127 C30.5392118,46.4611841 30.1030756,46.8986362 29.563637,46.9005025 L17.5563361,46.9005025 C17.0168345,46.8987249 16.5806001,46.4612468 16.5812256,45.9226127 L16.5812256,44.6287546 L30.5385861,44.6287546 L30.5385861,45.9226127 Z M30.5385854,38.2752117 L24.2090102,38.2752117 C23.6739499,38.2752117 23.2401977,38.7082643 23.2401977,39.2424617 C23.2401977,39.7766591 23.6739499,40.2097117 24.2090102,40.2097117 L30.5385854,40.2097117 L30.5385854,42.6942546 L16.5812263,42.6942546 L16.5812263,40.2097117 L17.0246195,40.2097117 C17.5596799,40.2097117 17.993432,39.7766591 17.993432,39.2424617 C17.993432,38.7082643 17.5596799,38.2752117 17.0246195,38.2752117 L16.5812263,38.2752117 L16.5812263,36.03764 C16.5796713,34.7102895 15.8949807,33.476887 14.7684166,32.7720427 C9.97931555,29.7497055 7.08499048,24.4796322 7.10756049,18.823169 C7.10756049,18.726444 7.10979216,18.629719 7.11140685,18.532994 C9.84652607,21.6894532 13.2292965,24.8684816 17.0191296,27.8185941 C21.5044086,31.3093995 26.194753,34.1863234 30.5385854,36.1325917 L30.5385854,38.2752117 Z M44.526462,35.619788 C44.0318833,36.2559161 43.2245395,36.6658689 42.126552,36.8382006 C41.3729011,36.944358 40.6092742,36.960593 39.8517802,36.8865631 C39.1389363,36.8222532 38.4308456,36.7132765 37.7316954,36.5602774 C36.6219815,36.315845 35.5286462,36.0024367 34.4580779,35.6218837 C33.9110218,35.430207 33.3533087,35.2164447 32.7889754,34.9880125 C32.9394481,34.7597283 33.1366853,34.565886 33.3676794,34.4192695 C36.3962473,32.511939 38.801558,29.7637643 40.2887146,26.5116782 C44.0522283,31.1454506 45.3108773,34.6104626 44.526462,35.619788 L44.526462,35.619788 Z"></path><path d="M20.6405508,40.2097117 L20.6566977,40.2097117 C21.191758,40.2097117 21.6255102,39.7766591 21.6255102,39.2424617 C21.6255102,38.7082643 21.191758,38.2752117 20.6566977,38.2752117 L20.6405508,38.2752117 C20.1054904,38.2752117 19.6717383,38.7082643 19.6717383,39.2424617 C19.6717383,39.7766591 20.1054904,40.2097117 20.6405508,40.2097117 L20.6405508,40.2097117 Z"></path><path d="M20.2948462,12.2726294 C20.5818746,12.2727224 20.8672948,12.229848 21.1415883,12.1454361 L22.3545416,14.1966509 C21.3288811,15.1403451 20.9732764,16.6077923 21.4534274,17.9152118 C21.9335783,19.2226313 23.155011,20.1127768 24.548579,20.1708707 L25.4781546,23.3694053 C24.3454717,24.1952493 23.9724259,25.7151045 24.5943402,26.9702233 C25.2162546,28.2253421 26.6526558,28.8515018 27.9974403,28.4537113 C29.3422248,28.0559209 30.2051499,26.7496151 30.0418693,25.3588314 C29.8785887,23.9680476 28.7364849,22.8963772 27.3360141,22.8198461 L26.4306588,19.7043337 C28.055448,18.7603221 28.6238251,16.6911527 27.708684,15.0516999 L29.1630331,14.0501126 C29.6134196,14.3269985 30.1318923,14.4737626 30.6608172,14.4740905 C31.9252713,14.4805401 33.0481642,13.6683255 33.4359935,12.4667407 C33.8238227,11.265156 33.3871824,9.95120127 32.3568578,9.21936434 C31.3265332,8.48752742 29.940044,8.50651791 28.9302158,9.26629844 C27.9203877,10.026079 27.5200153,11.3514981 27.9407146,12.5420086 L26.2976086,13.6735299 C25.6226811,13.3136265 24.8453531,13.1931855 24.0929142,13.3319294 L22.7005691,10.9766756 C23.4266846,9.87517694 23.3102337,8.4219308 22.417947,7.44969926 C21.5256602,6.47746772 20.0857653,6.23492658 18.9233735,6.86106061 C17.7609816,7.48719463 17.1734077,8.82185227 17.4973525,10.1002269 C17.8212973,11.3786016 18.9739027,12.2737126 20.2946847,12.2726294 L20.2948462,12.2726294 Z M28.1238216,25.6966088 C28.121148,26.2186151 27.6955851,26.6398658 27.1727319,26.6380656 C26.6498787,26.6362539 26.2272454,26.2120734 26.2281893,25.6900612 C26.2291365,25.168049 26.6533037,24.7453975 27.1761601,24.7454796 C27.7007171,24.7473461 28.1247141,25.1728953 28.1238216,25.6966088 L28.1238216,25.6966088 Z M30.6608172,10.6374801 C31.0465836,10.6354696 31.3954933,10.8659173 31.5445263,11.221165 C31.6935593,11.5764126 31.6132934,11.9863272 31.3412311,12.2593854 C31.0691689,12.5324436 30.6590206,12.6147383 30.302419,12.4678192 C29.9458173,12.3209001 29.7131566,11.9737719 29.7131566,11.5886225 C29.7126194,11.0651341 30.1364866,10.6399316 30.6608172,10.6379769 L30.6608172,10.6374801 Z M26.2073488,16.7263321 C26.204229,17.560206 25.5251561,18.2339554 24.6899321,18.2318569 C23.854708,18.2297486 23.1790482,17.5525876 23.1801419,16.7187086 C23.1812382,15.8848297 23.8586742,15.2094398 24.6939009,15.2095229 C25.5312159,15.2119234 26.2084199,15.8908484 26.2073488,16.7268158 L26.2073488,16.7263321 Z M20.2948462,8.43666469 C20.6805982,8.43471876 21.0294586,8.6652082 21.1784406,9.0204613 C21.3274227,9.3757144 21.2471167,9.78560272 20.9750414,10.0586275 C20.7029661,10.3316522 20.2928304,10.4139171 19.9362486,10.2669882 C19.5796667,10.1200594 19.3470232,9.77294114 19.3470232,9.38780626 C19.3461309,8.86402998 19.7702261,8.43845484 20.2948462,8.43666469 L20.2948462,8.43666469 Z"></path><path d="M16.7036196,22.0963471 C17.8730719,22.0982999 18.9284625,21.3964809 19.3773513,20.3183515 C19.8262401,19.2402221 19.5801562,17.9982692 18.7539212,17.1719819 C17.9276862,16.3456947 16.6841415,16.0979248 15.6035191,16.5442805 C14.5228966,16.9906362 13.818173,18.043146 13.818173,19.2107138 C13.818173,20.8025161 15.1092482,22.0936752 16.7036196,22.0963471 Z M16.7036196,18.2595723 C17.0893717,18.2576263 17.4382321,18.4881158 17.5872141,18.8433689 C17.7361961,19.198622 17.6558901,19.6085103 17.3838148,19.881535 C17.1117396,20.1545597 16.7016038,20.2368247 16.345022,20.0898958 C15.9884402,19.942967 15.7557977,19.5958487 15.7557977,19.2107138 C15.7553497,18.6872257 16.179289,18.2620954 16.7036196,18.2602295 L16.7036196,18.2595723 Z"></path></g></g></svg>