<svg xmlns="http://www.w3.org/2000/svg" width="60px" height="61px" viewBox="0 0 60 61"><g stroke="none" stroke-width="1" fill="none" fill-rule="evenodd"><g fill-rule="nonzero"><path d="M8.60841007,32.7790974 C8.60729658,23.9992206 12.6534664,15.7086921 19.5750445,10.3074896 C26.4966227,4.9057304 35.5220086,2.99621444 44.0380048,5.13064133 C34.3757423,-0.347387173 22.411483,0.286705796 13.3822002,6.75512181 C4.35236038,13.2235377 -0.097424323,24.3477212 1.98077501,35.2586848 C4.05841739,46.1696481 12.2849243,54.8799362 23.0594937,57.5771971 C14.125965,52.5194849 8.60506974,43.0453904 8.60841007,32.7790974 Z" fill="#EEEEEE"></path><path d="M29.9860823,0 C13.4824079,0 0.0573411876,13.4250668 0.0573411876,29.9287411 C0.0573411876,46.4324153 13.4824079,59.8574822 29.9860823,59.8574822 C33.400386,59.8569255 36.7896378,59.2690395 40.005196,58.1188762 L56.1809679,60.9547581 C56.2611342,60.9664489 56.3418571,60.9709026 56.4231369,60.9695713 C56.8996809,60.9658923 57.3433789,60.7259501 57.6067028,60.3284591 C57.8700268,59.9304113 57.9179038,59.4282586 57.7341894,58.9879009 L53.3306116,48.6269671 C57.6033626,43.3332097 59.9281844,36.7317399 59.9148806,29.9287411 C59.9148806,13.4250668 46.4897565,0 29.9860823,0 Z M55.2117355,39.7908626 C54.1100059,42.5861045 52.5495472,45.1775906 50.5938242,47.4584323 C50.2391999,47.8676143 50.1506829,48.4438093 50.3661298,48.940395 L54.0855107,57.6913227 L40.1187648,55.2540455 C40.0385986,55.2423546 39.9578756,55.2373441 39.8765959,55.2401276 C39.7067993,55.2395709 39.5381161,55.2685199 39.3777835,55.3253044 C36.3732185,56.4448486 33.1927331,57.0193736 29.9860823,57.0216003 C15.0501038,57.0216003 2.90769748,44.8786372 2.90769748,29.9432155 C2.90769748,15.0072372 15.0501038,2.86483069 29.9860823,2.86483069 C44.9220606,2.86483069 57.0644763,15.0072372 57.0644763,29.9432155 C57.0672506,33.3124258 56.4387248,36.6526871 55.2117355,39.7908626 Z" fill="#ABABAB"></path><g transform="translate(13.111639, 25.795724)" fill="#AE152D" class="primary-fill-color"><path d="M29.0313242,0.0428666508 C26.4648901,0.0428666508 24.3850207,2.12273601 24.3850207,4.68861349 C24.3850207,7.25504751 26.4648901,9.33491686 29.0313242,9.33491686 C31.5972016,9.33491686 33.6770709,7.25504751 33.6770709,4.68861349 C33.6765143,2.12329283 31.5966449,0.0434234679 29.0313242,0.0428666508 Z M29.0313242,6.48456057 C28.0392667,6.48456057 27.235377,5.68067102 27.235377,4.68861349 C27.235377,3.69711249 28.0392667,2.89322295 29.0313242,2.89322295 C30.0228251,2.89322295 30.8267146,3.69711249 30.8267146,4.68861349 C30.826158,5.68011435 30.0222684,6.48344722 29.0313242,6.48456057 Z"></path><path d="M16.8744433,0.0428666508 C14.308566,0.0428666508 12.2281398,2.12273601 12.2281398,4.68861349 C12.2281398,7.25504751 14.308566,9.33491686 16.8744433,9.33491686 C19.4403207,9.33491686 21.52019,7.25504751 21.52019,4.68861349 C21.52019,2.12329283 19.4403207,0.0434234679 16.8744433,0.0428666508 Z M16.8744433,6.48456057 C15.8823857,6.48456057 15.0784961,5.68067102 15.0784961,4.68861349 C15.0784961,3.69711249 15.8823857,2.89322295 16.8744433,2.89322295 C17.8659442,2.89322295 18.6698337,3.69711249 18.6698337,4.68861349 C18.6692771,5.68011435 17.8659442,6.48344722 16.8744433,6.48456057 Z"></path><path d="M4.71756228,0.0428666508 C2.15168494,0.0428666508 0.0712589074,2.12273601 0.0712589074,4.68861349 C0.0712589074,7.25504751 2.15168494,9.33491686 4.71756228,9.33491686 C7.28343976,9.33491686 9.3638658,7.25504751 9.3638658,4.68861349 C9.36330912,2.12329283 7.28343976,0.0434234679 4.71756228,0.0428666508 Z M4.71756228,6.48456057 C3.72606143,6.48456057 2.9216152,5.68067102 2.9216152,4.68861349 C2.9216152,3.69711249 3.72606143,2.89322295 4.71756228,2.89322295 C5.70906328,2.89322295 6.5135095,3.69711249 6.5135095,4.68861349 C6.51239601,5.68011435 5.70906328,6.48344722 4.71756228,6.48456057 Z"></path></g></g></g></svg>