<svg xmlns="http://www.w3.org/2000/svg" width="60px" height="60px" viewBox="0 0 60 60"><g stroke="none" stroke-width="1" fill="none" fill-rule="evenodd"><g fill-rule="nonzero"><g transform="translate(1.290323, 1.290323)" fill="#EEEEEE"><path d="M14.6582661,14.9485886 C14.6582661,8.12852826 20.1864919,2.60030245 27.0065524,2.60030245 C27.4067541,2.60030245 27.7938508,2.626008 28.1809476,2.65171368 C24.0403226,-0.595766194 18.2973791,-0.863911226 13.8724799,1.98437497 C9.44808465,4.83266129 7.31350813,10.171371 8.55544361,15.2847782 C9.7973791,20.3981855 14.1426412,24.1633065 19.3805444,24.6648186 C16.3986895,22.3225806 14.6572581,18.7404234 14.6582661,14.9485886 Z"></path><path d="M26.9934476,32.9485886 C28.4506049,32.9470766 29.9037298,33.0982863 31.329133,33.4002015 C28.0877017,31.4002015 24.3503025,30.3497985 20.5418347,30.3679435 C9.1743951,30.3936492 -0.0257056774,39.4647177 -5.37365061e-05,51.813004 L6.58064516,51.7998992 C7.75504026,40.7938508 16.4390121,32.9742943 26.9934476,32.9485886 L26.9934476,32.9485886 Z"></path><path d="M35.3936492,47.4128025 C35.3936492,42.6925404 37.9717742,38.3482863 42.1154234,36.0871975 C46.2590725,33.8256049 51.3074596,34.0075605 55.2777218,36.5614919 C52.6275201,32.4445564 47.8765121,30.1819556 43.0105846,30.7192541 C38.1441533,31.2565524 34.0015121,34.5015121 32.3135081,39.0967742 C30.625504,43.6925404 31.6834677,48.8472782 35.0453628,52.4067541 C35.7605846,53.1648186 36.5665323,53.8326613 37.4450605,54.3936492 C36.1008065,52.3140121 35.3881048,49.8891129 35.3936492,47.4128025 L35.3936492,47.4128025 Z"></path></g><path d="M21.8452621,27.296875 C29.3775201,27.296875 35.483871,21.1905241 35.483871,13.6582661 C35.483871,6.125504 29.3775201,0.0196572903 21.8452621,0.0196572903 C14.313004,0.0196572903 8.20665316,6.125504 8.20665316,13.6582661 C8.21370968,21.1875 14.3155241,27.2898186 21.8452621,27.296875 Z M21.8452621,2.60030245 C27.9526209,2.60030245 32.9032258,7.55090723 32.9032258,13.6582661 C32.9032258,19.765625 27.9526209,24.7162298 21.8452621,24.7162298 C15.7379032,24.7162298 10.7872983,19.765625 10.7872983,13.6582661 C10.7943548,7.55393148 15.7409275,2.60735884 21.8452621,2.60030245 Z" fill="#ABABAB"></path><path d="M21.8321573,32.9485886 L21.8709677,32.9485886 C26.7938508,32.9228831 31.5332661,34.8160283 35.0841734,38.2258065 L36.8775201,36.3679435 C32.8442541,32.4949597 27.4627017,30.3427419 21.8709677,30.3677246 L21.8321573,30.3677246 C15.9228831,30.3805444 10.4390121,32.6774194 6.374496,36.858367 C2.24546374,41.0776209 -0.0126008,46.8452621 -5.24535753e-05,53.1033266 C0.00252015484,53.4455645 0.136592774,53.7736895 0.374496,54.0196573 C0.616935484,54.2620968 0.947076645,54.3971774 1.29032258,54.3937166 L35.6129032,54.329133 L35.6129032,51.7484879 L2.61945561,51.813004 C2.89062503,46.7419355 4.85181445,42.109879 8.21925406,38.6648186 C11.7938508,34.9873992 16.6325605,32.9611895 21.8321573,32.9485886 Z" fill="#ABABAB"></path><path d="M50.9420363,43.5418347 L47.0065524,43.5418347 L47.0065524,39.6063508 C47.0065524,38.8941533 46.4289315,38.3160283 45.7162298,38.3160283 C45.0035283,38.3160283 44.4259072,38.8941533 44.4259072,39.6063508 L44.4259072,43.5418347 L40.4904234,43.5418347 C39.7777218,43.5418347 39.2001008,44.1199597 39.2001008,44.8321573 C39.2001008,45.5448588 39.7777218,46.1224799 40.4904234,46.1224799 L44.4259072,46.1224799 L44.4259072,50.0579637 C44.4259072,50.7706653 45.0035283,51.3482863 45.7162298,51.3482863 C46.4289315,51.3482863 47.0065524,50.7706653 47.0065524,50.0579637 L47.0065524,46.1224799 L50.9420363,46.1224799 C51.6547379,46.1224799 52.2323588,45.5448588 52.2323588,44.8321573 C52.2323588,44.1199597 51.6547379,43.5418347 50.9420363,43.5418347 Z" fill="#AE152D" class="primary-fill-color"></path><path d="M45.7162298,30.6384264 C37.8775201,30.6384264 31.5226814,36.9934476 31.5226814,44.8321573 C31.5226814,52.671371 37.8775201,59.0257057 45.7162298,59.0257057 C53.5549395,59.0257057 59.9099607,52.671371 59.9099607,44.8321573 C59.9289315,41.061996 58.4400201,37.4405241 55.7736895,34.7746975 C53.107863,32.108871 49.4863911,30.6194556 45.7162298,30.6384264 Z M45.7162298,56.4450605 C39.3024194,56.4450605 34.1033266,51.2459677 34.1033266,44.8321573 C34.1033266,38.4188508 39.3024194,33.2192541 45.7162298,33.2192541 C52.1300403,33.2192541 57.329133,38.4188508 57.329133,44.8321573 C57.329133,51.2459677 52.1300403,56.4450605 45.7162298,56.4450605 Z" fill="#AE152D" class="primary-fill-color"></path></g></g></svg>