<svg xmlns="http://www.w3.org/2000/svg" width="60px" height="45px" viewBox="0 0 60 45"><g stroke="none" stroke-width="1" fill="none" fill-rule="evenodd"><g fill-rule="nonzero"><path d="M31.0985097,28.9059217 C31.3181132,28.0772387 31.753381,27.3214286 32.3599987,26.7148109 L52.5851825,6.4896271 C54.0569196,5.01838235 56.3021927,4.64663206 58.169807,5.56492916 C57.9344472,5.08682382 57.6222755,4.65007878 57.2451089,4.27291235 L55.6803112,2.7081145 C53.7811843,0.809480042 50.7027968,0.809480042 48.8036699,2.7081145 L28.5784861,22.9332983 C27.9718684,23.5394236 27.5366005,24.2957261 27.3169971,25.1244091 L24.6615678,35.1291688 L29.7828585,33.8622637 L31.0985097,28.9059217 Z" fill="#EEEEEE"></path><g transform="translate(0.000000, 4.159664)" fill="#ABABAB"><path d="M54.5517661,11.1805738 C54.2169446,11.1810662 53.8964023,11.0481224 53.6600578,10.8112854 L45.1078322,2.25905987 C44.7789194,1.94393382 44.6459755,1.47567618 44.759224,1.03449971 C44.8729649,0.593815714 45.2156645,0.248161765 45.6553637,0.130974202 C46.0955554,0.0137867647 46.5647977,0.142791429 46.8823858,0.46875 L55.4429818,9.02934605 C55.8034073,9.3897716 55.9112395,9.93188685 55.7162553,10.4026064 C55.521271,10.8738183 55.0613839,11.1810662 54.5517661,11.1810662 L54.5517661,11.1805738 Z"></path><path d="M31.4948792,8.25433298 L1.2605042,8.25433298 C0.564272521,8.25433298 0,7.69006034 0,6.99382878 C0,6.29808958 0.564272521,5.73332458 1.2605042,5.73332458 L31.4948792,5.73332458 C32.1911108,5.73332458 32.7553834,6.29808958 32.7553834,6.99382878 C32.7553834,7.69006034 32.1911108,8.25433298 31.4948792,8.25433298 Z"></path><path d="M19.4097952,18.9730501 L1.2605042,18.9730501 C0.564272521,18.9730501 0,18.4087776 0,17.7125459 C0,17.0163144 0.564272521,16.4520417 1.2605042,16.4520417 L19.4097952,16.4520417 C20.1060267,16.4520417 20.6702994,17.0163144 20.6702994,17.7125459 C20.6702994,18.4087776 20.1060267,18.9730501 19.4097952,18.9730501 Z"></path><path d="M19.4097952,29.6917674 L1.2605042,29.6917674 C0.564272521,29.6917674 0,29.1270024 0,28.4312632 C0,27.7350315 0.564272521,27.170759 1.2605042,27.170759 L19.4097952,27.170759 C20.1060267,27.170759 20.6702994,27.7350315 20.6702994,28.4312632 C20.6702994,29.1270024 20.1060267,29.6917674 19.4097952,29.6917674 Z"></path><path d="M36.28578,40.4099922 L1.2605042,40.4099922 C0.564272521,40.4099922 0,39.8457195 0,39.149488 C0,38.4532563 0.564272521,37.8889838 1.2605042,37.8889838 L36.28578,37.8889838 C36.9820116,37.8889838 37.5462842,38.4532563 37.5462842,39.149488 C37.5462842,39.8457195 36.9820116,40.4099922 36.28578,40.4099922 Z"></path><path d="M50.1961331,15.5352233 C49.861804,15.5357143 49.5407695,15.4032629 49.3049173,15.1664259 L40.7521993,6.61370798 C40.2603073,6.12181588 40.2603073,5.32366071 40.7521993,4.83127626 C41.2445837,4.33889181 42.0427389,4.33889181 42.5351234,4.83127626 L51.087349,13.3835018 C51.4477745,13.7439272 51.5556066,14.2860426 51.3606224,14.7572545 C51.1656381,15.2284664 50.7057511,15.5352233 50.1961331,15.5352233 Z"></path></g><path d="M56.571527,1.81739105 C54.1790309,-0.570181261 50.3049502,-0.570181261 47.9119616,1.81739105 L27.6872703,22.0420825 C26.9240743,22.8057707 26.3760504,23.7575498 26.0988379,24.8014049 L23.443901,34.8061646 C23.3296678,35.2365087 23.4512868,35.695411 23.7634586,36.0129989 C24.0756303,36.3305869 24.532563,36.460084 24.9648766,36.3527443 L35.0838695,33.8494616 C36.1661305,33.5816045 37.1548385,33.0237329 37.943146,32.2354254 L58.1363249,12.0422466 C60.5238971,9.64925811 60.5238971,5.77517723 58.1363249,3.38218878 L56.571527,1.81739105 Z M56.3538932,10.2588301 L36.1607143,30.452009 C35.6968881,30.9158351 35.1153821,31.2442555 34.478729,31.4018186 L26.4272584,33.3930213 L28.5351562,25.4479058 C28.6986279,24.8339023 29.0206474,24.2740612 29.469702,23.8245141 L49.6943934,3.59982277 C51.1021205,2.19504983 53.3813682,2.19504983 54.7890953,3.59982277 L56.3538932,5.1646205 C57.7606355,6.57136286 57.7606355,8.85208765 56.3538932,10.2588301 L56.3538932,10.2588301 Z" fill="#AE152D" class="primary-fill-color"></path></g></g></svg>